<?xml version="1.0" encoding="UTF-8" standalone="no"?>
<!-- Created with Inkscape (http://www.inkscape.org/) -->

<svg
   version="1.1"
   id="svg1"
   width="628.52667"
   height="863.61505"
   viewBox="0 0 628.52667 863.61505"
   sodipodi:docname="torus.svg"
   inkscape:version="1.3.2 (091e20e, 2023-11-25)"
   xmlns:inkscape="http://www.inkscape.org/namespaces/inkscape"
   xmlns:sodipodi="http://sodipodi.sourceforge.net/DTD/sodipodi-0.dtd"
   xmlns="http://www.w3.org/2000/svg"
   xmlns:svg="http://www.w3.org/2000/svg">
  <defs
     id="defs1">
    <clipPath
       clipPathUnits="userSpaceOnUse"
       id="clipPath1">
      <path
         d="M 0,0 H 794.66667 V 1122.6667 H 0 Z"
         id="path1" />
    </clipPath>
  </defs>
  <sodipodi:namedview
     id="namedview1"
     pagecolor="#ffffff"
     bordercolor="#666666"
     borderopacity="1.0"
     inkscape:showpageshadow="2"
     inkscape:pageopacity="0.0"
     inkscape:pagecheckerboard="0"
     inkscape:deskcolor="#d1d1d1"
     inkscape:zoom="0.67643716"
     inkscape:cx="575.81106"
     inkscape:cy="855.21617"
     inkscape:window-width="1288"
     inkscape:window-height="626"
     inkscape:window-x="0"
     inkscape:window-y="25"
     inkscape:window-maximized="0"
     inkscape:current-layer="g1">
    <inkscape:page
       x="0"
       y="0"
       id="page1"
       width="628.52667"
       height="863.61505"
       margin="0"
       bleed="0" />
  </sodipodi:namedview>
  <g
     id="g1"
     inkscape:groupmode="layer"
     inkscape:label=""
     clip-path="url(#clipPath1)">
    <path
       id="path2"
       d="m 358.004,369.577 c 0,127.02 -60.336,229.983 -125.512,229.983 -65.172,0 -139.484,-102.963 -139.484,-229.983 0,-127.013 74.312,-229.98 139.484,-229.98 65.176,0 125.512,102.967 125.512,229.98"
       style="fill:none;stroke:#000000;stroke-width:4.13002;stroke-linecap:butt;stroke-linejoin:miter;stroke-miterlimit:4;stroke-dasharray:none;stroke-opacity:1"
       transform="matrix(1.3333333,0,0,1.3318867,-98.633333,-90.5384)" />
    <path
       id="path3"
       d="m 491.098,95.408 3.015,558.387"
       style="fill:none;stroke:#000000;stroke-width:4.13002;stroke-linecap:butt;stroke-linejoin:miter;stroke-miterlimit:4;stroke-dasharray:none;stroke-opacity:1"
       transform="matrix(1.3333333,0,0,1.3318867,-98.633333,-90.5384)" />
    <path
       id="path4"
       d="m 112.901,-483.703 -18.604,-6.839 18.604,-6.841 c -2.974,4.039 -2.957,9.566 0,13.68 z"
       style="fill:#000000;fill-opacity:1;fill-rule:evenodd;stroke:#000000;stroke-width:1.06427;stroke-linecap:butt;stroke-linejoin:round;stroke-miterlimit:4;stroke-dasharray:none;stroke-opacity:1"
       transform="matrix(0.00719421,1.3318867,-1.3333333,0.0071864,-98.633333,-90.5384)" />
    <path
       id="path5"
       d="m -641.596,497.441 -18.604,-6.843 18.608,-6.841 c -2.975,4.039 -2.961,9.566 -0.004,13.684 z"
       style="fill:#000000;fill-opacity:1;fill-rule:evenodd;stroke:#000000;stroke-width:1.06427;stroke-linecap:butt;stroke-linejoin:round;stroke-miterlimit:4;stroke-dasharray:none;stroke-opacity:1"
       transform="matrix(-0.00719421,-1.3318867,1.3333333,-0.0071864,-98.633333,-90.5384)" />
    <path
       id="path6"
       d="m 236.012,212.911 c -20.758,23.768 -41.512,47.536 -52.563,80.345 -11.043,32.805 -12.387,74.647 -8.703,105.782 3.688,31.132 12.387,51.556 23.77,69.634 11.382,18.075 25.445,33.811 39.5,49.542"
       style="fill:none;stroke:#000000;stroke-width:4.13002;stroke-linecap:butt;stroke-linejoin:miter;stroke-miterlimit:4;stroke-dasharray:none;stroke-opacity:1"
       transform="matrix(1.3333333,0,0,1.3318867,-98.633333,-90.5384)" />
    <path
       id="path7"
       d="m 234,494.114 c 18.75,-24.44 37.492,-48.877 43.855,-82.187 6.36,-33.309 0.336,-75.488 -10.046,-104.445 -10.375,-28.957 -25.106,-44.689 -39.836,-60.429"
       style="fill:none;stroke:#000000;stroke-width:4.13002;stroke-linecap:butt;stroke-linejoin:miter;stroke-miterlimit:4;stroke-dasharray:none;stroke-opacity:1"
       transform="matrix(1.3333333,0,0,1.3318867,-98.633333,-90.5384)" />
    <path
       id="path8"
       d="m 232.996,599.56 c 58.918,-0.668 117.836,-1.337 161.359,-1.673 43.516,-0.333 71.637,-0.333 99.758,-0.333"
       style="fill:none;stroke:#000000;stroke-width:2.8381;stroke-linecap:butt;stroke-linejoin:miter;stroke-miterlimit:4;stroke-dasharray:2.8381, 5.67619;stroke-dashoffset:0;stroke-opacity:1"
       transform="matrix(1.3333333,0,0,1.3318867,-98.633333,-90.5384)" />
    <path
       id="path9"
       d="m 246.338,501.598 c 58.708,-0.664 117.42,-1.332 160.787,-1.668 43.368,-0.332 71.391,-0.332 99.409,-0.332"
       style="fill:none;stroke:#000000;stroke-width:2.82811;stroke-linecap:butt;stroke-linejoin:miter;stroke-miterlimit:4;stroke-dasharray:2.82811, 5.65622;stroke-dashoffset:0;stroke-opacity:1"
       transform="matrix(1.296936,0,0,1.3333333,-98.633333,-90.5384)" />
    <path
       id="path10"
       d="m 242.129,229.262 c 58.712,-0.664 117.424,-1.332 160.792,-1.668 43.367,-0.336 71.39,-0.336 99.409,-0.336"
       style="fill:none;stroke:#000000;stroke-width:2.82811;stroke-linecap:butt;stroke-linejoin:miter;stroke-miterlimit:4;stroke-dasharray:2.82811, 5.65622;stroke-dashoffset:0;stroke-opacity:1"
       transform="matrix(1.296936,0,0,1.3333333,-98.633333,-90.5384)" />
    <path
       id="path11"
       d="m 237.684,136.453 c 58.696,-0.668 117.392,-1.336 160.746,-1.668 43.353,-0.332 71.368,-0.332 99.379,-0.332"
       style="fill:none;stroke:#000000;stroke-width:2.82736;stroke-linecap:butt;stroke-linejoin:miter;stroke-miterlimit:4;stroke-dasharray:2.82736, 5.65472;stroke-dashoffset:0;stroke-opacity:1"
       transform="matrix(1.3127307,0,0,1.3333333,-98.633333,-90.5384)" />
    <path
       id="path12"
       d="m 544.7215,832.18954 c -0.10437,0.15594 -0.30818,0.30651 -0.30818,0.46245 0,0.22694 0.41157,0.6851 0.82314,0.6851 0.30818,0 0.51594,-0.15164 2.36505,-1.52505 0.51594,-0.38289 1.85404,-1.30245 2.36604,-1.68531 0.61932,3.8234 2.46942,7.49085 7.30783,7.49085 2.67225,0 4.93786,-1.14648 6.27694,-1.91116 0.92258,-0.45816 4.01133,-2.36933 4.01133,-2.82749 0,-0.15164 -0.20775,-0.60873 -0.71976,-0.60873 -0.20775,0 -0.31113,0.0752 -0.92652,0.45709 -4.21909,3.05441 -6.58414,3.81909 -8.53861,3.81909 -2.88493,0 -4.01527,-2.59625 -4.01527,-6.33899 0,-0.3076 0.20776,-2.52528 0.41157,-2.8275 0.10339,-0.15594 0.10339,-0.23123 1.44247,-1.22284 5.24604,-3.89868 14.60779,-12.15423 14.60779,-19.71607 0,-0.83996 0,-3.8234 -3.90795,-3.8234 -5.4538,0 -10.28827,8.02431 -10.9076,9.17187 -3.18819,5.34738 -5.24604,11.00236 -5.24604,16.81221 z m 9.36076,-6.79717 c 0.10437,-0.61303 2.98537,-11.38955 6.68851,-17.11982 1.75065,-2.59625 3.19312,-4.58377 5.24998,-4.58377 2.26167,0 2.26167,1.75629 2.26167,2.52097 0,8.17595 -11.11141,16.73801 -14.20016,19.18262 z"
       style="fill:#000000;fill-opacity:1;fill-rule:nonzero;stroke:none;stroke-width:1.02906" />
    <path
       id="path13"
       d="m 235.145,138.152 c 0,4.743 -3.848,8.582 -8.594,8.582 -4.742,0 -8.59,-3.839 -8.59,-8.582 0,-4.738 3.848,-8.582 8.59,-8.582 4.746,0 8.594,3.844 8.594,8.582 z"
       style="fill:#000000;fill-opacity:0.976096;fill-rule:nonzero;stroke:none"
       transform="matrix(1.3333333,0,0,1.3333333,-98.633333,-90.5384)" />
    <path
       id="path14"
       d="m 235.145,138.302 c 0,4.748 -3.848,8.592 -8.594,8.592 -4.742,0 -8.59,-3.844 -8.59,-8.592 0,-4.743 3.848,-8.591 8.59,-8.591 4.746,0 8.594,3.848 8.594,8.591 z"
       style="fill:none;stroke:#000000;stroke-width:1.59179;stroke-linecap:butt;stroke-linejoin:miter;stroke-miterlimit:4;stroke-dasharray:none;stroke-opacity:0.989637"
       transform="matrix(1.3333333,0,0,1.3318867,-98.633333,-90.5384)" />
    <path
       id="path15"
       d="m 234.992,229.906 c 0,4.739 -3.847,8.578 -8.594,8.578 -4.742,0 -8.589,-3.839 -8.589,-8.578 0,-4.742 3.847,-8.582 8.589,-8.582 4.747,0 8.594,3.84 8.594,8.582 z"
       style="fill:#000000;fill-opacity:0.976096;fill-rule:nonzero;stroke:none"
       transform="matrix(1.3333333,0,0,1.3333333,-98.633333,-90.5384)" />
    <path
       id="path16"
       d="m 234.992,230.156 c 0,4.743 -3.847,8.587 -8.594,8.587 -4.742,0 -8.589,-3.844 -8.589,-8.587 0,-4.747 3.847,-8.591 8.589,-8.591 4.747,0 8.594,3.844 8.594,8.591 z"
       style="fill:none;stroke:#000000;stroke-width:1.59179;stroke-linecap:butt;stroke-linejoin:miter;stroke-miterlimit:4;stroke-dasharray:none;stroke-opacity:0.989637"
       transform="matrix(1.3333333,0,0,1.3318867,-98.633333,-90.5384)" />
    <path
       id="path17"
       d="m 237.996,501.441 c 0,4.739 -3.848,8.582 -8.594,8.582 -4.742,0 -8.59,-3.843 -8.59,-8.582 0,-4.738 3.848,-8.582 8.59,-8.582 4.746,0 8.594,3.844 8.594,8.582 z"
       style="fill:#000000;fill-opacity:0.976096;fill-rule:nonzero;stroke:none"
       transform="matrix(1.3333333,0,0,1.3333333,-98.633333,-90.5384)" />
    <path
       id="path18"
       d="m 237.996,501.986 c 0,4.743 -3.848,8.591 -8.594,8.591 -4.742,0 -8.59,-3.848 -8.59,-8.591 0,-4.744 3.848,-8.591 8.59,-8.591 4.746,0 8.594,3.847 8.594,8.591 z"
       style="fill:none;stroke:#000000;stroke-width:1.59179;stroke-linecap:butt;stroke-linejoin:miter;stroke-miterlimit:4;stroke-dasharray:none;stroke-opacity:0.989637"
       transform="matrix(1.3333333,0,0,1.3318867,-98.633333,-90.5384)" />
    <path
       id="path19"
       d="m 240.996,597.453 c 0,4.738 -3.844,8.582 -8.59,8.582 -4.742,0 -8.59,-3.844 -8.59,-8.582 0,-4.738 3.848,-8.582 8.59,-8.582 4.746,0 8.59,3.844 8.59,8.582 z"
       style="fill:#000000;fill-opacity:0.976096;fill-rule:nonzero;stroke:none"
       transform="matrix(1.3333333,0,0,1.3333333,-98.633333,-90.5384)" />
    <path
       id="path20"
       d="m 240.996,598.102 c 0,4.743 -3.844,8.591 -8.59,8.591 -4.742,0 -8.59,-3.848 -8.59,-8.591 0,-4.744 3.848,-8.591 8.59,-8.591 4.746,0 8.59,3.847 8.59,8.591 z"
       style="fill:none;stroke:#000000;stroke-width:1.59179;stroke-linecap:butt;stroke-linejoin:miter;stroke-miterlimit:4;stroke-dasharray:none;stroke-opacity:0.989637"
       transform="matrix(1.3333333,0,0,1.3318867,-98.633333,-90.5384)" />
    <path
       id="path21"
       d="m 211.684,119.453 c -0.309,1.422 -0.43,1.68 -2.145,1.68 -0.43,0 -0.855,0 -0.855,0.777 0,0.32 0.183,0.516 0.488,0.516 1.039,0 2.203,-0.129 3.246,-0.129 1.348,0 2.633,0.129 3.918,0.129 0.184,0 0.676,0 0.676,-0.84 0,-0.453 -0.371,-0.453 -0.922,-0.453 -1.957,0 -1.957,-0.258 -1.957,-0.645 0,-0.519 1.652,-7.246 1.898,-8.277 0.489,1.227 1.59,2.648 3.614,2.648 4.531,0 9.429,-6.011 9.429,-12.089 0,-3.879 -2.265,-6.598 -5.207,-6.598 -1.957,0 -3.855,1.488 -5.144,3.105 -0.368,-2.265 -2.082,-3.105 -3.489,-3.105 -1.836,0 -2.57,1.617 -2.879,2.328 -0.734,1.422 -1.222,3.879 -1.222,4.012 0,0.449 0.367,0.449 0.426,0.449 0.429,0 0.429,-0.063 0.675,-0.969 0.672,-2.91 1.469,-4.914 2.879,-4.914 0.672,0 1.223,0.324 1.223,1.875 0,0.969 -0.121,1.422 -0.305,2.133 z m 6.855,-17.914 c 0.246,-1.098 1.348,-2.262 2.023,-2.91 1.407,-1.227 2.508,-1.551 3.184,-1.551 1.531,0 2.512,1.422 2.512,3.879 0,2.457 -1.289,7.18 -2.024,8.731 -1.347,2.91 -3.183,4.269 -4.652,4.269 -2.57,0 -3.062,-3.43 -3.062,-3.687 0,-0.067 0,-0.129 0.121,-0.649 z"
       style="fill:#000000;fill-opacity:1;fill-rule:nonzero;stroke:none"
       transform="matrix(1.3333333,0,0,1.3333333,-98.633333,-90.5384)" />
    <path
       id="path22"
       d="m 238.676,102.227 c 0,-0.778 0,-0.778 -0.797,-0.778 -1.774,1.813 -4.223,1.813 -5.324,1.813 v 1.035 c 0.609,0 2.449,0 3.918,-0.777 v 14.679 c 0,0.969 0,1.356 -2.696,1.356 h -1.039 v 1.035 c 0.489,0 3.856,-0.129 4.836,-0.129 0.856,0 4.285,0.129 4.899,0.129 v -1.035 h -1.039 c -2.758,0 -2.758,-0.387 -2.758,-1.356 z"
       style="fill:#000000;fill-opacity:1;fill-rule:nonzero;stroke:none"
       transform="matrix(1.3333333,0,0,1.3333333,-98.633333,-90.5384)" />
    <path
       id="path23"
       d="m 208.148,285.492 c -0.296,1.422 -0.418,1.68 -2.089,1.68 -0.418,0 -0.836,0 -0.836,0.777 0,0.321 0.179,0.516 0.48,0.516 1.016,0 2.149,-0.129 3.164,-0.129 1.313,0 2.567,0.129 3.821,0.129 0.179,0 0.656,0 0.656,-0.84 0,-0.453 -0.356,-0.453 -0.895,-0.453 -1.91,0 -1.91,-0.258 -1.91,-0.645 0,-0.519 1.613,-7.246 1.852,-8.277 0.476,1.227 1.55,2.648 3.523,2.648 4.418,0 9.195,-6.011 9.195,-12.089 0,-3.879 -2.207,-6.598 -5.074,-6.598 -1.91,0 -3.762,1.488 -5.015,3.105 -0.36,-2.265 -2.032,-3.105 -3.407,-3.105 -1.793,0 -2.508,1.617 -2.804,2.328 -0.719,1.422 -1.196,3.879 -1.196,4.012 0,0.449 0.36,0.449 0.418,0.449 0.418,0 0.418,-0.062 0.657,-0.969 0.656,-2.91 1.433,-4.914 2.808,-4.914 0.656,0 1.192,0.324 1.192,1.875 0,0.969 -0.118,1.422 -0.297,2.133 z m 6.692,-17.914 c 0.238,-1.098 1.312,-2.262 1.969,-2.91 1.375,-1.227 2.449,-1.551 3.105,-1.551 1.492,0 2.449,1.422 2.449,3.879 0,2.457 -1.254,7.18 -1.972,8.731 -1.313,2.91 -3.102,4.269 -4.536,4.269 -2.511,0 -2.988,-3.43 -2.988,-3.687 0,-0.067 0,-0.129 0.121,-0.649 z"
       style="fill:#000000;fill-opacity:1;fill-rule:nonzero;stroke:none"
       transform="matrix(1.3333333,0,0,1.3333333,-98.633333,-90.5384)" />
    <path
       id="path24"
       d="m 239.016,281.391 h -0.899 c -0.058,0.648 -0.355,2.328 -0.715,2.589 -0.179,0.192 -2.211,0.192 -2.629,0.192 h -4.894 c 2.805,-2.649 3.762,-3.492 5.312,-4.848 1.973,-1.683 3.825,-3.492 3.825,-6.207 0,-3.492 -2.809,-5.629 -6.211,-5.629 -3.285,0 -5.555,2.524 -5.555,5.176 0,1.422 1.137,1.613 1.434,1.613 0.597,0 1.375,-0.515 1.375,-1.55 0,-0.516 -0.18,-1.551 -1.555,-1.551 0.836,-2.004 2.629,-2.653 3.883,-2.653 2.687,0 4.058,2.266 4.058,4.594 0,2.52 -1.672,4.461 -2.507,5.496 l -6.387,6.918 c -0.301,0.258 -0.301,0.324 -0.301,1.098 h 10.988 z"
       style="fill:#000000;fill-opacity:1;fill-rule:nonzero;stroke:none"
       transform="matrix(1.3333333,0,0,1.3333333,-98.633333,-90.5384)" />
    <path
       id="path25"
       d="m 215.027,464.336 c -0.293,1.426 -0.414,1.684 -2.074,1.684 -0.414,0 -0.828,0 -0.828,0.773 0,0.324 0.176,0.519 0.473,0.519 1.007,0 2.136,-0.128 3.144,-0.128 1.305,0 2.547,0.128 3.793,0.128 0.18,0 0.653,0 0.653,-0.839 0,-0.453 -0.356,-0.453 -0.891,-0.453 -1.895,0 -1.895,-0.258 -1.895,-0.649 0,-0.516 1.602,-7.242 1.836,-8.277 0.477,1.23 1.543,2.652 3.5,2.652 4.387,0 9.133,-6.016 9.133,-12.094 0,-3.879 -2.195,-6.593 -5.043,-6.593 -1.894,0 -3.734,1.488 -4.98,3.105 -0.356,-2.266 -2.016,-3.105 -3.379,-3.105 -1.781,0 -2.492,1.617 -2.789,2.328 -0.711,1.422 -1.184,3.879 -1.184,4.008 0,0.453 0.356,0.453 0.414,0.453 0.414,0 0.414,-0.063 0.652,-0.969 0.653,-2.91 1.422,-4.914 2.79,-4.914 0.652,0 1.183,0.32 1.183,1.875 0,0.969 -0.117,1.422 -0.297,2.133 z m 6.645,-17.91 c 0.234,-1.102 1.305,-2.262 1.957,-2.91 1.363,-1.231 2.43,-1.551 3.082,-1.551 1.484,0 2.43,1.422 2.43,3.879 0,2.457 -1.243,7.176 -1.957,8.73 -1.301,2.91 -3.082,4.266 -4.504,4.266 -2.492,0 -2.965,-3.426 -2.965,-3.684 0,-0.066 0,-0.129 0.117,-0.648 z"
       style="fill:#000000;fill-opacity:1;fill-rule:nonzero;stroke:none"
       transform="matrix(1.3333333,0,0,1.3333333,-98.633333,-90.5384)" />
    <path
       id="path26"
       d="m 239.57,455.84 c 2.075,0 3.559,1.555 3.559,4.656 0,3.559 -1.957,4.656 -3.441,4.656 -1.067,0 -3.438,-0.324 -4.508,-2.07 1.246,0 1.543,-0.969 1.543,-1.613 0,-0.907 -0.653,-1.555 -1.481,-1.555 -0.715,0 -1.484,0.52 -1.484,1.684 0,2.714 2.726,4.461 5.93,4.461 3.675,0 6.226,-2.715 6.226,-5.563 0,-2.262 -1.66,-4.523 -4.566,-5.172 2.726,-1.097 3.738,-3.234 3.738,-5.043 0,-2.265 -2.375,-3.945 -5.34,-3.945 -2.906,0 -5.156,1.551 -5.156,3.879 0,0.973 0.59,1.488 1.363,1.488 0.828,0 1.363,-0.648 1.363,-1.422 0,-0.84 -0.535,-1.488 -1.363,-1.554 0.949,-1.227 2.727,-1.551 3.735,-1.551 1.187,0 2.847,0.648 2.847,3.105 0,1.227 -0.355,2.586 -1.066,3.426 -0.832,1.102 -1.602,1.164 -2.907,1.293 -0.652,0.066 -0.714,0.066 -0.832,0.066 -0.058,0 -0.296,0.063 -0.296,0.387 0,0.387 0.238,0.387 0.711,0.387 z"
       style="fill:#000000;fill-opacity:1;fill-rule:nonzero;stroke:none"
       transform="matrix(1.3333333,0,0,1.3333333,-98.633333,-90.5384)" />
    <path
       id="path27"
       d="m 216.016,577.012 c -0.293,1.426 -0.411,1.683 -2.051,1.683 -0.41,0 -0.82,0 -0.82,0.774 0,0.324 0.175,0.519 0.468,0.519 0.996,0 2.11,-0.129 3.106,-0.129 1.289,0 2.519,0.129 3.75,0.129 0.176,0 0.644,0 0.644,-0.84 0,-0.453 -0.351,-0.453 -0.879,-0.453 -1.875,0 -1.875,-0.257 -1.875,-0.648 0,-0.516 1.582,-7.242 1.817,-8.277 0.469,1.23 1.523,2.652 3.457,2.652 4.336,0 9.019,-6.012 9.019,-12.09 0,-3.883 -2.168,-6.598 -4.976,-6.598 -1.875,0 -3.692,1.489 -4.922,3.106 -0.352,-2.266 -1.992,-3.106 -3.34,-3.106 -1.758,0 -2.461,1.618 -2.754,2.328 -0.703,1.422 -1.172,3.879 -1.172,4.008 0,0.453 0.352,0.453 0.41,0.453 0.411,0 0.411,-0.062 0.645,-0.968 0.645,-2.91 1.406,-4.914 2.754,-4.914 0.644,0 1.172,0.324 1.172,1.875 0,0.968 -0.117,1.422 -0.293,2.132 z m 6.562,-17.91 c 0.234,-1.098 1.289,-2.262 1.934,-2.911 1.347,-1.226 2.402,-1.55 3.047,-1.55 1.461,0 2.398,1.421 2.398,3.879 0,2.457 -1.227,7.179 -1.93,8.73 -1.289,2.91 -3.047,4.266 -4.453,4.266 -2.461,0 -2.929,-3.426 -2.929,-3.684 0,-0.066 0,-0.129 0.117,-0.648 z"
       style="fill:#000000;fill-opacity:1;fill-rule:nonzero;stroke:none"
       transform="matrix(1.3333333,0,0,1.3333333,-98.633333,-90.5384)" />
    <path
       id="path28"
       d="m 246.938,573.434 v -1.036 h -2.93 v -12.867 c 0,-0.582 0,-0.843 -0.528,-0.843 -0.351,0 -0.468,0 -0.703,0.453 l -8.668,13.257 v 1.036 h 7.731 v 2.328 c 0,1.031 0,1.355 -2.168,1.355 h -0.703 v 1.035 c 1.347,-0.066 2.988,-0.129 3.926,-0.129 0.996,0 2.636,0.063 3.984,0.129 v -1.035 h -0.703 c -2.168,0 -2.168,-0.324 -2.168,-1.355 v -2.328 z m -4.922,-11.579 v 10.543 h -6.911 z"
       style="fill:#000000;fill-opacity:1;fill-rule:nonzero;stroke:none"
       transform="matrix(1.3333333,0,0,1.3333333,-98.633333,-90.5384)" />
  </g>
</svg>
