<?xml version="1.0" encoding="UTF-8" standalone="no"?>
<svg
   inkscape:version="1.3.2 (091e20e, 2023-11-25)"
   sodipodi:docname="interior-angles-triangles.svg"
   viewBox="0 0 867.84003 542.40002"
   height="542.40002"
   width="867.84003"
   xml:space="preserve"
   id="svg1722"
   version="1.1"
   xmlns:inkscape="http://www.inkscape.org/namespaces/inkscape"
   xmlns:sodipodi="http://sodipodi.sourceforge.net/DTD/sodipodi-0.dtd"
   xmlns="http://www.w3.org/2000/svg"
   xmlns:svg="http://www.w3.org/2000/svg"
   xmlns:rdf="http://www.w3.org/1999/02/22-rdf-syntax-ns#"
   xmlns:cc="http://creativecommons.org/ns#"
   xmlns:dc="http://purl.org/dc/elements/1.1/"><metadata
     id="metadata1728"><rdf:RDF><cc:Work
         rdf:about=""><dc:format>image/svg+xml</dc:format><dc:type
           rdf:resource="http://purl.org/dc/dcmitype/StillImage" /></cc:Work></rdf:RDF></metadata><defs
     id="defs1726"><clipPath
       id="clipPath1742"
       clipPathUnits="userSpaceOnUse"><path
         id="path1740"
         d="M 0,0 H 651 V 407 H 0 Z" /></clipPath></defs><sodipodi:namedview
     inkscape:current-layer="g1730"
     inkscape:window-maximized="0"
     inkscape:window-y="38"
     inkscape:window-x="0"
     inkscape:cy="282.37268"
     inkscape:cx="419.22815"
     inkscape:zoom="0.57725131"
     showgrid="false"
     id="namedview1724"
     inkscape:window-height="713"
     inkscape:window-width="1368"
     inkscape:pageshadow="2"
     inkscape:pageopacity="0"
     guidetolerance="10"
     gridtolerance="10"
     objecttolerance="10"
     borderopacity="1"
     bordercolor="#666666"
     pagecolor="#ffffff"
     inkscape:document-rotation="0"
     inkscape:showpageshadow="2"
     inkscape:pagecheckerboard="0"
     inkscape:deskcolor="#d1d1d1" /><g
     transform="matrix(1.3333333,0,0,1.3333333,0,9.5600006e-6)"
     inkscape:label="interior-angles-triangle"
     inkscape:groupmode="layer"
     id="g1730"><g
       id="g1732"
       transform="matrix(0.78241819,0,0,0.75407365,93.546781,37.678564)"><g
         id="g1734"><g
           id="g1736"><g
             clip-path="url(#clipPath1742)"
             id="g1738"><g
               id="g1744"><path
                 id="path1746"
                 style="fill:#ffffff;fill-opacity:1;fill-rule:nonzero;stroke:none"
                 d="M 0,0 H 650.879 V 406.801 H 0 Z" /></g></g></g></g><g
         transform="scale(1,-1)"
         id="g1748"><path
           id="path1750"
           style="fill:none;stroke:#000000;stroke-width:3.68504;stroke-linecap:butt;stroke-linejoin:miter;stroke-miterlimit:4;stroke-dasharray:none;stroke-opacity:1"
           d="m 90,-330 c 151.918,0.453 450,0 450,0 L 285,-45 Z" /></g><g
         transform="scale(1,-1)"
         id="g1752"><path
           id="path1754"
           style="fill:none;stroke:#000000;stroke-width:3.68504;stroke-linecap:butt;stroke-linejoin:miter;stroke-miterlimit:4;stroke-dasharray:none;stroke-opacity:1"
           d="M 90,-45 H 540" /></g><g
         transform="scale(1,-1)"
         id="g1756"><path
           id="path1758"
           style="fill:none;stroke:#000000;stroke-width:3.68504;stroke-linecap:butt;stroke-linejoin:miter;stroke-miterlimit:4;stroke-dasharray:none;stroke-opacity:1"
           d="m 480,-330 c 0,10 0,20 2.5,28 2.5,8 7.5,14 12.5,20" /></g><g
         transform="scale(1,-1)"
         id="g1760"><path
           id="path1762"
           style="fill:none;stroke:#000000;stroke-width:3.68504;stroke-linecap:butt;stroke-linejoin:miter;stroke-miterlimit:4;stroke-dasharray:none;stroke-opacity:1"
           d="m 135,-329.699 c -0.5,9 -1,15 -3.75,22.5 -2.75,7.5 -7.75,13.5 -12.75,19.5" /></g><g
         transform="scale(1,-1)"
         id="g1764"><path
           id="path1766"
           style="fill:none;stroke:#000000;stroke-width:3.68504;stroke-linecap:butt;stroke-linejoin:miter;stroke-miterlimit:4;stroke-dasharray:none;stroke-opacity:1"
           d="m 147,-328.199 c -0.5,10.5 -2.5,19.5 -5.75,28.25 -3.25,8.75 -9.25,15.75 -15.25,22.75" /></g><g
         id="g1768"><path
           id="path1770"
           style="fill:none;stroke:#000000;stroke-width:3.68504;stroke-linecap:butt;stroke-linejoin:miter;stroke-miterlimit:4;stroke-dasharray:none;stroke-opacity:1"
           d="m 340.242,44.34 c -0.5,9 -2.5,13.5 -5.25,21 -2.75,7.5 -7.75,13.5 -12.75,19.5" /></g><g
         id="g1772"><path
           id="path1774"
           style="fill:none;stroke:#000000;stroke-width:3.68504;stroke-linecap:butt;stroke-linejoin:miter;stroke-miterlimit:4;stroke-dasharray:none;stroke-opacity:1"
           d="m 240.645,44.055 c 0.5,9 1,15 3.75,22.5 2.75,7.5 7.75,13.5 12.75,19.5" /></g><g
         id="g1776"><path
           id="path1778"
           style="fill:none;stroke:#000000;stroke-width:3.68504;stroke-linecap:butt;stroke-linejoin:miter;stroke-miterlimit:4;stroke-dasharray:none;stroke-opacity:1"
           d="m 228.645,45.555 c 0.5,10.5 2.5,19.5 5.75,28.25 3.25,8.75 9.25,15.75 15.25,22.75" /></g></g></g></svg>
