<?xml version="1.0" encoding="UTF-8" standalone="no"?>
<!-- Created with Inkscape (http://www.inkscape.org/) -->

<svg
   version="1.1"
   id="svg1"
   width="524.3775"
   height="365.82559"
   viewBox="0 0 524.3775 365.82559"
   sodipodi:docname="circle-packing.svg"
   inkscape:version="1.3.2 (091e20e, 2023-11-25)"
   xmlns:inkscape="http://www.inkscape.org/namespaces/inkscape"
   xmlns:sodipodi="http://sodipodi.sourceforge.net/DTD/sodipodi-0.dtd"
   xmlns="http://www.w3.org/2000/svg"
   xmlns:svg="http://www.w3.org/2000/svg">
  <defs
     id="defs1">
    <clipPath
       clipPathUnits="userSpaceOnUse"
       id="clipPath1">
      <path
         d="M 0,0 H 529.87947 V 517.01333 H 0 Z"
         id="path1" />
    </clipPath>
  </defs>
  <sodipodi:namedview
     id="namedview1"
     pagecolor="#ffffff"
     bordercolor="#666666"
     borderopacity="1.0"
     inkscape:showpageshadow="2"
     inkscape:pageopacity="0.0"
     inkscape:pagecheckerboard="0"
     inkscape:deskcolor="#d1d1d1"
     inkscape:zoom="1.6212631"
     inkscape:cx="474.62993"
     inkscape:cy="255.35646"
     inkscape:window-width="1200"
     inkscape:window-height="681"
     inkscape:window-x="0"
     inkscape:window-y="38"
     inkscape:window-maximized="0"
     inkscape:current-layer="g1">
    <inkscape:page
       x="0"
       y="0"
       inkscape:label="1"
       id="page1"
       width="524.3775"
       height="365.82559"
       margin="0"
       bleed="0" />
  </sodipodi:namedview>
  <g
     id="g1"
     inkscape:groupmode="layer"
     inkscape:label="1"
     clip-path="url(#clipPath1)">
    <path
       id="path2"
       d="m 281.969,12.605 c 0,8.383 -7.313,15.18 -16.328,15.18 -9.02,0 -16.329,-6.797 -16.329,-15.18 0,-8.382 7.309,-15.179 16.329,-15.179 9.015,0 16.328,6.797 16.328,15.179 z"
       style="fill:none;stroke:#040001;stroke-width:3.35146;stroke-linecap:butt;stroke-linejoin:miter;stroke-miterlimit:4;stroke-dasharray:none;stroke-opacity:1"
       transform="matrix(1.3333333,0,0,1.3333333,-2.2623493,-3.1713147)" />
    <path
       id="path3"
       d="m 132.859,9.395 c 0,8.382 -7.308,15.179 -16.328,15.179 -9.015,0 -16.328,-6.797 -16.328,-15.179 0,-8.383 7.313,-15.18 16.328,-15.18 9.02,0 16.328,6.797 16.328,15.18 z"
       style="fill:none;stroke:#040001;stroke-width:3.35146;stroke-linecap:butt;stroke-linejoin:miter;stroke-miterlimit:4;stroke-dasharray:none;stroke-opacity:1"
       transform="matrix(1.3333333,0,0,1.3333333,-2.2623493,-3.1713147)" />
    <path
       id="path4"
       d="m 354.621,184.305 c 0,8.383 -7.312,15.179 -16.328,15.179 -9.02,0 -16.328,-6.796 -16.328,-15.179 0,-8.383 7.308,-15.18 16.328,-15.18 9.016,0 16.328,6.797 16.328,15.18 z"
       style="fill:none;stroke:#040001;stroke-width:3.35146;stroke-linecap:butt;stroke-linejoin:miter;stroke-miterlimit:4;stroke-dasharray:none;stroke-opacity:1"
       transform="matrix(1.3333333,0,0,1.3333333,-2.2623493,-3.1713147)" />
    <path
       id="path5"
       d="m 244.359,279.32 c 0,8.383 -7.308,15.18 -16.328,15.18 -9.015,0 -16.328,-6.797 -16.328,-15.18 0,-8.382 7.313,-15.179 16.328,-15.179 9.02,0 16.328,6.797 16.328,15.179 z"
       style="fill:none;stroke:#040001;stroke-width:3.35146;stroke-linecap:butt;stroke-linejoin:miter;stroke-miterlimit:4;stroke-dasharray:none;stroke-opacity:1"
       transform="matrix(1.3333333,0,0,1.3333333,-2.2623493,-3.1713147)" />
    <path
       id="path6"
       d="m 45.875,33.961 c 0,8.383 -7.313,15.176 -16.328,15.176 -9.02,0 -16.328,-6.793 -16.328,-15.176 0,-8.387 7.308,-15.18 16.328,-15.18 9.015,0 16.328,6.793 16.328,15.18 z"
       style="fill:none;stroke:#040001;stroke-width:3.35146;stroke-linecap:butt;stroke-linejoin:miter;stroke-miterlimit:4;stroke-dasharray:none;stroke-opacity:1"
       transform="matrix(1.3333333,0,0,1.3333333,-2.2623493,-3.1713147)" />
    <path
       id="path7"
       d="m 22.883,168.191 c 0,8.383 -7.313,15.18 -16.328,15.18 -9.02,0 -16.328,-6.797 -16.328,-15.18 0,-8.382 7.308,-15.179 16.328,-15.179 9.015,0 16.328,6.797 16.328,15.179 z"
       style="fill:none;stroke:#040001;stroke-width:3.35146;stroke-linecap:butt;stroke-linejoin:miter;stroke-miterlimit:4;stroke-dasharray:none;stroke-opacity:1"
       transform="matrix(1.3333333,0,0,1.3333333,-2.2623493,-3.1713147)" />
    <path
       id="path8"
       d="m 155.102,192.824 c 0,4.348 -3.79,7.871 -8.465,7.871 -4.68,0 -8.469,-3.523 -8.469,-7.871 0,-4.347 3.789,-7.871 8.469,-7.871 4.675,0 8.465,3.524 8.465,7.871 z"
       style="fill:none;stroke:#040001;stroke-width:3.78156;stroke-linecap:butt;stroke-linejoin:miter;stroke-miterlimit:4;stroke-dasharray:none;stroke-opacity:1"
       transform="matrix(1.3333333,0,0,1.3333333,-2.2623493,-3.1713147)" />
    <path
       id="path8-9"
       d="m 294.0997,274.01571 c 0,5.79733 -5.05333,10.49466 -11.28666,10.49466 -6.24,0 -11.292,-4.69733 -11.292,-10.49466 0,-5.796 5.052,-10.49467 11.292,-10.49467 6.23333,0 11.28666,4.69867 11.28666,10.49467 z"
       style="fill:none;stroke:#040001;stroke-width:5.04208;stroke-linecap:butt;stroke-linejoin:miter;stroke-miterlimit:4;stroke-dasharray:none;stroke-opacity:1" />
    <path
       id="path9"
       d="m 347.34,137.777 c 0,20.828 -18.164,37.715 -40.57,37.715 -22.411,0 -40.575,-16.887 -40.575,-37.715 0,-20.832 18.164,-37.718 40.575,-37.718 22.406,0 40.57,16.886 40.57,37.718 z"
       style="fill:none;stroke:#040001;stroke-width:3.35146;stroke-linecap:butt;stroke-linejoin:miter;stroke-miterlimit:4;stroke-dasharray:none;stroke-opacity:1"
       transform="matrix(1.3333333,0,0,1.3333333,-2.2623493,-3.1713147)" />
    <path
       id="path10"
       d="m 316.691,65.289 c 0,20.832 -18.164,37.715 -40.57,37.715 -22.406,0 -40.57,-16.883 -40.57,-37.715 0,-20.828 18.164,-37.715 40.57,-37.715 22.406,0 40.57,16.887 40.57,37.715 z"
       style="fill:none;stroke:#040001;stroke-width:3.35146;stroke-linecap:butt;stroke-linejoin:miter;stroke-miterlimit:4;stroke-dasharray:none;stroke-opacity:1"
       transform="matrix(1.3333333,0,0,1.3333333,-2.2623493,-3.1713147)" />
    <path
       id="path11"
       d="m 247.965,19.645 c 0,29.386 -25.625,53.207 -57.235,53.207 -31.613,0 -57.238,-23.821 -57.238,-53.207 0,-29.387 25.625,-53.211 57.238,-53.211 31.61,0 57.235,23.824 57.235,53.211 z"
       style="fill:none;stroke:#040001;stroke-width:3.35146;stroke-linecap:butt;stroke-linejoin:miter;stroke-miterlimit:4;stroke-dasharray:none;stroke-opacity:1"
       transform="matrix(1.3333333,0,0,1.3333333,-2.2623493,-3.1713147)" />
    <path
       id="path12"
       d="m 334.621,226.738 c 0,29.387 -25.625,53.211 -57.234,53.211 -31.614,0 -57.239,-23.824 -57.239,-53.211 0,-29.383 25.625,-53.207 57.239,-53.207 31.609,0 57.234,23.824 57.234,53.207 z"
       style="fill:none;stroke:#040001;stroke-width:3.35146;stroke-linecap:butt;stroke-linejoin:miter;stroke-miterlimit:4;stroke-dasharray:none;stroke-opacity:1"
       transform="matrix(1.3333333,0,0,1.3333333,-2.2623493,-3.1713147)" />
    <path
       id="path13"
       d="m 146.086,73.699 c 0,29.387 -25.625,53.207 -57.238,53.207 -31.61,0 -57.235,-23.82 -57.235,-53.207 0,-29.387 25.625,-53.207 57.235,-53.207 31.613,0 57.238,23.82 57.238,53.207 z"
       style="fill:none;stroke:#040001;stroke-width:3.35146;stroke-linecap:butt;stroke-linejoin:miter;stroke-miterlimit:4;stroke-dasharray:none;stroke-opacity:1"
       transform="matrix(1.3333333,0,0,1.3333333,-2.2623493,-3.1713147)" />
    <path
       id="path14"
       d="m 403.484,315.27 c 0,29.386 -25.625,53.21 -57.234,53.21 -31.613,0 -57.238,-23.824 -57.238,-53.21 0,-29.387 25.625,-53.208 57.238,-53.208 31.609,0 57.234,23.821 57.234,53.208 z"
       style="fill:none;stroke:#040001;stroke-width:3.35146;stroke-linecap:butt;stroke-linejoin:miter;stroke-miterlimit:4;stroke-dasharray:none;stroke-opacity:1"
       transform="matrix(1.3333333,0,0,1.3333333,-2.2623493,-3.1713147)" />
    <path
       id="path15"
       d="m 65.152,266.07 c 0,29.387 -25.625,53.207 -57.238,53.207 -31.609,0 -57.234,-23.82 -57.234,-53.207 0,-29.386 25.625,-53.211 57.234,-53.211 31.613,0 57.238,23.825 57.238,53.211 z"
       style="fill:none;stroke:#040001;stroke-width:3.35146;stroke-linecap:butt;stroke-linejoin:miter;stroke-miterlimit:4;stroke-dasharray:none;stroke-opacity:1"
       transform="matrix(1.3333333,0,0,1.3333333,-2.2623493,-3.1713147)" />
    <path
       id="path16"
       d="m 136.887,181.426 c 0,29.386 -25.625,53.207 -57.235,53.207 -31.613,0 -57.238,-23.821 -57.238,-53.207 0,-29.387 25.625,-53.207 57.238,-53.207 31.61,0 57.235,23.82 57.235,53.207 z"
       style="fill:none;stroke:#040001;stroke-width:3.35146;stroke-linecap:butt;stroke-linejoin:miter;stroke-miterlimit:4;stroke-dasharray:none;stroke-opacity:1"
       transform="matrix(1.3333333,0,0,1.3333333,-2.2623493,-3.1713147)" />
    <path
       id="path17"
       d="m 433.027,70.59 c 0,29.387 -25.625,53.211 -57.238,53.211 -31.609,0 -57.234,-23.824 -57.234,-53.211 0,-29.387 25.625,-53.207 57.234,-53.207 31.613,0 57.238,23.82 57.238,53.207 z"
       style="fill:none;stroke:#040001;stroke-width:3.35146;stroke-linecap:butt;stroke-linejoin:miter;stroke-miterlimit:4;stroke-dasharray:none;stroke-opacity:1"
       transform="matrix(1.3333333,0,0,1.3333333,-2.2623493,-3.1713147)" />
    <path
       id="path18"
       d="m 109.625,-23.281 c 0,25.98 -22.656,47.043 -50.602,47.043 -27.949,0 -50.605,-21.063 -50.605,-47.043 0,-25.981 22.656,-47.043 50.605,-47.043 27.946,0 50.602,21.062 50.602,47.043 z"
       style="fill:none;stroke:#040001;stroke-width:3.35146;stroke-linecap:butt;stroke-linejoin:miter;stroke-miterlimit:4;stroke-dasharray:none;stroke-opacity:1"
       transform="matrix(1.3333333,0,0,1.3333333,-2.2623493,-3.1713147)" />
    <path
       id="path19"
       d="m 264.23,136.363 c 0,34.66 -30.222,62.758 -67.507,62.758 -37.285,0 -67.508,-28.098 -67.508,-62.758 0,-34.66 30.223,-62.758 67.508,-62.758 37.285,0 67.507,28.098 67.507,62.758 z"
       style="fill:none;stroke:#040001;stroke-width:3.87879;stroke-linecap:butt;stroke-linejoin:miter;stroke-miterlimit:4;stroke-dasharray:none;stroke-opacity:1"
       transform="matrix(1.3333333,0,0,1.3333333,-2.2623493,-3.1713147)" />
    <path
       id="path20"
       d="m 349.578,6.574 c 0,16.664 -14.531,30.176 -32.457,30.176 -17.926,0 -32.457,-13.512 -32.457,-30.176 0,-16.664 14.531,-30.172 32.457,-30.172 17.926,0 32.457,13.508 32.457,30.172 z"
       style="fill:none;stroke:#040001;stroke-width:3.35146;stroke-linecap:butt;stroke-linejoin:miter;stroke-miterlimit:4;stroke-dasharray:none;stroke-opacity:1"
       transform="matrix(1.3333333,0,0,1.3333333,-2.2623493,-3.1713147)" />
    <path
       id="path21"
       d="m 412.918,156.402 c 0,16.664 -14.531,30.176 -32.457,30.176 -17.926,0 -32.457,-13.512 -32.457,-30.176 0,-16.664 14.531,-30.172 32.457,-30.172 17.926,0 32.457,13.508 32.457,30.172 z"
       style="fill:none;stroke:#040001;stroke-width:3.35146;stroke-linecap:butt;stroke-linejoin:miter;stroke-miterlimit:4;stroke-dasharray:none;stroke-opacity:1"
       transform="matrix(1.3333333,0,0,1.3333333,-2.2623493,-3.1713147)" />
    <path
       id="path22"
       d="m 413.82,-13.461 c 0,16.664 -14.531,30.172 -32.457,30.172 -17.925,0 -32.457,-13.508 -32.457,-30.172 0,-16.664 14.532,-30.172 32.457,-30.172 17.926,0 32.457,13.508 32.457,30.172 z"
       style="fill:none;stroke:#040001;stroke-width:3.35146;stroke-linecap:butt;stroke-linejoin:miter;stroke-miterlimit:4;stroke-dasharray:none;stroke-opacity:1"
       transform="matrix(1.3333333,0,0,1.3333333,-2.2623493,-3.1713147)" />
    <path
       id="path23"
       d="m 219.406,246.195 c 0,26.735 -23.312,48.407 -52.07,48.407 -28.754,0 -52.066,-21.672 -52.066,-48.407 0,-26.734 23.312,-48.406 52.066,-48.406 28.758,0 52.07,21.672 52.07,48.406 z"
       style="fill:none;stroke:#040001;stroke-width:3.48795;stroke-linecap:butt;stroke-linejoin:miter;stroke-miterlimit:4;stroke-dasharray:none;stroke-opacity:1"
       transform="matrix(1.3333333,0,0,1.3333333,-2.2623493,-3.1713147)" />
    <path
       id="path24"
       d="m 45.953,122.359 c 0,16.664 -14.531,30.172 -32.457,30.172 -17.926,0 -32.457,-13.508 -32.457,-30.172 0,-16.664 14.531,-30.171 32.457,-30.171 17.926,0 32.457,13.507 32.457,30.171 z"
       style="fill:none;stroke:#040001;stroke-width:3.35146;stroke-linecap:butt;stroke-linejoin:miter;stroke-miterlimit:4;stroke-dasharray:none;stroke-opacity:1"
       transform="matrix(1.3333333,0,0,1.3333333,-2.2623493,-3.1713147)" />
    <path
       id="path25"
       d="m 420.02,227.227 c 0,21.566 -18.805,39.05 -42.008,39.05 -23.2,0 -42.004,-17.484 -42.004,-39.05 0,-21.571 18.804,-39.051 42.004,-39.051 23.203,0 42.008,17.48 42.008,39.051 z"
       style="fill:none;stroke:#040001;stroke-width:2.78276;stroke-linecap:butt;stroke-linejoin:miter;stroke-miterlimit:4;stroke-dasharray:none;stroke-opacity:1"
       transform="matrix(1.3333333,0,0,1.3333333,-2.2623493,-3.1713147)" />
    <path
       id="path26"
       d="m 16.387,15.281 c 0,17.254 -15.047,31.239 -33.606,31.239 -18.558,0 -33.605,-13.985 -33.605,-31.239 0,-17.254 15.047,-31.242 33.605,-31.242 18.559,0 33.606,13.988 33.606,31.242 z"
       style="fill:none;stroke:#040001;stroke-width:3.35146;stroke-linecap:butt;stroke-linejoin:miter;stroke-miterlimit:4;stroke-dasharray:none;stroke-opacity:1"
       transform="matrix(1.3333333,0,0,1.3333333,-2.2623493,-3.1713147)" />
    <path
       id="path27"
       d="m 114.465,259.355 c 0,12.575 -10.965,22.766 -24.492,22.766 -13.528,0 -24.493,-10.191 -24.493,-22.766 0,-12.574 10.965,-22.769 24.493,-22.769 13.527,0 24.492,10.195 24.492,22.769 z"
       style="fill:none;stroke:#040001;stroke-width:3.35146;stroke-linecap:butt;stroke-linejoin:miter;stroke-miterlimit:4;stroke-dasharray:none;stroke-opacity:1"
       transform="matrix(1.3333333,0,0,1.3333333,-2.2623493,-3.1713147)" />
    <path
       id="path28"
       d="m 30.805,67.434 c 0,12.574 -10.969,22.769 -24.493,22.769 -13.527,0 -24.492,-10.195 -24.492,-22.769 0,-12.575 10.965,-22.77 24.492,-22.77 13.524,0 24.493,10.195 24.493,22.77 z"
       style="fill:none;stroke:#040001;stroke-width:3.35146;stroke-linecap:butt;stroke-linejoin:miter;stroke-miterlimit:4;stroke-dasharray:none;stroke-opacity:1"
       transform="matrix(1.3333333,0,0,1.3333333,-2.2623493,-3.1713147)" />
    <path
       id="path29"
       d="m 22.988,198.055 c 0,7.054 -6.152,12.773 -13.742,12.773 -7.586,0 -13.738,-5.719 -13.738,-12.773 0,-7.055 6.152,-12.774 13.738,-12.774 7.59,0 13.742,5.719 13.742,12.774 z"
       style="fill:none;stroke:#040001;stroke-width:3.35146;stroke-linecap:butt;stroke-linejoin:miter;stroke-miterlimit:4;stroke-dasharray:none;stroke-opacity:1"
       transform="matrix(1.3333333,0,0,1.3333333,-2.2623493,-3.1713147)" />
    <path
       style="fill:none;stroke:#000000;stroke-width:2;stroke-linecap:butt;stroke-linejoin:miter;stroke-dasharray:none;stroke-opacity:1"
       d="M 218.72072,330.29038 260.01137,171.84866"
       id="path31"
       sodipodi:nodetypes="cc" />
    <path
       style="fill:none;stroke:#000000;stroke-width:2;stroke-linecap:butt;stroke-linejoin:miter;stroke-dasharray:none;stroke-opacity:1"
       d="M 219.89364,330.39813 114.97162,344.31853 12.2972,339.94013 9.0116276,261.19743 5.3488235,220.17422 17.348816,157.8836 7.0813782,85.883657 36.930198,41.220907 78.430156,-3.3139503 155.15102,11.069769 l 96.7092,13.232533 97.20921,-8.837201 71.82552,-6.651168 89.45339,-34.220885 -13.70928,114.906877 5.97673,115.964995 4.07406,95.792 L 458.42979,420.87168 365.97148,293.55315 447.89161,243.26731 407.01955,178.51326 364.53453,82.848757 251.86022,24.151143 259.59277,171.22076 116.38365,96.069737 17.825561,157.70918 94.999908,241.16576 193.10447,252.96487 259.59277,172.32541 365.1857,83.023184 420.84842,9.1627869 496.6856,89.395301 407.1273,179.04132 366.03975,293.13284 258.69742,172.03577 l 148.91846,7.18157 94.54643,26.27085 -54.11442,37.53483 58.79824,58.47818 -140.57392,-7.87187 -65.80739,76.42845 -80.63945,-39.7674 -26.73615,-77.05078"
       id="path32"
       sodipodi:nodetypes="ccccccccccccccccccccccccccccccccccccccccccc" />
    <path
       style="fill:none;stroke:#000000;stroke-width:2;stroke-linecap:butt;stroke-linejoin:miter;stroke-dasharray:none;stroke-opacity:1"
       d="M -212.09282,154.65101 12.151151,340.23223 94.999908,243.02302 117.51157,95.720884 252.51139,23.523238 l 1.55813,-65.499941"
       id="path33"
       sodipodi:nodetypes="cccccc" />
    <path
       style="fill:none;stroke:#000000;stroke-width:2;stroke-linecap:butt;stroke-linejoin:miter;stroke-dasharray:none;stroke-opacity:1"
       d="m -48.604604,80.639457 36.918808,-66.685948 48.488103,27.744144 80.081353,54.546511 37.79062,-85.953459 15.44183,-53.372058"
       id="path34"
       sodipodi:nodetypes="cccccc" />
    <path
       style="fill:none;stroke:#000000;stroke-width:2;stroke-linecap:butt;stroke-linejoin:miter;stroke-dasharray:none;stroke-opacity:1"
       d="M 502.31347,204.88355 589.81015,172.18553 624.2724,49.048652 496.6856,90.023206 365.05782,83.348769 349.06943,14.360451 v -49.709254"
       id="path35"
       sodipodi:nodetypes="ccccccc" />
    <path
       style="fill:none;stroke:#000000;stroke-width:2;stroke-linecap:butt;stroke-linejoin:miter;stroke-dasharray:none;stroke-opacity:1"
       d="M 12.211651,340.40489 102.59043,443.00786 170.11611,440.75539 116.23255,344.56282 94.999908,239.70907 258.69742,173.22076"
       id="path36"
       sodipodi:nodetypes="cccccc" />
    <path
       style="fill:none;stroke:#000000;stroke-width:2;stroke-linecap:butt;stroke-linejoin:miter;stroke-dasharray:none;stroke-opacity:1"
       d="M -51.918554,258.48812 9.7906916,262.77883 95.933657,241.19244 5.6278742,220.95329 -80.639457,213.19747 -81.744107,125.93011 -57.441805,57.441805 6.6279005,85.406911 118.01158,96.069737"
       id="path37"
       sodipodi:nodetypes="ccccccccc" />
    <path
       style="fill:none;stroke:#000000;stroke-width:2;stroke-linecap:butt;stroke-linejoin:miter;stroke-dasharray:none;stroke-opacity:1"
       d="m -201.04632,149.12776 218.569562,9.05816"
       id="path38"
       sodipodi:nodetypes="cc" />
    <path
       style="fill:none;stroke:#000000;stroke-width:2;stroke-linecap:butt;stroke-linejoin:miter;stroke-dasharray:none;stroke-opacity:1"
       d="M 220.09845,418.39835 219.38532,329.95808 96.036291,240.67718 M 251.7713,24.222558 399.05978,-107.36963 169.71202,-123.2661 251.75743,23.72002 m 250.00999,182.34788 116.83601,53.23474 0.87704,-78.7611 -123.34903,-89.280897 m 155.73501,-216.454623 147.28848,-131.59219 -229.34776,-15.89647 82.04541,146.98613"
       id="path39"
       sodipodi:nodetypes="ccccccccccccccc" />
    <path
       style="fill:none;stroke:#000000;stroke-width:2;stroke-linecap:butt;stroke-linejoin:miter;stroke-dasharray:none;stroke-opacity:1"
       d="M 116.80263,95.349085 76.279268,-12.395381"
       id="path40"
       sodipodi:nodetypes="cc" />
    <path
       style="fill:none;stroke:#000000;stroke-width:2;stroke-linecap:butt;stroke-linejoin:miter;stroke-dasharray:none;stroke-opacity:1"
       d="m 420.48947,9.0581631 -72.46531,-45.2908151 98.68631,-18.116327 -26.221,62.9303967"
       id="path41"
       sodipodi:nodetypes="cccc" />
    <path
       style="fill:none;stroke:#000000;stroke-width:2;stroke-linecap:butt;stroke-linejoin:miter;stroke-dasharray:none;stroke-opacity:1"
       d="m 282.2333,274.60536 84.86068,19.54657 M 219.06452,329.43109 366.8556,294.15193 m -449.174631,37.23006 61.251585,75.29027 33.615328,-66.22642 M -145.48781,386.20772 12.785989,339.96935"
       id="path42"
       sodipodi:nodetypes="ccccccccc" />
    <path
       style="fill:none;stroke:#000000;stroke-width:2;stroke-linecap:butt;stroke-linejoin:miter;stroke-dasharray:none;stroke-opacity:1"
       d="m 259.82626,172.1051 22.40703,102.02351 -61.97691,55.77923 m 285.53616,-27.98735 136.77875,114.524 8.80818,-159.77747 -145.63383,44.96429"
       id="path43"
       sodipodi:nodetypes="ccccccc" />
    <path
       style="fill:none;stroke:#000000;stroke-width:2;stroke-linecap:butt;stroke-linejoin:miter;stroke-dasharray:none;stroke-opacity:1"
       d="m 255.64849,523.53124 -107.44626,-108.45273 71.53423,-85.469"
       id="path39-8"
       sodipodi:nodetypes="ccc" />
    <path
       style="fill:none;stroke:#000000;stroke-width:2;stroke-linecap:butt;stroke-linejoin:miter;stroke-dasharray:none;stroke-opacity:1"
       d="m 366.79683,294.25024 -20.70895,176.2788 -40.41892,102.48821"
       id="path43-6"
       sodipodi:nodetypes="ccc" />
  </g>
</svg>
