<?xml version="1.0" encoding="UTF-8" standalone="no"?>
<svg
   xmlns:ns1="http://www.iki.fi/pav/software/textext/"
   xmlns:dc="http://purl.org/dc/elements/1.1/"
   xmlns:cc="http://creativecommons.org/ns#"
   xmlns:rdf="http://www.w3.org/1999/02/22-rdf-syntax-ns#"
   xmlns:svg="http://www.w3.org/2000/svg"
   xmlns="http://www.w3.org/2000/svg"
   xmlns:sodipodi="http://sodipodi.sourceforge.net/DTD/sodipodi-0.dtd"
   xmlns:inkscape="http://www.inkscape.org/namespaces/inkscape"
   version="1.1"
   id="svg833"
   xml:space="preserve"
   width="867.84003"
   height="542.40002"
   viewBox="0 0 867.84003 542.40002"
   sodipodi:docname="lune.svg"
   inkscape:version="1.0 (4035a4f, 2020-05-01)"><metadata
     id="metadata839"><rdf:RDF><cc:Work
         rdf:about=""><dc:format>image/svg+xml</dc:format><dc:type
           rdf:resource="http://purl.org/dc/dcmitype/StillImage" /><dc:title /></cc:Work></rdf:RDF></metadata><defs
     id="defs837"><inkscape:path-effect
       only_selected="false"
       apply_with_weight="true"
       apply_no_weight="true"
       helper_size="0"
       steps="2"
       weight="33.333333"
       lpeversion="1"
       is_visible="true"
       id="path-effect855"
       effect="bspline" /><inkscape:path-effect
       effect="bspline"
       id="path-effect954"
       is_visible="true"
       lpeversion="1"
       weight="33.333333"
       steps="2"
       helper_size="0"
       apply_no_weight="true"
       apply_with_weight="true"
       only_selected="false" /><inkscape:path-effect
       effect="bspline"
       id="path-effect883"
       is_visible="true"
       lpeversion="1"
       weight="33.333333"
       steps="2"
       helper_size="0"
       apply_no_weight="true"
       apply_with_weight="true"
       only_selected="false" /><inkscape:path-effect
       effect="bspline"
       id="path-effect879"
       is_visible="true"
       lpeversion="1"
       weight="33.333333"
       steps="2"
       helper_size="0"
       apply_no_weight="true"
       apply_with_weight="true"
       only_selected="false" /><inkscape:path-effect
       effect="bspline"
       id="path-effect875"
       is_visible="true"
       lpeversion="1"
       weight="33.333333"
       steps="2"
       helper_size="0"
       apply_no_weight="true"
       apply_with_weight="true"
       only_selected="false" /><inkscape:path-effect
       effect="bspline"
       id="path-effect968"
       is_visible="true"
       lpeversion="1"
       weight="33.333333"
       steps="2"
       helper_size="0"
       apply_no_weight="true"
       apply_with_weight="true"
       only_selected="false" /><inkscape:path-effect
       only_selected="false"
       apply_with_weight="true"
       apply_no_weight="true"
       helper_size="0"
       steps="2"
       weight="33.333333"
       lpeversion="1"
       is_visible="true"
       id="path-effect913"
       effect="bspline" /><clipPath
       id="clipPath853"
       clipPathUnits="userSpaceOnUse"><path
         id="path851"
         d="M 0,0 H 651 V 407 H 0 Z" /></clipPath></defs><sodipodi:namedview
     inkscape:document-rotation="0"
     inkscape:current-layer="g841"
     inkscape:window-maximized="0"
     inkscape:window-y="25"
     inkscape:window-x="0"
     inkscape:cy="266.67065"
     inkscape:cx="451.60217"
     inkscape:zoom="1"
     showgrid="false"
     id="namedview835"
     inkscape:window-height="741"
     inkscape:window-width="1438"
     inkscape:pageshadow="2"
     inkscape:pageopacity="0"
     guidetolerance="10"
     gridtolerance="10"
     objecttolerance="10"
     borderopacity="1"
     bordercolor="#666666"
     pagecolor="#ffffff" /><g
     transform="matrix(1.3333333,0,0,1.3333333,0,9.5600006e-6)"
     inkscape:label="interior-angles-triangle"
     inkscape:groupmode="layer"
     id="g841"><ellipse
       style="opacity:0.67;fill:none;fill-opacity:0.419355;stroke:#000000;stroke-width:2.93669;stroke-miterlimit:4;stroke-dasharray:none;stroke-dashoffset:0;stroke-opacity:1"
       id="path871"
       cx="337.74405"
       cy="208.68037"
       rx="186.03123"
       ry="186.03305" /><path
       style="opacity:0.67;fill:none;fill-opacity:0.419355;stroke:#000000;stroke-width:2.77403;stroke-miterlimit:4;stroke-dasharray:none;stroke-dashoffset:0;stroke-opacity:1"
       d="m -374.72828,26.293228 c 31.92497,-10e-6 59.47535,81.800742 59.47535,183.655742"
       transform="matrix(-1,0,-0.22115925,0.97523771,0,0)"
       id="path1031"
       sodipodi:nodetypes="cc" /><path
       style="opacity:0.67;fill:none;fill-opacity:0.419355;stroke:#000000;stroke-width:2.77403;stroke-miterlimit:4;stroke-dasharray:2.77403, 2.77403;stroke-dashoffset:0;stroke-opacity:1"
       d="m -373.97828,395.14281 c -31.92496,-10e-6 -56.88518,-83.33885 -56.88518,-185.19384 0,-101.85499 25.8803,-184.424778 57.80526,-184.424785"
       transform="matrix(-1,0,-0.22115925,0.97523771,0,0)"
       id="path1029"
       sodipodi:nodetypes="csc" /><path
       style="opacity:0.67;fill:none;fill-opacity:0.419355;stroke:#000000;stroke-width:2.77403;stroke-miterlimit:4;stroke-dasharray:none;stroke-dashoffset:0;stroke-opacity:1"
       d="m -315.25293,209.94897 c 0,101.85501 -25.8803,184.4248 -57.80527,184.42479"
       transform="matrix(-1,0,-0.22115925,0.97523771,0,0)"
       id="path885-2-3-3" /><path
       style="opacity:0.67;fill:none;fill-opacity:0.419355;stroke:#000000;stroke-width:2.77403;stroke-miterlimit:4;stroke-dasharray:2.77403, 2.77403;stroke-dashoffset:0;stroke-opacity:1"
       d="m -276.95764,-400.526 c 31.92496,1e-5 57.80526,82.5698 57.80526,184.42479"
       transform="matrix(-1,0,-0.22115925,-0.97523771,0,0)"
       id="path1024"
       sodipodi:nodetypes="cc" /><path
       style="opacity:0.67;fill:none;fill-opacity:0.419355;stroke:#000000;stroke-width:2.77403;stroke-miterlimit:4;stroke-dasharray:none;stroke-dashoffset:0;stroke-opacity:1"
       d="m -276.95764,-31.676422 c -31.92497,10e-6 -57.80527,-82.569778 -57.80527,-184.424788 0,-101.85501 25.8803,-184.4248 57.80527,-184.42479"
       transform="matrix(-1,0,-0.22115925,-0.97523771,0,0)"
       id="path1022"
       sodipodi:nodetypes="csc" /><path
       style="opacity:0.67;fill:none;fill-opacity:0.419355;stroke:#000000;stroke-width:2.77403;stroke-miterlimit:4;stroke-dasharray:2.77403, 2.77403;stroke-dashoffset:0;stroke-opacity:1"
       d="m -219.15238,-216.10121 c 0,101.85499 -25.8803,184.424781 -57.80526,184.424788"
       transform="matrix(-1,0,-0.22115925,-0.97523771,0,0)"
       id="path885-2-3-3-9" /><path
       sodipodi:nodetypes="cccsczc"
       id="path857"
       d="m 323.25001,62.999995 c -9.24956,18.749226 -41.89048,70.493655 -56.30485,147.750055 -27.12836,160.21574 8.57714,173.1896 18.89364,175.35811 13.42114,5.5156 32.53983,10.01625 43.41121,9.89185 55.43576,-0.63439 55.5,-20.25 55.5,-20.25 0,0 25.5,-67.25001 -4.5,-178.12501 -30,-110.875005 -57,-134.625005 -57,-134.625005 z"
       style="fill:#00007c;fill-opacity:0.158358;stroke:#000000;stroke-width:0.75px;stroke-linecap:butt;stroke-linejoin:miter;stroke-opacity:1" /><g
       transform="matrix(4.0010281,0,0,3.4386222,313.28676,91.557813)"
       ns1:version="1.0.0"
       ns1:texconverter="pdflatex"
       ns1:pdfconverter="inkscape"
       ns1:text="$\\alpha$"
       ns1:preamble="/Users/bm/Library/Application Support/org.inkscape.Inkscape/config/inkscape/extensions/textext/default_packages.tex"
       ns1:scale="2.2969140018466327"
       ns1:alignment="middle center"
       ns1:inkscapeversion="1.0"
       ns1:jacobian_sqrt="3.06254"
       id="g890"><defs
   id="id-36abf21d-b36a-4cce-9b82-1b2683b4b87c">
    <g
   id="id-3d76f7d8-30b9-4592-a862-398c27decf30">
      <symbol
   id="id-61d966a7-30c7-4b4b-bd00-363d8444adb5"
   overflow="visible">
        <path
   id="id-7537a31a-76ad-4eaf-ac9e-35a5c18fa40c"
   d=""
   style="stroke:none" />
      </symbol>
      <symbol
   id="id-a3aa26a8-e0d9-4913-b323-42d5ceecfe2e"
   overflow="visible">
        <path
   id="id-ee5d1b4d-8ff4-44bd-9a8e-86603f80c6f0"
   d="m 4.75,-2.359375 c 0,-1.5625 -0.921875,-2.046875 -1.65625,-2.046875 -1.375,0 -2.6875,1.421875 -2.6875,2.828125 0,0.9375 0.59375,1.6875 1.625,1.6875 0.625,0 1.34375,-0.234375 2.09375,-0.84375 0.125,0.53125 0.453125,0.84375 0.90625,0.84375 0.53125,0 0.84375,-0.546875 0.84375,-0.703125 0,-0.078125 -0.0625,-0.109375 -0.125,-0.109375 -0.0625,0 -0.09375,0.03125 -0.125,0.109375 -0.1875,0.484375 -0.546875,0.484375 -0.5625,0.484375 -0.3125,0 -0.3125,-0.78125 -0.3125,-1.015625 0,-0.203125 0,-0.234375 0.109375,-0.34375 C 5.796875,-2.65625 6,-3.8125 6,-3.8125 6,-3.84375 5.984375,-3.921875 5.875,-3.921875 c -0.09375,0 -0.09375,0.03125 -0.140625,0.21875 -0.1875,0.625 -0.515625,1.375 -0.984375,1.96875 z m -0.65625,1.375 c -0.890625,0.765625 -1.65625,0.875 -2.046875,0.875 -0.59375,0 -0.90625,-0.453125 -0.90625,-1.09375 0,-0.484375 0.265625,-1.5625 0.578125,-2.0625 C 2.1875,-4 2.734375,-4.1875 3.078125,-4.1875 c 0.984375,0 0.984375,1.3125 0.984375,2.078125 0,0.375 0,0.953125 0.03125,1.125 z m 0,0"
   style="stroke:none" />
      </symbol>
    </g>
  </defs>
  <g
   transform="translate(-149.118,-130.359)"
   id="id-df092685-8735-470a-bd1c-e50fa1ea0a26">
    <g
   id="id-866570c6-f874-4b43-baf3-638e23d49c15"
   style="fill:#000000;fill-opacity:1">
      <g
   transform="translate(148.712,134.765)"
   id="g886"><path
   id="id-9a1d7371-2b31-45cd-b311-2f58510ab6fb"
   d="m 4.75,-2.359375 c 0,-1.5625 -0.921875,-2.046875 -1.65625,-2.046875 -1.375,0 -2.6875,1.421875 -2.6875,2.828125 0,0.9375 0.59375,1.6875 1.625,1.6875 0.625,0 1.34375,-0.234375 2.09375,-0.84375 0.125,0.53125 0.453125,0.84375 0.90625,0.84375 0.53125,0 0.84375,-0.546875 0.84375,-0.703125 0,-0.078125 -0.0625,-0.109375 -0.125,-0.109375 -0.0625,0 -0.09375,0.03125 -0.125,0.109375 -0.1875,0.484375 -0.546875,0.484375 -0.5625,0.484375 -0.3125,0 -0.3125,-0.78125 -0.3125,-1.015625 0,-0.203125 0,-0.234375 0.109375,-0.34375 C 5.796875,-2.65625 6,-3.8125 6,-3.8125 6,-3.84375 5.984375,-3.921875 5.875,-3.921875 c -0.09375,0 -0.09375,0.03125 -0.140625,0.21875 -0.1875,0.625 -0.515625,1.375 -0.984375,1.96875 z m -0.65625,1.375 c -0.890625,0.765625 -1.65625,0.875 -2.046875,0.875 -0.59375,0 -0.90625,-0.453125 -0.90625,-1.09375 0,-0.484375 0.265625,-1.5625 0.578125,-2.0625 C 2.1875,-4 2.734375,-4.1875 3.078125,-4.1875 c 0.984375,0 0.984375,1.3125 0.984375,2.078125 0,0.375 0,0.953125 0.03125,1.125 z m 0,0"
   style="stroke:none" />
      </g></g>
  </g>
</g></g></svg>
