<?xml version="1.0" encoding="UTF-8" standalone="no"?>
<svg
   version="1.1"
   id="svg833"
   xml:space="preserve"
   width="867.84003"
   height="542.40002"
   viewBox="0 0 867.84003 542.40002"
   sodipodi:docname="sphere-triangle.svg"
   inkscape:version="1.3.2 (091e20e, 2023-11-25)"
   xmlns:inkscape="http://www.inkscape.org/namespaces/inkscape"
   xmlns:sodipodi="http://sodipodi.sourceforge.net/DTD/sodipodi-0.dtd"
   xmlns="http://www.w3.org/2000/svg"
   xmlns:svg="http://www.w3.org/2000/svg"
   xmlns:rdf="http://www.w3.org/1999/02/22-rdf-syntax-ns#"
   xmlns:cc="http://creativecommons.org/ns#"
   xmlns:dc="http://purl.org/dc/elements/1.1/"
   xmlns:ns2="http://www.iki.fi/pav/software/textext/"><metadata
     id="metadata839"><rdf:RDF><cc:Work
         rdf:about=""><dc:format>image/svg+xml</dc:format><dc:type
           rdf:resource="http://purl.org/dc/dcmitype/StillImage" /><dc:title /></cc:Work></rdf:RDF></metadata><defs
     id="defs837"><linearGradient
       id="linearGradient876"
       inkscape:swatch="solid"><stop
         id="stop874"
         offset="0"
         style="stop-color:#000000;stop-opacity:1;" /></linearGradient><inkscape:path-effect
       effect="bspline"
       id="path-effect954"
       is_visible="true"
       lpeversion="1"
       weight="33.333333"
       steps="2"
       helper_size="0"
       apply_no_weight="true"
       apply_with_weight="true"
       only_selected="false" /><inkscape:path-effect
       effect="bspline"
       id="path-effect883"
       is_visible="true"
       lpeversion="1"
       weight="33.333333"
       steps="2"
       helper_size="0"
       apply_no_weight="true"
       apply_with_weight="true"
       only_selected="false" /><inkscape:path-effect
       effect="bspline"
       id="path-effect879"
       is_visible="true"
       lpeversion="1"
       weight="33.333333"
       steps="2"
       helper_size="0"
       apply_no_weight="true"
       apply_with_weight="true"
       only_selected="false" /><inkscape:path-effect
       effect="bspline"
       id="path-effect875"
       is_visible="true"
       lpeversion="1"
       weight="33.333333"
       steps="2"
       helper_size="0"
       apply_no_weight="true"
       apply_with_weight="true"
       only_selected="false" /><inkscape:path-effect
       effect="bspline"
       id="path-effect968"
       is_visible="true"
       lpeversion="1"
       weight="33.333333"
       steps="2"
       helper_size="0"
       apply_no_weight="true"
       apply_with_weight="true"
       only_selected="false" /><inkscape:path-effect
       only_selected="false"
       apply_with_weight="true"
       apply_no_weight="true"
       helper_size="0"
       steps="2"
       weight="33.333333"
       lpeversion="1"
       is_visible="true"
       id="path-effect913"
       effect="bspline" /><clipPath
       id="clipPath853"
       clipPathUnits="userSpaceOnUse"><path
         id="path851"
         d="M 0,0 H 651 V 407 H 0 Z" /></clipPath></defs><sodipodi:namedview
     inkscape:document-rotation="0"
     inkscape:current-layer="g841"
     inkscape:window-maximized="0"
     inkscape:window-y="38"
     inkscape:window-x="0"
     inkscape:cy="266"
     inkscape:cx="412"
     inkscape:zoom="1"
     showgrid="false"
     id="namedview835"
     inkscape:window-height="713"
     inkscape:window-width="1440"
     inkscape:pageshadow="2"
     inkscape:pageopacity="0"
     guidetolerance="10"
     gridtolerance="10"
     objecttolerance="10"
     borderopacity="1"
     bordercolor="#666666"
     pagecolor="#ffffff"
     inkscape:showpageshadow="2"
     inkscape:pagecheckerboard="0"
     inkscape:deskcolor="#d1d1d1" /><g
     transform="matrix(1.3333333,0,0,1.3333333,0,9.5600006e-6)"
     inkscape:label="interior-angles-triangle"
     inkscape:groupmode="layer"
     id="g841"><ellipse
       style="opacity:0.67;fill:none;fill-opacity:0.419355;stroke:#000000;stroke-width:3.75000009;stroke-miterlimit:4;stroke-dasharray:none;stroke-dashoffset:0;stroke-opacity:1"
       id="path871"
       cx="337.74405"
       cy="208.68037"
       rx="186.03123"
       ry="186.03305" /><path
       sodipodi:nodetypes="ccc"
       id="path859"
       d="m 524.01015,210.43998 c -2e-5,18.78744 -82.83286,33.22148 -187.26235,32.54155 C 232.31831,242.30162 153.98546,226.2752 153.98544,207.48776"
       style="opacity:0.67;fill:none;fill-opacity:0.419355;stroke:#000000;stroke-width:3.75000009;stroke-miterlimit:4;stroke-dasharray:none;stroke-dashoffset:0;stroke-opacity:1" /><path
       sodipodi:nodetypes="csc"
       id="path857"
       d="m 153.98544,204.5064 c -1e-5,-18.78745 82.83285,-33.22149 185.01236,-32.23935 102.17951,0.98215 185.01236,17.00857 185.01235,35.79602"
       style="opacity:0.67;fill:none;fill-opacity:0.419355;stroke:#000000;stroke-width:3.01816;stroke-miterlimit:4;stroke-dasharray:3.01816, 3.01816;stroke-dashoffset:0;stroke-opacity:1" /><path
       style="opacity:0.67;fill:none;fill-opacity:0.419355;stroke:#000000;stroke-width:3.79730985;stroke-miterlimit:4;stroke-dasharray:none;stroke-dashoffset:0;stroke-opacity:1"
       d="m -374.72828,26.293228 c 31.92497,-10e-6 59.47535,81.800742 59.47535,183.655742"
       transform="matrix(-1,0,-0.22115925,0.97523771,0,0)"
       id="path1031"
       sodipodi:nodetypes="cc" /><path
       style="opacity:0.67;fill:none;fill-opacity:0.419355;stroke:#000000;stroke-width:2.77403;stroke-miterlimit:4;stroke-dasharray:2.77403, 2.77403;stroke-dashoffset:0;stroke-opacity:1"
       d="m -373.97828,395.14281 c -31.92496,-10e-6 -56.88518,-83.33885 -56.88518,-185.19384 0,-101.85499 25.8803,-184.424778 57.80526,-184.424785"
       transform="matrix(-1,0,-0.22115925,0.97523771,0,0)"
       id="path1029"
       sodipodi:nodetypes="csc" /><path
       style="opacity:0.67;fill:none;fill-opacity:0.419355;stroke:#000000;stroke-width:2.77403002;stroke-miterlimit:4;stroke-dasharray:none;stroke-dashoffset:0;stroke-opacity:1"
       d="m -315.25293,209.94897 c 0,101.85501 -25.8803,184.4248 -57.80527,184.42479"
       transform="matrix(-1,0,-0.22115925,0.97523771,0,0)"
       id="path885-2-3-3" /><path
       style="opacity:0.67;fill:none;fill-opacity:0.419355;stroke:#000000;stroke-width:2.77403;stroke-miterlimit:4;stroke-dasharray:2.77403, 2.77403;stroke-dashoffset:0;stroke-opacity:1"
       d="m -276.95764,-400.526 c 31.92496,1e-5 57.80526,82.5698 57.80526,184.42479"
       transform="matrix(-1,0,-0.22115925,-0.97523771,0,0)"
       id="path1024"
       sodipodi:nodetypes="cc" /><path
       style="opacity:0.67;fill:none;fill-opacity:1;stroke:#000000;stroke-width:3.79730985;stroke-miterlimit:4;stroke-dasharray:none;stroke-dashoffset:0;stroke-opacity:1"
       d="m -276.95764,-31.676422 c -31.92497,10e-6 -57.80527,-82.569778 -57.80527,-184.424788 0,-101.85501 25.8803,-184.4248 57.80527,-184.42479"
       transform="matrix(-1,0,-0.22115925,-0.97523771,0,0)"
       id="path1022"
       sodipodi:nodetypes="csc" /><path
       style="opacity:0.67;fill:none;fill-opacity:0.419355;stroke:#000000;stroke-width:2.77403;stroke-miterlimit:4;stroke-dasharray:2.77403, 2.77403;stroke-dashoffset:0;stroke-opacity:1"
       d="m -219.15238,-216.10121 c 0,101.85499 -25.8803,184.424781 -57.80526,184.424788"
       transform="matrix(-1,0,-0.22115925,-0.97523771,0,0)"
       id="path885-2-3-3-9" /><path
       sodipodi:nodetypes="czcccc"
       id="path2814"
       d="m 323.25001,65.249994 c -12.24924,15.500751 -22.20175,38.298096 -28.5,53.250006 -6.29825,14.95191 -26.74926,86.50074 -32.25,120.75 27.29005,1.29563 99.99968,2.64225 125.25,1.5 0,0 -9.74925,-75.24925 -32.25,-114.75 -9.99915,-38.500371 -32.25,-60.750006 -32.25,-60.750006 z"
       style="opacity:1;fill:#2631ad;fill-opacity:0.146628;stroke:#000000;stroke-width:0.751181;stroke-linecap:butt;stroke-linejoin:miter;stroke-miterlimit:4;stroke-dasharray:none;stroke-opacity:1" /><g
       transform="matrix(2.576769,0,0,2.6812002,313.16712,93.385901)"
       ns2:version="1.0.0"
       ns2:texconverter="pdflatex"
       ns2:pdfconverter="inkscape"
       ns2:text="$\\alpha_1$"
       ns2:preamble="/Users/bm/Library/Application Support/org.inkscape.Inkscape/config/inkscape/extensions/textext/default_packages.tex"
       ns2:scale="2.2969140018466327"
       ns2:alignment="middle center"
       ns2:inkscapeversion="1.0"
       ns2:jacobian_sqrt="3.06254"
       id="g2867"><defs
   id="id-7f548f20-8340-48de-b62a-d423a34e4d7b">
    <g
   id="id-84b93ca5-d502-4248-b320-b4b17b1a7a0f">
      <symbol
   id="id-047502e1-56ed-4d5e-a64b-c74e17d7aef8"
   overflow="visible">
        <path
   id="id-9ceb434a-d271-4094-a08b-ac0d4ebdf1c3"
   d=""
   style="stroke:none" />
      </symbol>
      <symbol
   id="id-3d6efacf-478d-4828-896b-4dd6b9d86cb1"
   overflow="visible">
        <path
   id="id-b55ace56-cad8-40dc-b20f-d56f2c3a5529"
   d="m 4.75,-2.359375 c 0,-1.5625 -0.921875,-2.046875 -1.65625,-2.046875 -1.375,0 -2.6875,1.421875 -2.6875,2.828125 0,0.9375 0.59375,1.6875 1.625,1.6875 0.625,0 1.34375,-0.234375 2.09375,-0.84375 0.125,0.53125 0.453125,0.84375 0.90625,0.84375 0.53125,0 0.84375,-0.546875 0.84375,-0.703125 0,-0.078125 -0.0625,-0.109375 -0.125,-0.109375 -0.0625,0 -0.09375,0.03125 -0.125,0.109375 -0.1875,0.484375 -0.546875,0.484375 -0.5625,0.484375 -0.3125,0 -0.3125,-0.78125 -0.3125,-1.015625 0,-0.203125 0,-0.234375 0.109375,-0.34375 C 5.796875,-2.65625 6,-3.8125 6,-3.8125 6,-3.84375 5.984375,-3.921875 5.875,-3.921875 c -0.09375,0 -0.09375,0.03125 -0.140625,0.21875 -0.1875,0.625 -0.515625,1.375 -0.984375,1.96875 z m -0.65625,1.375 c -0.890625,0.765625 -1.65625,0.875 -2.046875,0.875 -0.59375,0 -0.90625,-0.453125 -0.90625,-1.09375 0,-0.484375 0.265625,-1.5625 0.578125,-2.0625 C 2.1875,-4 2.734375,-4.1875 3.078125,-4.1875 c 0.984375,0 0.984375,1.3125 0.984375,2.078125 0,0.375 0,0.953125 0.03125,1.125 z m 0,0"
   style="stroke:none" />
      </symbol>
      <symbol
   id="id-7669d85e-3d0e-4245-aca8-8239114e4ad5"
   overflow="visible">
        <path
   id="id-bf12651c-f34d-4f9e-97f5-039e7b125a85"
   d=""
   style="stroke:none" />
      </symbol>
      <symbol
   id="id-594bd0a7-ab35-4d99-9a2e-704f77abb148"
   overflow="visible">
        <path
   id="id-1223dbf0-f3fb-4ec1-a83a-8172d44dbc97"
   d="m 2.328125,-4.4375 c 0,-0.1875 0,-0.1875 -0.203125,-0.1875 -0.453125,0.4375 -1.078125,0.4375 -1.359375,0.4375 v 0.25 c 0.15625,0 0.625,0 1,-0.1875 v 3.546875 c 0,0.234375 0,0.328125 -0.6875,0.328125 H 0.8125 V 0 c 0.125,0 0.984375,-0.03125 1.234375,-0.03125 0.21875,0 1.09375,0.03125 1.25,0.03125 V -0.25 H 3.03125 c -0.703125,0 -0.703125,-0.09375 -0.703125,-0.328125 z m 0,0"
   style="stroke:none" />
      </symbol>
    </g>
  </defs>
  <g
   transform="translate(-149.118,-130.359)"
   id="id-41d36455-340f-49e2-b5c5-88087ff86fd9">
    <g
   id="id-f26d99be-199d-49a2-996a-fd13f4903eb8"
   style="fill:#000000;fill-opacity:1">
      <g
   transform="translate(148.712,134.765)"
   id="g2859"><path
   id="id-7ba16cfd-6920-4e8a-a233-294d7e1019b8"
   d="m 4.75,-2.359375 c 0,-1.5625 -0.921875,-2.046875 -1.65625,-2.046875 -1.375,0 -2.6875,1.421875 -2.6875,2.828125 0,0.9375 0.59375,1.6875 1.625,1.6875 0.625,0 1.34375,-0.234375 2.09375,-0.84375 0.125,0.53125 0.453125,0.84375 0.90625,0.84375 0.53125,0 0.84375,-0.546875 0.84375,-0.703125 0,-0.078125 -0.0625,-0.109375 -0.125,-0.109375 -0.0625,0 -0.09375,0.03125 -0.125,0.109375 -0.1875,0.484375 -0.546875,0.484375 -0.5625,0.484375 -0.3125,0 -0.3125,-0.78125 -0.3125,-1.015625 0,-0.203125 0,-0.234375 0.109375,-0.34375 C 5.796875,-2.65625 6,-3.8125 6,-3.8125 6,-3.84375 5.984375,-3.921875 5.875,-3.921875 c -0.09375,0 -0.09375,0.03125 -0.140625,0.21875 -0.1875,0.625 -0.515625,1.375 -0.984375,1.96875 z m -0.65625,1.375 c -0.890625,0.765625 -1.65625,0.875 -2.046875,0.875 -0.59375,0 -0.90625,-0.453125 -0.90625,-1.09375 0,-0.484375 0.265625,-1.5625 0.578125,-2.0625 C 2.1875,-4 2.734375,-4.1875 3.078125,-4.1875 c 0.984375,0 0.984375,1.3125 0.984375,2.078125 0,0.375 0,0.953125 0.03125,1.125 z m 0,0"
   style="stroke:none" />
      </g></g>
    <g
   id="id-d8268bc6-1219-4408-9958-d1aa5db013e2"
   style="fill:#000000;fill-opacity:1">
      <g
   transform="translate(155.085,136.259)"
   id="g2863"><path
   id="id-b3674d79-6d8d-4897-894c-61449f7d5a63"
   d="m 2.328125,-4.4375 c 0,-0.1875 0,-0.1875 -0.203125,-0.1875 -0.453125,0.4375 -1.078125,0.4375 -1.359375,0.4375 v 0.25 c 0.15625,0 0.625,0 1,-0.1875 v 3.546875 c 0,0.234375 0,0.328125 -0.6875,0.328125 H 0.8125 V 0 c 0.125,0 0.984375,-0.03125 1.234375,-0.03125 0.21875,0 1.09375,0.03125 1.25,0.03125 V -0.25 H 3.03125 c -0.703125,0 -0.703125,-0.09375 -0.703125,-0.328125 z m 0,0"
   style="stroke:none" />
      </g></g>
  </g>
</g><g
       transform="matrix(2.5879593,0,0,2.9354267,273.83212,218.63597)"
       ns2:version="1.0.0"
       ns2:texconverter="pdflatex"
       ns2:pdfconverter="inkscape"
       ns2:text="$\\alpha_2$"
       ns2:preamble="/Users/bm/Library/Application Support/org.inkscape.Inkscape/config/inkscape/extensions/textext/default_packages.tex"
       ns2:scale="2.2969140018466327"
       ns2:alignment="middle center"
       ns2:inkscapeversion="1.0"
       ns2:jacobian_sqrt="3.06254"
       id="g2950"><defs
   id="id-272c5d31-bb2a-4356-8fe9-961c12527976">
    <g
   id="id-09656178-89fd-4f92-9a27-536ae80eb998">
      <symbol
   id="id-36769e5d-3f21-4209-900d-3e1c256ce8e0"
   overflow="visible">
        <path
   id="id-5134afef-0f80-4e6d-9470-17451c2ea522"
   d=""
   style="stroke:none" />
      </symbol>
      <symbol
   id="id-b5574b5c-7e21-400d-8ab5-30eeacafdbad"
   overflow="visible">
        <path
   id="id-594cdb45-8cb6-49b7-aa7c-7fbdda4b38a7"
   d="m 4.75,-2.359375 c 0,-1.5625 -0.921875,-2.046875 -1.65625,-2.046875 -1.375,0 -2.6875,1.421875 -2.6875,2.828125 0,0.9375 0.59375,1.6875 1.625,1.6875 0.625,0 1.34375,-0.234375 2.09375,-0.84375 0.125,0.53125 0.453125,0.84375 0.90625,0.84375 0.53125,0 0.84375,-0.546875 0.84375,-0.703125 0,-0.078125 -0.0625,-0.109375 -0.125,-0.109375 -0.0625,0 -0.09375,0.03125 -0.125,0.109375 -0.1875,0.484375 -0.546875,0.484375 -0.5625,0.484375 -0.3125,0 -0.3125,-0.78125 -0.3125,-1.015625 0,-0.203125 0,-0.234375 0.109375,-0.34375 C 5.796875,-2.65625 6,-3.8125 6,-3.8125 6,-3.84375 5.984375,-3.921875 5.875,-3.921875 c -0.09375,0 -0.09375,0.03125 -0.140625,0.21875 -0.1875,0.625 -0.515625,1.375 -0.984375,1.96875 z m -0.65625,1.375 c -0.890625,0.765625 -1.65625,0.875 -2.046875,0.875 -0.59375,0 -0.90625,-0.453125 -0.90625,-1.09375 0,-0.484375 0.265625,-1.5625 0.578125,-2.0625 C 2.1875,-4 2.734375,-4.1875 3.078125,-4.1875 c 0.984375,0 0.984375,1.3125 0.984375,2.078125 0,0.375 0,0.953125 0.03125,1.125 z m 0,0"
   style="stroke:none" />
      </symbol>
      <symbol
   id="id-ad7b27eb-00f6-41a7-8e6e-7e08e71e5734"
   overflow="visible">
        <path
   id="id-666a918f-33e4-4486-ab48-f9d46c206395"
   d=""
   style="stroke:none" />
      </symbol>
      <symbol
   id="id-8dafd67e-9029-44d9-87bd-98cf8daff7f9"
   overflow="visible">
        <path
   id="id-6bb7ba5b-db16-49b0-a07f-db1f861eeef2"
   d="M 3.515625,-1.265625 H 3.28125 c -0.015625,0.15625 -0.09375,0.5625 -0.1875,0.625 C 3.046875,-0.59375 2.515625,-0.59375 2.40625,-0.59375 H 1.125 c 0.734375,-0.640625 0.984375,-0.84375 1.390625,-1.171875 0.515625,-0.40625 1,-0.84375 1,-1.5 0,-0.84375 -0.734375,-1.359375 -1.625,-1.359375 -0.859375,0 -1.453125,0.609375 -1.453125,1.25 0,0.34375 0.296875,0.390625 0.375,0.390625 0.15625,0 0.359375,-0.125 0.359375,-0.375 0,-0.125 -0.046875,-0.375 -0.40625,-0.375 C 0.984375,-4.21875 1.453125,-4.375 1.78125,-4.375 c 0.703125,0 1.0625,0.546875 1.0625,1.109375 0,0.609375 -0.4375,1.078125 -0.65625,1.328125 L 0.515625,-0.265625 C 0.4375,-0.203125 0.4375,-0.1875 0.4375,0 h 2.875 z m 0,0"
   style="stroke:none" />
      </symbol>
    </g>
  </defs>
  <g
   transform="translate(-149.118,-130.359)"
   id="id-1f9b2f18-1e85-4848-b2c5-f3cf6c6e4b52">
    <g
   id="id-620eb528-4401-41f9-8eb4-9270d6f77a8c"
   style="fill:#000000;fill-opacity:1">
      <g
   transform="translate(148.712,134.765)"
   id="g2942"><path
   id="id-664490ef-a3b5-4a2d-b4e6-badab2f8a8d4"
   d="m 4.75,-2.359375 c 0,-1.5625 -0.921875,-2.046875 -1.65625,-2.046875 -1.375,0 -2.6875,1.421875 -2.6875,2.828125 0,0.9375 0.59375,1.6875 1.625,1.6875 0.625,0 1.34375,-0.234375 2.09375,-0.84375 0.125,0.53125 0.453125,0.84375 0.90625,0.84375 0.53125,0 0.84375,-0.546875 0.84375,-0.703125 0,-0.078125 -0.0625,-0.109375 -0.125,-0.109375 -0.0625,0 -0.09375,0.03125 -0.125,0.109375 -0.1875,0.484375 -0.546875,0.484375 -0.5625,0.484375 -0.3125,0 -0.3125,-0.78125 -0.3125,-1.015625 0,-0.203125 0,-0.234375 0.109375,-0.34375 C 5.796875,-2.65625 6,-3.8125 6,-3.8125 6,-3.84375 5.984375,-3.921875 5.875,-3.921875 c -0.09375,0 -0.09375,0.03125 -0.140625,0.21875 -0.1875,0.625 -0.515625,1.375 -0.984375,1.96875 z m -0.65625,1.375 c -0.890625,0.765625 -1.65625,0.875 -2.046875,0.875 -0.59375,0 -0.90625,-0.453125 -0.90625,-1.09375 0,-0.484375 0.265625,-1.5625 0.578125,-2.0625 C 2.1875,-4 2.734375,-4.1875 3.078125,-4.1875 c 0.984375,0 0.984375,1.3125 0.984375,2.078125 0,0.375 0,0.953125 0.03125,1.125 z m 0,0"
   style="stroke:none" />
      </g></g>
    <g
   id="id-1253cf12-6d0f-4bf0-8186-dfcdb4da2e52"
   style="fill:#000000;fill-opacity:1">
      <g
   transform="translate(155.085,136.259)"
   id="g2946"><path
   id="id-8bd4e66d-3fc1-44f8-a3d8-453ca7864985"
   d="M 3.515625,-1.265625 H 3.28125 c -0.015625,0.15625 -0.09375,0.5625 -0.1875,0.625 C 3.046875,-0.59375 2.515625,-0.59375 2.40625,-0.59375 H 1.125 c 0.734375,-0.640625 0.984375,-0.84375 1.390625,-1.171875 0.515625,-0.40625 1,-0.84375 1,-1.5 0,-0.84375 -0.734375,-1.359375 -1.625,-1.359375 -0.859375,0 -1.453125,0.609375 -1.453125,1.25 0,0.34375 0.296875,0.390625 0.375,0.390625 0.15625,0 0.359375,-0.125 0.359375,-0.375 0,-0.125 -0.046875,-0.375 -0.40625,-0.375 C 0.984375,-4.21875 1.453125,-4.375 1.78125,-4.375 c 0.703125,0 1.0625,0.546875 1.0625,1.109375 0,0.609375 -0.4375,1.078125 -0.65625,1.328125 L 0.515625,-0.265625 C 0.4375,-0.203125 0.4375,-0.1875 0.4375,0 h 2.875 z m 0,0"
   style="stroke:none" />
      </g></g>
  </g>
</g><g
       transform="matrix(2.512474,0,0,2.8142316,347.23614,215.41994)"
       ns2:version="1.0.0"
       ns2:texconverter="pdflatex"
       ns2:pdfconverter="inkscape"
       ns2:text="$\\alpha_3$"
       ns2:preamble="/Users/bm/Library/Application Support/org.inkscape.Inkscape/config/inkscape/extensions/textext/default_packages.tex"
       ns2:scale="2.2969140018466327"
       ns2:alignment="middle center"
       ns2:inkscapeversion="1.0"
       ns2:jacobian_sqrt="3.06254"
       id="g3051"><defs
   id="id-fccbd3dd-a6ab-42b6-a083-f9f93489e9bf">
    <g
   id="id-31c90f32-f6b8-41af-9b17-ee50637700c8">
      <symbol
   id="id-01b16ede-038f-41ea-8617-40b160a0cf92"
   overflow="visible">
        <path
   id="id-1ff2f975-e579-440c-a741-926556afe67c"
   d=""
   style="stroke:none" />
      </symbol>
      <symbol
   id="id-4d32f588-90f4-4b5b-99b2-c1669bc6978a"
   overflow="visible">
        <path
   id="id-2f75a87c-f31d-4889-8fee-58b0ea4ca159"
   d="m 4.75,-2.359375 c 0,-1.5625 -0.921875,-2.046875 -1.65625,-2.046875 -1.375,0 -2.6875,1.421875 -2.6875,2.828125 0,0.9375 0.59375,1.6875 1.625,1.6875 0.625,0 1.34375,-0.234375 2.09375,-0.84375 0.125,0.53125 0.453125,0.84375 0.90625,0.84375 0.53125,0 0.84375,-0.546875 0.84375,-0.703125 0,-0.078125 -0.0625,-0.109375 -0.125,-0.109375 -0.0625,0 -0.09375,0.03125 -0.125,0.109375 -0.1875,0.484375 -0.546875,0.484375 -0.5625,0.484375 -0.3125,0 -0.3125,-0.78125 -0.3125,-1.015625 0,-0.203125 0,-0.234375 0.109375,-0.34375 C 5.796875,-2.65625 6,-3.8125 6,-3.8125 6,-3.84375 5.984375,-3.921875 5.875,-3.921875 c -0.09375,0 -0.09375,0.03125 -0.140625,0.21875 -0.1875,0.625 -0.515625,1.375 -0.984375,1.96875 z m -0.65625,1.375 c -0.890625,0.765625 -1.65625,0.875 -2.046875,0.875 -0.59375,0 -0.90625,-0.453125 -0.90625,-1.09375 0,-0.484375 0.265625,-1.5625 0.578125,-2.0625 C 2.1875,-4 2.734375,-4.1875 3.078125,-4.1875 c 0.984375,0 0.984375,1.3125 0.984375,2.078125 0,0.375 0,0.953125 0.03125,1.125 z m 0,0"
   style="stroke:none" />
      </symbol>
      <symbol
   id="id-f561a5e9-a5b5-4d54-8c3f-19dfbb690d66"
   overflow="visible">
        <path
   id="id-d919b108-096b-47ac-891b-9bcf96f09a54"
   d=""
   style="stroke:none" />
      </symbol>
      <symbol
   id="id-47f5c1ce-7079-45de-940d-abbfea06af68"
   overflow="visible">
        <path
   id="id-4939223f-713c-409b-8fae-9ae50c81ab02"
   d="m 1.90625,-2.328125 c 0.546875,0 0.9375,0.375 0.9375,1.125 0,0.859375 -0.515625,1.125 -0.90625,1.125 -0.28125,0 -0.90625,-0.078125 -1.1875,-0.5 0.328125,0 0.40625,-0.234375 0.40625,-0.390625 0,-0.21875 -0.171875,-0.375 -0.390625,-0.375 -0.1875,0 -0.390625,0.125 -0.390625,0.40625 0,0.65625 0.71875,1.078125 1.5625,1.078125 0.96875,0 1.640625,-0.65625 1.640625,-1.34375 0,-0.546875 -0.4375,-1.09375 -1.203125,-1.25 0.71875,-0.265625 0.984375,-0.78125 0.984375,-1.21875 0,-0.546875 -0.625,-0.953125 -1.40625,-0.953125 -0.765625,0 -1.359375,0.375 -1.359375,0.9375 0,0.234375 0.15625,0.359375 0.359375,0.359375 0.21875,0 0.359375,-0.15625 0.359375,-0.34375 0,-0.203125 -0.140625,-0.359375 -0.359375,-0.375 0.25,-0.296875 0.71875,-0.375 0.984375,-0.375 0.3125,0 0.75,0.15625 0.75,0.75 0,0.296875 -0.09375,0.625 -0.28125,0.828125 -0.21875,0.265625 -0.421875,0.28125 -0.765625,0.3125 -0.171875,0.015625 -0.1875,0.015625 -0.21875,0.015625 -0.015625,0 -0.078125,0.015625 -0.078125,0.09375 0,0.09375 0.0625,0.09375 0.1875,0.09375 z m 0,0"
   style="stroke:none" />
      </symbol>
    </g>
  </defs>
  <g
   transform="translate(-149.118,-130.359)"
   id="id-f6708892-53d3-4042-8d3b-549172c5d8b4">
    <g
   id="id-b08847e0-d754-4af7-a719-25310a30c206"
   style="fill:#000000;fill-opacity:1">
      <g
   transform="translate(148.712,134.765)"
   id="g3043"><path
   id="id-e8ed3296-6a1c-4199-872c-f0f99a5f09bf"
   d="m 4.75,-2.359375 c 0,-1.5625 -0.921875,-2.046875 -1.65625,-2.046875 -1.375,0 -2.6875,1.421875 -2.6875,2.828125 0,0.9375 0.59375,1.6875 1.625,1.6875 0.625,0 1.34375,-0.234375 2.09375,-0.84375 0.125,0.53125 0.453125,0.84375 0.90625,0.84375 0.53125,0 0.84375,-0.546875 0.84375,-0.703125 0,-0.078125 -0.0625,-0.109375 -0.125,-0.109375 -0.0625,0 -0.09375,0.03125 -0.125,0.109375 -0.1875,0.484375 -0.546875,0.484375 -0.5625,0.484375 -0.3125,0 -0.3125,-0.78125 -0.3125,-1.015625 0,-0.203125 0,-0.234375 0.109375,-0.34375 C 5.796875,-2.65625 6,-3.8125 6,-3.8125 6,-3.84375 5.984375,-3.921875 5.875,-3.921875 c -0.09375,0 -0.09375,0.03125 -0.140625,0.21875 -0.1875,0.625 -0.515625,1.375 -0.984375,1.96875 z m -0.65625,1.375 c -0.890625,0.765625 -1.65625,0.875 -2.046875,0.875 -0.59375,0 -0.90625,-0.453125 -0.90625,-1.09375 0,-0.484375 0.265625,-1.5625 0.578125,-2.0625 C 2.1875,-4 2.734375,-4.1875 3.078125,-4.1875 c 0.984375,0 0.984375,1.3125 0.984375,2.078125 0,0.375 0,0.953125 0.03125,1.125 z m 0,0"
   style="stroke:none" />
      </g></g>
    <g
   id="id-ca9bd6e9-769f-4569-842f-193582870ee8"
   style="fill:#000000;fill-opacity:1">
      <g
   transform="translate(155.085,136.259)"
   id="g3047"><path
   id="id-cc3f504b-1fc0-4af4-8426-62e393e76975"
   d="m 1.90625,-2.328125 c 0.546875,0 0.9375,0.375 0.9375,1.125 0,0.859375 -0.515625,1.125 -0.90625,1.125 -0.28125,0 -0.90625,-0.078125 -1.1875,-0.5 0.328125,0 0.40625,-0.234375 0.40625,-0.390625 0,-0.21875 -0.171875,-0.375 -0.390625,-0.375 -0.1875,0 -0.390625,0.125 -0.390625,0.40625 0,0.65625 0.71875,1.078125 1.5625,1.078125 0.96875,0 1.640625,-0.65625 1.640625,-1.34375 0,-0.546875 -0.4375,-1.09375 -1.203125,-1.25 0.71875,-0.265625 0.984375,-0.78125 0.984375,-1.21875 0,-0.546875 -0.625,-0.953125 -1.40625,-0.953125 -0.765625,0 -1.359375,0.375 -1.359375,0.9375 0,0.234375 0.15625,0.359375 0.359375,0.359375 0.21875,0 0.359375,-0.15625 0.359375,-0.34375 0,-0.203125 -0.140625,-0.359375 -0.359375,-0.375 0.25,-0.296875 0.71875,-0.375 0.984375,-0.375 0.3125,0 0.75,0.15625 0.75,0.75 0,0.296875 -0.09375,0.625 -0.28125,0.828125 -0.21875,0.265625 -0.421875,0.28125 -0.765625,0.3125 -0.171875,0.015625 -0.1875,0.015625 -0.21875,0.015625 -0.015625,0 -0.078125,0.015625 -0.078125,0.09375 0,0.09375 0.0625,0.09375 0.1875,0.09375 z m 0,0"
   style="stroke:none" />
      </g></g>
  </g>
</g></g></svg>
