<?xml version="1.0" encoding="UTF-8" standalone="no"?>
<!-- Created with Inkscape (http://www.inkscape.org/) -->

<svg
   width="210mm"
   height="297mm"
   viewBox="0 0 210 297"
   version="1.1"
   id="svg1"
   inkscape:version="1.3.2 (091e20e, 2023-11-25)"
   sodipodi:docname="torus-top.svg"
   xmlns:inkscape="http://www.inkscape.org/namespaces/inkscape"
   xmlns:sodipodi="http://sodipodi.sourceforge.net/DTD/sodipodi-0.dtd"
   xmlns="http://www.w3.org/2000/svg"
   xmlns:svg="http://www.w3.org/2000/svg">
  <sodipodi:namedview
     id="namedview1"
     pagecolor="#ffffff"
     bordercolor="#666666"
     borderopacity="1.0"
     inkscape:showpageshadow="2"
     inkscape:pageopacity="0.0"
     inkscape:pagecheckerboard="0"
     inkscape:deskcolor="#d1d1d1"
     inkscape:document-units="mm"
     inkscape:zoom="0.51737678"
     inkscape:cx="410.72582"
     inkscape:cy="448.41595"
     inkscape:window-width="1184"
     inkscape:window-height="677"
     inkscape:window-x="0"
     inkscape:window-y="25"
     inkscape:window-maximized="0"
     inkscape:current-layer="layer1" />
  <defs
     id="defs1" />
  <g
     inkscape:label="Layer 1"
     inkscape:groupmode="layer"
     id="layer1">
    <path
       id="path2"
       d="m 95.591707,76.308522 c 0,1.964276 -1.560027,3.557167 -3.485267,3.557167 -1.926453,0 -3.486466,-1.592891 -3.486466,-3.557167 0,-1.963861 1.560013,-3.555509 3.486466,-3.555509 1.92524,0 3.485267,1.591648 3.485267,3.555509 z"
       style="fill:#000000;fill-opacity:0.976096;fill-rule:nonzero;stroke:#000000;stroke-width:0.652401;stroke-linecap:butt;stroke-linejoin:miter;stroke-miterlimit:4;stroke-dasharray:none;stroke-opacity:0.989637" />
    <path
       id="path3"
       d="m 86.071549,68.557945 c -0.123907,0.589407 -0.173064,0.696345 -0.869788,0.696345 -0.172658,0 -0.347346,0 -0.347346,0.32206 0,0.134295 0.07435,0.213878 0.198252,0.213878 0.423721,0 0.894975,-0.05347 1.317072,-0.05347 0.547628,0 1.069664,0.05347 1.590074,0.05347 0.07475,0 0.274627,0 0.274627,-0.348172 0,-0.187766 -0.149094,-0.187766 -0.37294,-0.187766 -0.795037,0 -0.795037,-0.106942 -0.795037,-0.267346 0,-0.215122 0.66991,-3.001748 0.769849,-3.430747 0.198251,0.509825 0.645942,1.099232 1.466168,1.099232 1.837888,0 3.826094,-2.491923 3.826094,-5.011203 0,-1.607812 -0.918941,-2.7344 -2.112113,-2.7344 -0.795037,0 -1.564887,0.616763 -2.086921,1.286996 -0.149096,-0.937581 -0.844194,-1.286996 -1.417011,-1.286996 -0.744256,0 -1.042853,0.670232 -1.166353,0.964935 -0.298596,0.589407 -0.498472,1.607813 -0.498472,1.662526 0,0.186521 0.149094,0.186521 0.174688,0.186521 0.17469,0 0.17469,-0.02611 0.273003,-0.401642 0.274627,-1.20617 0.596379,-2.036812 1.167977,-2.036812 0.273001,0 0.496441,0.134295 0.496441,0.777173 0,0.401641 -0.04916,0.589407 -0.123501,0.88411 z m 2.783645,-7.423544 c 0.09994,-0.455111 0.545599,-0.937579 0.820226,-1.20617 0.571191,-0.508582 1.018882,-0.642877 1.291885,-0.642877 0.620349,0 1.018886,0.589407 1.018886,1.607813 0,1.018406 -0.522446,2.97605 -0.820634,3.618511 -0.546005,1.20617 -1.291886,1.768221 -1.888265,1.768221 -1.042852,0 -1.242729,-1.420048 -1.242729,-1.526986 0,-0.02735 0,-0.05347 0.05078,-0.268591 z"
       style="fill:#000000;fill-opacity:1;fill-rule:nonzero;stroke:none;stroke-width:0.410352" />
    <path
       id="path4"
       d="m 97.024565,61.419157 c 0,-0.32206 0,-0.32206 -0.322155,-0.32206 -0.720293,0.751058 -1.713994,0.751058 -2.161281,0.751058 v 0.429414 c 0.247406,0 0.993299,0 1.590084,-0.322474 v 6.083077 c 0,0.401643 0,0.563294 -1.093648,0.563294 h -0.42209 v 0.429414 c 0.198246,0 1.564887,-0.05347 1.963024,-0.05347 0.347756,0 1.739583,0.05347 1.986989,0.05347 v -0.429414 h -0.42209 c -1.118833,0 -1.118833,-0.161651 -1.118833,-0.563294 z"
       style="fill:#000000;fill-opacity:1;fill-rule:nonzero;stroke:none;stroke-width:0.410352" />
    <path
       id="path5"
       d="m 28.445363,124.14334 c 1.931327,-9.71445 3.862653,-19.42764 14.458546,-28.661267 10.595894,-9.23363 29.857976,-17.986861 49.080659,-18.13069 19.223992,-0.144243 38.408532,8.318845 48.785452,17.40035 10.3753,9.083177 11.93978,18.783517 13.50629,28.485107"
       style="fill:none;stroke:#000000;stroke-width:2.32639;stroke-linecap:butt;stroke-linejoin:miter;stroke-miterlimit:4;stroke-dasharray:none;stroke-opacity:1" />
    <path
       id="path6"
       d="m 29.070585,124.88362 c 7.358869,6.55559 14.717331,13.11284 31.287987,16.39189 16.570657,3.27697 42.351948,3.27697 59.540198,-0.35149 17.18939,-3.62845 25.78245,-10.88372 34.37754,-18.14064"
       style="fill:none;stroke:#000000;stroke-width:2.3264;stroke-linecap:butt;stroke-linejoin:miter;stroke-miterlimit:4;stroke-dasharray:none;stroke-opacity:1" />
    <path
       id="path7"
       d="m 28.79149,125.05024 c 9.377133,-6.12203 18.755892,-12.24532 35.594676,-15.41867 16.838784,-3.175 41.139704,-3.40173 57.439064,-0.79499 16.29927,2.6084 24.5974,8.05024 32.89512,13.49335"
       style="fill:none;stroke:#000000;stroke-width:2.3264;stroke-linecap:butt;stroke-linejoin:miter;stroke-miterlimit:4;stroke-dasharray:2.3264, 4.65282;stroke-dashoffset:0;stroke-opacity:1" />
  </g>
</svg>
