<?xml version="1.0" encoding="UTF-8" standalone="no"?>
<svg
   xmlns:ns2="http://www.iki.fi/pav/software/textext/"
   xmlns:dc="http://purl.org/dc/elements/1.1/"
   xmlns:cc="http://creativecommons.org/ns#"
   xmlns:rdf="http://www.w3.org/1999/02/22-rdf-syntax-ns#"
   xmlns:svg="http://www.w3.org/2000/svg"
   xmlns="http://www.w3.org/2000/svg"
   xmlns:sodipodi="http://sodipodi.sourceforge.net/DTD/sodipodi-0.dtd"
   xmlns:inkscape="http://www.inkscape.org/namespaces/inkscape"
   inkscape:version="1.0 (4035a4f, 2020-05-01)"
   sodipodi:docname="discrete-curvature.svg"
   viewBox="0 0 867.84003 542.40002"
   height="542.40002"
   width="867.84003"
   xml:space="preserve"
   id="svg833"
   version="1.1"><metadata
     id="metadata839"><rdf:RDF><cc:Work
         rdf:about=""><dc:format>image/svg+xml</dc:format><dc:type
           rdf:resource="http://purl.org/dc/dcmitype/StillImage" /><dc:title></dc:title></cc:Work></rdf:RDF></metadata><defs
     id="defs837"><inkscape:path-effect
       only_selected="false"
       apply_with_weight="true"
       apply_no_weight="true"
       helper_size="0"
       steps="2"
       weight="33.333333"
       lpeversion="1"
       is_visible="true"
       id="path-effect3826"
       effect="bspline" /><inkscape:path-effect
       effect="bspline"
       id="path-effect3807"
       is_visible="true"
       lpeversion="1"
       weight="33.333333"
       steps="2"
       helper_size="0"
       apply_no_weight="true"
       apply_with_weight="true"
       only_selected="false" /><inkscape:path-effect
       effect="bspline"
       id="path-effect3788"
       is_visible="true"
       lpeversion="1"
       weight="33.333333"
       steps="2"
       helper_size="0"
       apply_no_weight="true"
       apply_with_weight="true"
       only_selected="false" /><inkscape:path-effect
       only_selected="false"
       apply_with_weight="true"
       apply_no_weight="true"
       helper_size="0"
       steps="2"
       weight="33.333333"
       lpeversion="1"
       is_visible="true"
       id="path-effect3769"
       effect="bspline" /><inkscape:path-effect
       only_selected="false"
       apply_with_weight="true"
       apply_no_weight="true"
       helper_size="0"
       steps="2"
       weight="33.333333"
       lpeversion="1"
       is_visible="true"
       id="path-effect1915"
       effect="bspline" /><marker
       inkscape:isstock="true"
       style="overflow:visible;"
       id="Arrow2Mend"
       refX="0.0"
       refY="0.0"
       orient="auto"
       inkscape:stockid="Arrow2Mend"><path
         transform="scale(0.6) rotate(180) translate(0,0)"
         d="M 8.7185878,4.0337352 L -2.2072895,0.016013256 L 8.7185884,-4.0017078 C 6.9730900,-1.6296469 6.9831476,1.6157441 8.7185878,4.0337352 z "
         style="fill-rule:evenodd;stroke-width:0.625;stroke-linejoin:round;stroke:#000000;stroke-opacity:1;fill:#000000;fill-opacity:1"
         id="path1189" /></marker><marker
       inkscape:isstock="true"
       style="overflow:visible;"
       id="Arrow1Mend"
       refX="0.0"
       refY="0.0"
       orient="auto"
       inkscape:stockid="Arrow1Mend"><path
         transform="scale(0.4) rotate(180) translate(10,0)"
         style="fill-rule:evenodd;stroke:#000000;stroke-width:1pt;stroke-opacity:1;fill:#000000;fill-opacity:1"
         d="M 0.0,0.0 L 5.0,-5.0 L -12.5,0.0 L 5.0,5.0 L 0.0,0.0 z "
         id="path1171" /></marker><marker
       inkscape:isstock="true"
       style="overflow:visible;"
       id="Arrow1Lend"
       refX="0.0"
       refY="0.0"
       orient="auto"
       inkscape:stockid="Arrow1Lend"><path
         transform="scale(0.8) rotate(180) translate(12.5,0)"
         style="fill-rule:evenodd;stroke:#000000;stroke-width:1pt;stroke-opacity:1;fill:#000000;fill-opacity:1"
         d="M 0.0,0.0 L 5.0,-5.0 L -12.5,0.0 L 5.0,5.0 L 0.0,0.0 z "
         id="path1165" /></marker><marker
       inkscape:isstock="true"
       style="overflow:visible"
       id="Arrow1Lstart"
       refX="0.0"
       refY="0.0"
       orient="auto"
       inkscape:stockid="Arrow1Lstart"><path
         transform="scale(0.8) translate(12.5,0)"
         style="fill-rule:evenodd;stroke:#000000;stroke-width:1pt;stroke-opacity:1;fill:#000000;fill-opacity:1"
         d="M 0.0,0.0 L 5.0,-5.0 L -12.5,0.0 L 5.0,5.0 L 0.0,0.0 z "
         id="path1162" /></marker><clipPath
       id="clipPath851"
       clipPathUnits="userSpaceOnUse"><path
         id="path849"
         d="M 0,-2.630191e-6 H 650.88 V 406.8 H 0 Z" /></clipPath><marker
       inkscape:stockid="Arrow2Mend"
       orient="auto"
       refY="0"
       refX="0"
       id="Arrow2Mend-3"
       style="overflow:visible"
       inkscape:isstock="true"><path
         id="path1189-9"
         style="fill:#000000;fill-opacity:1;fill-rule:evenodd;stroke:#000000;stroke-width:0.625;stroke-linejoin:round;stroke-opacity:1"
         d="M 8.7185878,4.0337352 -2.2072895,0.01601326 8.7185884,-4.0017078 c -1.7454984,2.3720609 -1.7354408,5.6174519 -6e-7,8.035443 z"
         transform="scale(-0.6)" /></marker><marker
       inkscape:isstock="true"
       style="overflow:visible"
       id="Arrow2Mend-3-5"
       refX="0"
       refY="0"
       orient="auto"
       inkscape:stockid="Arrow2Mend"><path
         transform="scale(-0.6)"
         d="M 8.7185878,4.0337352 -2.2072895,0.01601326 8.7185884,-4.0017078 c -1.7454984,2.3720609 -1.7354408,5.6174519 -6e-7,8.035443 z"
         style="fill:#000000;fill-opacity:1;fill-rule:evenodd;stroke:#000000;stroke-width:0.625;stroke-linejoin:round;stroke-opacity:1"
         id="path1189-9-5" /></marker><marker
       inkscape:stockid="Arrow2Mend"
       orient="auto"
       refY="0"
       refX="0"
       id="Arrow2Mend-3-5-1"
       style="overflow:visible"
       inkscape:isstock="true"><path
         id="path1189-9-5-4"
         style="fill:#000000;fill-opacity:1;fill-rule:evenodd;stroke:#000000;stroke-width:0.625;stroke-linejoin:round;stroke-opacity:1"
         d="M 8.7185878,4.0337352 -2.2072895,0.01601326 8.7185884,-4.0017078 c -1.7454984,2.3720609 -1.7354408,5.6174519 -6e-7,8.035443 z"
         transform="scale(-0.6)" /></marker></defs><sodipodi:namedview
     inkscape:document-rotation="0"
     inkscape:current-layer="g841"
     inkscape:window-maximized="0"
     inkscape:window-y="25"
     inkscape:window-x="0"
     inkscape:cy="275.41283"
     inkscape:cx="383.36623"
     inkscape:zoom="0.71211281"
     showgrid="false"
     id="namedview835"
     inkscape:window-height="642"
     inkscape:window-width="1304"
     inkscape:pageshadow="2"
     inkscape:pageopacity="0"
     guidetolerance="10"
     gridtolerance="10"
     objecttolerance="10"
     borderopacity="1"
     bordercolor="#666666"
     pagecolor="#ffffff" /><g
     transform="matrix(1.3333333,0,0,-1.3333333,0,542.4)"
     inkscape:label="discrete-curvature"
     inkscape:groupmode="layer"
     id="g841"><g
       id="g843" /><g
       id="g845"><g
         clip-path="url(#clipPath851)"
         id="g847" /></g><path
       sodipodi:nodetypes="ccccc"
       id="path1130"
       d="M 103.21399,308.85204 35.808934,167.72271 150.60816,130.86057 261.19458,184.57398 Z"
       style="fill:none;stroke:#000000;stroke-width:2.83465;stroke-linecap:butt;stroke-linejoin:miter;stroke-miterlimit:4;stroke-dasharray:none;stroke-opacity:1" /><path
       sodipodi:nodetypes="cc"
       id="path1136"
       d="m 103.21399,308.85204 8.42563,-112.69282"
       style="fill:none;stroke:#000000;stroke-width:2.83465;stroke-linecap:butt;stroke-linejoin:miter;stroke-miterlimit:4;stroke-dasharray:2.83465, 2.83465;stroke-dashoffset:0;stroke-opacity:1" /><path
       sodipodi:nodetypes="cc"
       id="path1132"
       d="M 150.60816,130.86057 103.21399,308.85204"
       style="fill:none;stroke:#000000;stroke-width:2.83465;stroke-linecap:butt;stroke-linejoin:miter;stroke-miterlimit:4;stroke-dasharray:none;stroke-opacity:1" /><path
       sodipodi:nodetypes="ccc"
       id="path1138"
       d="m 35.808934,167.72271 75.830686,28.43651 149.55496,-11.58524"
       style="fill:none;stroke:#000000;stroke-width:2.83465;stroke-linecap:butt;stroke-linejoin:miter;stroke-miterlimit:4;stroke-dasharray:2.83465, 2.83465;stroke-dashoffset:0;stroke-opacity:1" /><ellipse
       ry="4.7160339"
       rx="4.7160344"
       transform="scale(1,-1)"
       cy="-307.96359"
       cx="104.10246"
       id="path1158"
       style="fill:#050403;fill-opacity:0.991202;fill-rule:evenodd;stroke:#000000;stroke-width:1.81793;stroke-miterlimit:4;stroke-dasharray:none;stroke-dashoffset:0" /><path
       id="path1160"
       d="m 160.087,225.64894 56.87301,53.71339"
       style="fill:none;stroke:#000000;stroke-width:2.83464574;stroke-linecap:butt;stroke-linejoin:miter;stroke-opacity:1;stroke-miterlimit:4;stroke-dasharray:none;marker-end:url(#Arrow2Mend)" /><path
       sodipodi:nodetypes="cc"
       style="fill:none;stroke:#000000;stroke-width:2.59333;stroke-linecap:butt;stroke-linejoin:miter;stroke-miterlimit:4;stroke-dasharray:none;stroke-opacity:1;marker-end:url(#Arrow2Mend-3)"
       d="M 102.3855,214.80518 43.036064,268.86813"
       id="path1160-9" /><path
       id="path1160-9-8"
       d="m 158.914,262.09305 32.27931,44.58412"
       style="fill:none;stroke:#000000;stroke-width:2.59333;stroke-linecap:butt;stroke-linejoin:miter;stroke-miterlimit:4;stroke-dasharray:none;stroke-opacity:1;marker-end:url(#Arrow2Mend-3-5)"
       sodipodi:nodetypes="cc" /><path
       sodipodi:nodetypes="cc"
       style="fill:none;stroke:#000000;stroke-width:2.59333;stroke-linecap:butt;stroke-linejoin:miter;stroke-miterlimit:4;stroke-dasharray:none;stroke-opacity:1;marker-end:url(#Arrow2Mend-3-5-1)"
       d="M 78.184816,253.87736 43.50587,293.92945"
       id="path1160-9-8-7" /><path
       sodipodi:nodetypes="cc"
       id="path1836"
       d="M 158.914,262.09305 144.00952,241.31616"
       style="fill:none;stroke:#000000;stroke-width:2.83465;stroke-linecap:butt;stroke-linejoin:miter;stroke-miterlimit:4;stroke-dasharray:2.83465, 2.83465;stroke-dashoffset:0;stroke-opacity:1" /><path
       sodipodi:nodetypes="cc"
       style="fill:none;stroke:#000000;stroke-width:2.83465;stroke-linecap:butt;stroke-linejoin:miter;stroke-miterlimit:4;stroke-dasharray:2.83465, 2.83465;stroke-dashoffset:0;stroke-opacity:1"
       d="M 76.684816,255.37736 91.998527,238.93097"
       id="path1836-8" /><ellipse
       ry="96.967239"
       rx="95.914024"
       transform="scale(1,-1)"
       cy="-234.12863"
       cx="459.27039"
       id="path1871"
       style="fill:none;fill-opacity:0.991202;fill-rule:evenodd;stroke:#000000;stroke-width:2.8367;stroke-miterlimit:4;stroke-dasharray:none;stroke-dashoffset:0" /><path
       sodipodi:nodetypes="cccccscsc"
       inkscape:original-d="m 511.60623,192.84423 c 0,0 2.93892,30.38474 4.51196,46.66104 -1.93241,11.91652 -5.54213,34.16593 -5.54213,34.16593 0,0 -33.79378,8.70815 -50.69225,13.06344 -17.22838,-4.69025 -51.68622,-14.06832 -51.68622,-14.06832 0,0 -3.64383,-22.44304 -5.46681,-33.66349 1.6483,-15.88688 4.94268,-47.6586 4.94268,-47.6586 0,0 34.8077,-6.03004 52.21035,-9.04392 17.24151,3.51388 51.72242,10.54392 51.72242,10.54392 z"
       inkscape:path-effect="#path-effect1915"
       id="path1913"
       d="m 511.60623,192.84423 c 1.50399,15.55368 2.93811,30.38482 2.75854,44.48114 -0.17957,14.09633 -1.94133,24.95719 -3.78871,36.34583 -16.89742,4.35448 -33.79365,8.70866 -50.85725,8.54135 -17.06361,-0.16731 -34.29248,-4.85679 -51.52122,-9.54623 -1.82227,-11.22116 -3.64463,-22.44291 -3.7319,-35.99667 -0.0873,-13.55377 1.56021,-29.43922 3.20777,-45.32542 17.40345,-3.01464 34.8078,-6.02944 52.12974,-5.7793 17.32194,0.25013 34.56222,3.76466 51.80303,7.2793 z"
       style="fill:#050480;fill-opacity:0.16;stroke:#000000;stroke-width:2.68986;stroke-linecap:butt;stroke-linejoin:miter;stroke-miterlimit:4;stroke-dasharray:none;stroke-opacity:1" /><ellipse
       transform="scale(1,-1)"
       style="fill:#050403;fill-opacity:0.991202;fill-rule:evenodd;stroke:#000000;stroke-width:1.81793;stroke-miterlimit:4;stroke-dasharray:none;stroke-dashoffset:0"
       id="path1158-4"
       cx="407.68546"
       cy="-193.35088"
       rx="4.7160344"
       ry="4.7160339" /><ellipse
       transform="scale(1,-1)"
       style="fill:#050403;fill-opacity:0.991202;fill-rule:evenodd;stroke:#000000;stroke-width:1.81793;stroke-miterlimit:4;stroke-dasharray:none;stroke-dashoffset:0"
       id="path1158-5"
       cx="512.27191"
       cy="-195.64893"
       rx="4.7160344"
       ry="4.7160339" /><ellipse
       transform="scale(1,-1)"
       style="fill:#050403;fill-opacity:0.991202;fill-rule:evenodd;stroke:#000000;stroke-width:1.81793;stroke-miterlimit:4;stroke-dasharray:none;stroke-dashoffset:0"
       id="path1158-8"
       cx="510.0379"
       cy="-272.50079"
       rx="4.7160344"
       ry="4.7160339" /><ellipse
       transform="scale(1,-1)"
       style="fill:#050403;fill-opacity:0.991202;fill-rule:evenodd;stroke:#000000;stroke-width:1.81793;stroke-miterlimit:4;stroke-dasharray:none;stroke-dashoffset:0"
       id="path1158-6"
       cx="408.93033"
       cy="-273.55399"
       rx="4.7160344"
       ry="4.7160339" /><g
       transform="matrix(2.6764416,0,0,-2.6821618,18.047349,250.21378)"
       ns2:version="1.0.0"
       ns2:texconverter="pdflatex"
       ns2:pdfconverter="inkscape"
       ns2:text="$N_1$"
       ns2:preamble="/Users/bm/Library/Application Support/org.inkscape.Inkscape/config/inkscape/extensions/textext/default_packages.tex"
       ns2:scale="2.2969140018466327"
       ns2:alignment="middle center"
       ns2:inkscapeversion="1.0"
       ns2:jacobian_sqrt="3.06254"
       id="g2017"><defs
   id="id-04dc8211-871a-4c68-9da6-23744f9090e9">
    <g
   id="id-6fbe8245-dae6-4d7d-ba66-68e34137e11d">
      <symbol
   id="id-7714a212-5d35-49e9-8b64-ae545d5af8cc"
   overflow="visible">
        <path
   id="id-cd1b42b9-286d-4cc0-ad2e-7a8d8da1e7cb"
   d=""
   style="stroke:none" />
      </symbol>
      <symbol
   id="id-0ff146bf-4a1d-4cd1-8772-a1f6664928c0"
   overflow="visible">
        <path
   id="id-815ce60b-8666-4c35-a92d-eb425b3e6d41"
   d="M 7.53125,-5.765625 C 7.640625,-6.15625 7.8125,-6.46875 8.609375,-6.5 c 0.046875,0 0.171875,-0.015625 0.171875,-0.203125 0,0 0,-0.109375 -0.125,-0.109375 -0.328125,0 -0.6875,0.03125 -1.015625,0.03125 -0.328125,0 -0.6875,-0.03125 -1.015625,-0.03125 -0.0625,0 -0.171875,0 -0.171875,0.203125 C 6.453125,-6.5 6.546875,-6.5 6.625,-6.5 c 0.578125,0.015625 0.6875,0.21875 0.6875,0.4375 0,0.03125 -0.03125,0.1875 -0.03125,0.203125 l -1.125,4.4375 L 3.953125,-6.625 C 3.875,-6.796875 3.875,-6.8125 3.640625,-6.8125 h -1.34375 c -0.1875,0 -0.28125,0 -0.28125,0.203125 0,0.109375 0.09375,0.109375 0.28125,0.109375 0.046875,0 0.671875,0 0.671875,0.09375 L 1.640625,-1.0625 c -0.109375,0.40625 -0.28125,0.71875 -1.078125,0.75 -0.0625,0 -0.171875,0.015625 -0.171875,0.203125 0,0.0625 0.046875,0.109375 0.125,0.109375 0.328125,0 0.671875,-0.03125 1,-0.03125 C 1.859375,-0.03125 2.21875,0 2.546875,0 2.59375,0 2.71875,0 2.71875,-0.203125 2.71875,-0.296875 2.625,-0.3125 2.515625,-0.3125 1.9375,-0.328125 1.859375,-0.546875 1.859375,-0.75 c 0,-0.0625 0.015625,-0.125 0.046875,-0.234375 l 1.3125,-5.25 C 3.265625,-6.1875 3.265625,-6.15625 3.3125,-6.0625 l 2.484375,5.875 C 5.859375,-0.015625 5.890625,0 5.984375,0 6.09375,0 6.09375,-0.03125 6.140625,-0.203125 Z m 0,0"
   style="stroke:none" />
      </symbol>
      <symbol
   id="id-83470379-d3d4-4301-9a7f-b1b65ca6c48b"
   overflow="visible">
        <path
   id="id-31df75bd-ede8-461e-98fe-05fbb81dd61b"
   d=""
   style="stroke:none" />
      </symbol>
      <symbol
   id="id-d2cb83aa-fa7d-4a50-a7c4-0df9131793da"
   overflow="visible">
        <path
   id="id-14c31771-4c42-4793-940e-ac2c611fe0e9"
   d="m 2.328125,-4.4375 c 0,-0.1875 0,-0.1875 -0.203125,-0.1875 -0.453125,0.4375 -1.078125,0.4375 -1.359375,0.4375 v 0.25 c 0.15625,0 0.625,0 1,-0.1875 v 3.546875 c 0,0.234375 0,0.328125 -0.6875,0.328125 H 0.8125 V 0 c 0.125,0 0.984375,-0.03125 1.234375,-0.03125 0.21875,0 1.09375,0.03125 1.25,0.03125 V -0.25 H 3.03125 c -0.703125,0 -0.703125,-0.09375 -0.703125,-0.328125 z m 0,0"
   style="stroke:none" />
      </symbol>
    </g>
  </defs>
  <g
   transform="translate(-149.103,-127.953)"
   id="id-30ee3f20-43a7-478e-862e-cd0e265b3417">
    <g
   id="id-8aa559d7-c319-4df5-9651-f57100247443"
   style="fill:#000000;fill-opacity:1">
      <g
   transform="translate(148.712,134.765)"
   id="g2009"><path
   id="id-d895ca97-356a-4714-92db-23a7d5108656"
   d="M 7.53125,-5.765625 C 7.640625,-6.15625 7.8125,-6.46875 8.609375,-6.5 c 0.046875,0 0.171875,-0.015625 0.171875,-0.203125 0,0 0,-0.109375 -0.125,-0.109375 -0.328125,0 -0.6875,0.03125 -1.015625,0.03125 -0.328125,0 -0.6875,-0.03125 -1.015625,-0.03125 -0.0625,0 -0.171875,0 -0.171875,0.203125 C 6.453125,-6.5 6.546875,-6.5 6.625,-6.5 c 0.578125,0.015625 0.6875,0.21875 0.6875,0.4375 0,0.03125 -0.03125,0.1875 -0.03125,0.203125 l -1.125,4.4375 L 3.953125,-6.625 C 3.875,-6.796875 3.875,-6.8125 3.640625,-6.8125 h -1.34375 c -0.1875,0 -0.28125,0 -0.28125,0.203125 0,0.109375 0.09375,0.109375 0.28125,0.109375 0.046875,0 0.671875,0 0.671875,0.09375 L 1.640625,-1.0625 c -0.109375,0.40625 -0.28125,0.71875 -1.078125,0.75 -0.0625,0 -0.171875,0.015625 -0.171875,0.203125 0,0.0625 0.046875,0.109375 0.125,0.109375 0.328125,0 0.671875,-0.03125 1,-0.03125 C 1.859375,-0.03125 2.21875,0 2.546875,0 2.59375,0 2.71875,0 2.71875,-0.203125 2.71875,-0.296875 2.625,-0.3125 2.515625,-0.3125 1.9375,-0.328125 1.859375,-0.546875 1.859375,-0.75 c 0,-0.0625 0.015625,-0.125 0.046875,-0.234375 l 1.3125,-5.25 C 3.265625,-6.1875 3.265625,-6.15625 3.3125,-6.0625 l 2.484375,5.875 C 5.859375,-0.015625 5.890625,0 5.984375,0 6.09375,0 6.09375,-0.03125 6.140625,-0.203125 Z m 0,0"
   style="stroke:none" />
      </g></g>
    <g
   id="id-5b99ee0c-8819-4a19-83c7-0178dbc0b63a"
   style="fill:#000000;fill-opacity:1">
      <g
   transform="translate(156.717,136.259)"
   id="g2013"><path
   id="id-2e0edeef-6399-489e-90ab-3d23bbf6e085"
   d="m 2.328125,-4.4375 c 0,-0.1875 0,-0.1875 -0.203125,-0.1875 -0.453125,0.4375 -1.078125,0.4375 -1.359375,0.4375 v 0.25 c 0.15625,0 0.625,0 1,-0.1875 v 3.546875 c 0,0.234375 0,0.328125 -0.6875,0.328125 H 0.8125 V 0 c 0.125,0 0.984375,-0.03125 1.234375,-0.03125 0.21875,0 1.09375,0.03125 1.25,0.03125 V -0.25 H 3.03125 c -0.703125,0 -0.703125,-0.09375 -0.703125,-0.328125 z m 0,0"
   style="stroke:none" />
      </g></g>
  </g>
</g><g
       transform="matrix(3.06254,0,0,-3.06254,401.95295,179.76428)"
       ns2:version="1.0.0"
       ns2:texconverter="pdflatex"
       ns2:pdfconverter="inkscape"
       ns2:text="$v_1$"
       ns2:preamble="/Users/bm/Library/Application Support/org.inkscape.Inkscape/config/inkscape/extensions/textext/default_packages.tex"
       ns2:scale="2.2969140018466327"
       ns2:alignment="middle center"
       ns2:inkscapeversion="1.0"
       ns2:jacobian_sqrt="3.06254"
       id="g2118"><defs
   id="id-70d19ebb-eb72-4a28-8370-51c85d427c35">
    <g
   id="id-c2750eb8-cba0-42dc-bb7e-c06e1e46bce0">
      <symbol
   id="id-c6b8bc0a-3a05-4d3f-94c0-bfc30aeba992"
   overflow="visible">
        <path
   id="id-33acd8a0-7ca4-4353-ba32-f2262c322761"
   d=""
   style="stroke:none" />
      </symbol>
      <symbol
   id="id-015e8dcf-8ded-4d0a-a2a3-7370e3ff7db3"
   overflow="visible">
        <path
   id="id-2cc74df8-b30e-48de-b4fe-cd231e8ca525"
   d="m 4.671875,-3.703125 c 0,-0.546875 -0.265625,-0.703125 -0.4375,-0.703125 -0.25,0 -0.5,0.265625 -0.5,0.484375 0,0.125 0.046875,0.1875 0.15625,0.296875 0.21875,0.203125 0.34375,0.453125 0.34375,0.8125 0,0.421875 -0.609375,2.703125 -1.765625,2.703125 -0.515625,0 -0.75,-0.34375 -0.75,-0.875 0,-0.546875 0.28125,-1.28125 0.578125,-2.109375 0.078125,-0.171875 0.125,-0.3125 0.125,-0.5 0,-0.4375 -0.3125,-0.8125 -0.8125,-0.8125 -0.9375,0 -1.3125,1.453125 -1.3125,1.53125 0,0.109375 0.09375,0.109375 0.109375,0.109375 0.109375,0 0.109375,-0.03125 0.15625,-0.1875 0.296875,-1 0.71875,-1.234375 1.015625,-1.234375 0.078125,0 0.25,0 0.25,0.3125 0,0.25 -0.109375,0.53125 -0.171875,0.703125 -0.4375,1.15625 -0.5625,1.609375 -0.5625,2.046875 0,1.078125 0.875,1.234375 1.328125,1.234375 1.671875,0 2.25,-3.296875 2.25,-3.8125 z m 0,0"
   style="stroke:none" />
      </symbol>
      <symbol
   id="id-b7623283-2c8c-46bc-8bba-844aa34a7599"
   overflow="visible">
        <path
   id="id-e07ee9f8-2f22-4673-83d5-7124d0441cd5"
   d=""
   style="stroke:none" />
      </symbol>
      <symbol
   id="id-fcbd7642-f4e8-4497-891d-8335984c5dea"
   overflow="visible">
        <path
   id="id-ac648e54-6d25-454f-a976-b079d8fd1930"
   d="m 2.328125,-4.4375 c 0,-0.1875 0,-0.1875 -0.203125,-0.1875 -0.453125,0.4375 -1.078125,0.4375 -1.359375,0.4375 v 0.25 c 0.15625,0 0.625,0 1,-0.1875 v 3.546875 c 0,0.234375 0,0.328125 -0.6875,0.328125 H 0.8125 V 0 c 0.125,0 0.984375,-0.03125 1.234375,-0.03125 0.21875,0 1.09375,0.03125 1.25,0.03125 V -0.25 H 3.03125 c -0.703125,0 -0.703125,-0.09375 -0.703125,-0.328125 z m 0,0"
   style="stroke:none" />
      </symbol>
    </g>
  </defs>
  <g
   transform="translate(-149.009,-130.359)"
   id="id-55e9c19e-12c7-45c9-ba66-b52fffc9b939">
    <g
   id="id-e3b8cca8-706d-4dde-b6e4-66b37b766edf"
   style="fill:#000000;fill-opacity:1">
      <g
   transform="translate(148.712,134.765)"
   id="g2110"><path
   id="id-3d8be00a-6953-44b1-b424-b0d9e9b87f04"
   d="m 4.671875,-3.703125 c 0,-0.546875 -0.265625,-0.703125 -0.4375,-0.703125 -0.25,0 -0.5,0.265625 -0.5,0.484375 0,0.125 0.046875,0.1875 0.15625,0.296875 0.21875,0.203125 0.34375,0.453125 0.34375,0.8125 0,0.421875 -0.609375,2.703125 -1.765625,2.703125 -0.515625,0 -0.75,-0.34375 -0.75,-0.875 0,-0.546875 0.28125,-1.28125 0.578125,-2.109375 0.078125,-0.171875 0.125,-0.3125 0.125,-0.5 0,-0.4375 -0.3125,-0.8125 -0.8125,-0.8125 -0.9375,0 -1.3125,1.453125 -1.3125,1.53125 0,0.109375 0.09375,0.109375 0.109375,0.109375 0.109375,0 0.109375,-0.03125 0.15625,-0.1875 0.296875,-1 0.71875,-1.234375 1.015625,-1.234375 0.078125,0 0.25,0 0.25,0.3125 0,0.25 -0.109375,0.53125 -0.171875,0.703125 -0.4375,1.15625 -0.5625,1.609375 -0.5625,2.046875 0,1.078125 0.875,1.234375 1.328125,1.234375 1.671875,0 2.25,-3.296875 2.25,-3.8125 z m 0,0"
   style="stroke:none" />
      </g></g>
    <g
   id="id-aa5bb02e-bce2-4ada-9a30-91cf425da0aa"
   style="fill:#000000;fill-opacity:1">
      <g
   transform="translate(153.541,136.259)"
   id="g2114"><path
   id="id-0fcc2a24-cde1-424d-8697-d95194f34005"
   d="m 2.328125,-4.4375 c 0,-0.1875 0,-0.1875 -0.203125,-0.1875 -0.453125,0.4375 -1.078125,0.4375 -1.359375,0.4375 v 0.25 c 0.15625,0 0.625,0 1,-0.1875 v 3.546875 c 0,0.234375 0,0.328125 -0.6875,0.328125 H 0.8125 V 0 c 0.125,0 0.984375,-0.03125 1.234375,-0.03125 0.21875,0 1.09375,0.03125 1.25,0.03125 V -0.25 H 3.03125 c -0.703125,0 -0.703125,-0.09375 -0.703125,-0.328125 z m 0,0"
   style="stroke:none" />
      </g></g>
  </g>
</g><g
       transform="matrix(2.6133572,0,0,-2.6636282,140.23333,313.7826)"
       ns2:version="1.0.0"
       ns2:texconverter="pdflatex"
       ns2:pdfconverter="inkscape"
       ns2:text="$N_3$"
       ns2:preamble="/Users/bm/Library/Application Support/org.inkscape.Inkscape/config/inkscape/extensions/textext/default_packages.tex"
       ns2:scale="2.2969140018466327"
       ns2:alignment="middle center"
       ns2:inkscapeversion="1.0"
       ns2:jacobian_sqrt="3.06254"
       id="g2356"><defs
   id="id-e600158a-7ee8-45bc-8bf3-a04c03a8f234">
    <g
   id="id-5b524c95-283c-458e-b873-8c960ff26212">
      <symbol
   id="id-d6c1a250-cc48-41d0-8cbd-70b1ca77405d"
   overflow="visible">
        <path
   id="id-31f6c9a4-9908-43d3-8d3c-51081307e45d"
   d=""
   style="stroke:none" />
      </symbol>
      <symbol
   id="id-a375ca13-2ae7-452f-88c3-18b76144ae2c"
   overflow="visible">
        <path
   id="id-4842f002-4dd7-460b-8faa-380219a388dd"
   d="M 7.53125,-5.765625 C 7.640625,-6.15625 7.8125,-6.46875 8.609375,-6.5 c 0.046875,0 0.171875,-0.015625 0.171875,-0.203125 0,0 0,-0.109375 -0.125,-0.109375 -0.328125,0 -0.6875,0.03125 -1.015625,0.03125 -0.328125,0 -0.6875,-0.03125 -1.015625,-0.03125 -0.0625,0 -0.171875,0 -0.171875,0.203125 C 6.453125,-6.5 6.546875,-6.5 6.625,-6.5 c 0.578125,0.015625 0.6875,0.21875 0.6875,0.4375 0,0.03125 -0.03125,0.1875 -0.03125,0.203125 l -1.125,4.4375 L 3.953125,-6.625 C 3.875,-6.796875 3.875,-6.8125 3.640625,-6.8125 h -1.34375 c -0.1875,0 -0.28125,0 -0.28125,0.203125 0,0.109375 0.09375,0.109375 0.28125,0.109375 0.046875,0 0.671875,0 0.671875,0.09375 L 1.640625,-1.0625 c -0.109375,0.40625 -0.28125,0.71875 -1.078125,0.75 -0.0625,0 -0.171875,0.015625 -0.171875,0.203125 0,0.0625 0.046875,0.109375 0.125,0.109375 0.328125,0 0.671875,-0.03125 1,-0.03125 C 1.859375,-0.03125 2.21875,0 2.546875,0 2.59375,0 2.71875,0 2.71875,-0.203125 2.71875,-0.296875 2.625,-0.3125 2.515625,-0.3125 1.9375,-0.328125 1.859375,-0.546875 1.859375,-0.75 c 0,-0.0625 0.015625,-0.125 0.046875,-0.234375 l 1.3125,-5.25 C 3.265625,-6.1875 3.265625,-6.15625 3.3125,-6.0625 l 2.484375,5.875 C 5.859375,-0.015625 5.890625,0 5.984375,0 6.09375,0 6.09375,-0.03125 6.140625,-0.203125 Z m 0,0"
   style="stroke:none" />
      </symbol>
      <symbol
   id="id-e8d8ff2f-6ef6-48cd-a9da-594202b34509"
   overflow="visible">
        <path
   id="id-2d4f24bb-435b-4496-9762-32e4f0baae9a"
   d=""
   style="stroke:none" />
      </symbol>
      <symbol
   id="id-8d57d838-89b6-4fb2-b568-cad7883c6957"
   overflow="visible">
        <path
   id="id-e275e0de-2f2f-4cd2-9e82-d1a6db165512"
   d="m 1.90625,-2.328125 c 0.546875,0 0.9375,0.375 0.9375,1.125 0,0.859375 -0.515625,1.125 -0.90625,1.125 -0.28125,0 -0.90625,-0.078125 -1.1875,-0.5 0.328125,0 0.40625,-0.234375 0.40625,-0.390625 0,-0.21875 -0.171875,-0.375 -0.390625,-0.375 -0.1875,0 -0.390625,0.125 -0.390625,0.40625 0,0.65625 0.71875,1.078125 1.5625,1.078125 0.96875,0 1.640625,-0.65625 1.640625,-1.34375 0,-0.546875 -0.4375,-1.09375 -1.203125,-1.25 0.71875,-0.265625 0.984375,-0.78125 0.984375,-1.21875 0,-0.546875 -0.625,-0.953125 -1.40625,-0.953125 -0.765625,0 -1.359375,0.375 -1.359375,0.9375 0,0.234375 0.15625,0.359375 0.359375,0.359375 0.21875,0 0.359375,-0.15625 0.359375,-0.34375 0,-0.203125 -0.140625,-0.359375 -0.359375,-0.375 0.25,-0.296875 0.71875,-0.375 0.984375,-0.375 0.3125,0 0.75,0.15625 0.75,0.75 0,0.296875 -0.09375,0.625 -0.28125,0.828125 -0.21875,0.265625 -0.421875,0.28125 -0.765625,0.3125 -0.171875,0.015625 -0.1875,0.015625 -0.21875,0.015625 -0.015625,0 -0.078125,0.015625 -0.078125,0.09375 0,0.09375 0.0625,0.09375 0.1875,0.09375 z m 0,0"
   style="stroke:none" />
      </symbol>
    </g>
  </defs>
  <g
   transform="translate(-149.103,-127.953)"
   id="id-7214c1f5-bcf4-4c7f-8b00-1a5b0887c690">
    <g
   id="id-7cabf970-f15a-482d-8da9-07dab376ef98"
   style="fill:#000000;fill-opacity:1">
      <g
   transform="translate(148.712,134.765)"
   id="g2348"><path
   id="id-14bae30a-dc6d-4963-836b-a36d60ca67ba"
   d="M 7.53125,-5.765625 C 7.640625,-6.15625 7.8125,-6.46875 8.609375,-6.5 c 0.046875,0 0.171875,-0.015625 0.171875,-0.203125 0,0 0,-0.109375 -0.125,-0.109375 -0.328125,0 -0.6875,0.03125 -1.015625,0.03125 -0.328125,0 -0.6875,-0.03125 -1.015625,-0.03125 -0.0625,0 -0.171875,0 -0.171875,0.203125 C 6.453125,-6.5 6.546875,-6.5 6.625,-6.5 c 0.578125,0.015625 0.6875,0.21875 0.6875,0.4375 0,0.03125 -0.03125,0.1875 -0.03125,0.203125 l -1.125,4.4375 L 3.953125,-6.625 C 3.875,-6.796875 3.875,-6.8125 3.640625,-6.8125 h -1.34375 c -0.1875,0 -0.28125,0 -0.28125,0.203125 0,0.109375 0.09375,0.109375 0.28125,0.109375 0.046875,0 0.671875,0 0.671875,0.09375 L 1.640625,-1.0625 c -0.109375,0.40625 -0.28125,0.71875 -1.078125,0.75 -0.0625,0 -0.171875,0.015625 -0.171875,0.203125 0,0.0625 0.046875,0.109375 0.125,0.109375 0.328125,0 0.671875,-0.03125 1,-0.03125 C 1.859375,-0.03125 2.21875,0 2.546875,0 2.59375,0 2.71875,0 2.71875,-0.203125 2.71875,-0.296875 2.625,-0.3125 2.515625,-0.3125 1.9375,-0.328125 1.859375,-0.546875 1.859375,-0.75 c 0,-0.0625 0.015625,-0.125 0.046875,-0.234375 l 1.3125,-5.25 C 3.265625,-6.1875 3.265625,-6.15625 3.3125,-6.0625 l 2.484375,5.875 C 5.859375,-0.015625 5.890625,0 5.984375,0 6.09375,0 6.09375,-0.03125 6.140625,-0.203125 Z m 0,0"
   style="stroke:none" />
      </g></g>
    <g
   id="id-a0a5cb53-859c-4c4a-aa61-b358acb4ecc1"
   style="fill:#000000;fill-opacity:1">
      <g
   transform="translate(156.717,136.259)"
   id="g2352"><path
   id="id-f3528aa8-30bc-41c2-b0b3-fe1a771a8088"
   d="m 1.90625,-2.328125 c 0.546875,0 0.9375,0.375 0.9375,1.125 0,0.859375 -0.515625,1.125 -0.90625,1.125 -0.28125,0 -0.90625,-0.078125 -1.1875,-0.5 0.328125,0 0.40625,-0.234375 0.40625,-0.390625 0,-0.21875 -0.171875,-0.375 -0.390625,-0.375 -0.1875,0 -0.390625,0.125 -0.390625,0.40625 0,0.65625 0.71875,1.078125 1.5625,1.078125 0.96875,0 1.640625,-0.65625 1.640625,-1.34375 0,-0.546875 -0.4375,-1.09375 -1.203125,-1.25 0.71875,-0.265625 0.984375,-0.78125 0.984375,-1.21875 0,-0.546875 -0.625,-0.953125 -1.40625,-0.953125 -0.765625,0 -1.359375,0.375 -1.359375,0.9375 0,0.234375 0.15625,0.359375 0.359375,0.359375 0.21875,0 0.359375,-0.15625 0.359375,-0.34375 0,-0.203125 -0.140625,-0.359375 -0.359375,-0.375 0.25,-0.296875 0.71875,-0.375 0.984375,-0.375 0.3125,0 0.75,0.15625 0.75,0.75 0,0.296875 -0.09375,0.625 -0.28125,0.828125 -0.21875,0.265625 -0.421875,0.28125 -0.765625,0.3125 -0.171875,0.015625 -0.1875,0.015625 -0.21875,0.015625 -0.015625,0 -0.078125,0.015625 -0.078125,0.09375 0,0.09375 0.0625,0.09375 0.1875,0.09375 z m 0,0"
   style="stroke:none" />
      </g></g>
  </g>
</g><g
       transform="matrix(2.62803 0 0 -2.70872 216.768 264.959)"
       ns2:version="1.0.0"
       ns2:texconverter="pdflatex"
       ns2:pdfconverter="inkscape"
       ns2:text="$N_2$"
       ns2:preamble="/Users/bm/Library/Application Support/org.inkscape.Inkscape/config/inkscape/extensions/textext/default_packages.tex"
       ns2:scale="2.2969140018466327"
       ns2:alignment="middle center"
       ns2:inkscapeversion="1.0"
       ns2:jacobian_sqrt="3.06254"
       id="g2511"><defs
   id="id-c4b83f49-9983-43ee-b36a-014bfe3ef5a8">
    <g
   id="id-d4783fad-01c4-419b-b8d8-07e457898b80">
      <symbol
   id="id-89142148-acfc-40c8-b2ca-106767585091"
   overflow="visible">
        <path
   id="id-94768cf4-f92d-4743-ae71-2668276fca56"
   d=""
   style="stroke:none" />
      </symbol>
      <symbol
   id="id-24130f3f-f3ac-47c4-a675-404e03ce77ce"
   overflow="visible">
        <path
   id="id-db19653f-1de6-4dc9-b0b3-36989c9dd463"
   d="M 7.53125,-5.765625 C 7.640625,-6.15625 7.8125,-6.46875 8.609375,-6.5 c 0.046875,0 0.171875,-0.015625 0.171875,-0.203125 0,0 0,-0.109375 -0.125,-0.109375 -0.328125,0 -0.6875,0.03125 -1.015625,0.03125 -0.328125,0 -0.6875,-0.03125 -1.015625,-0.03125 -0.0625,0 -0.171875,0 -0.171875,0.203125 C 6.453125,-6.5 6.546875,-6.5 6.625,-6.5 c 0.578125,0.015625 0.6875,0.21875 0.6875,0.4375 0,0.03125 -0.03125,0.1875 -0.03125,0.203125 l -1.125,4.4375 L 3.953125,-6.625 C 3.875,-6.796875 3.875,-6.8125 3.640625,-6.8125 h -1.34375 c -0.1875,0 -0.28125,0 -0.28125,0.203125 0,0.109375 0.09375,0.109375 0.28125,0.109375 0.046875,0 0.671875,0 0.671875,0.09375 L 1.640625,-1.0625 c -0.109375,0.40625 -0.28125,0.71875 -1.078125,0.75 -0.0625,0 -0.171875,0.015625 -0.171875,0.203125 0,0.0625 0.046875,0.109375 0.125,0.109375 0.328125,0 0.671875,-0.03125 1,-0.03125 C 1.859375,-0.03125 2.21875,0 2.546875,0 2.59375,0 2.71875,0 2.71875,-0.203125 2.71875,-0.296875 2.625,-0.3125 2.515625,-0.3125 1.9375,-0.328125 1.859375,-0.546875 1.859375,-0.75 c 0,-0.0625 0.015625,-0.125 0.046875,-0.234375 l 1.3125,-5.25 C 3.265625,-6.1875 3.265625,-6.15625 3.3125,-6.0625 l 2.484375,5.875 C 5.859375,-0.015625 5.890625,0 5.984375,0 6.09375,0 6.09375,-0.03125 6.140625,-0.203125 Z m 0,0"
   style="stroke:none" />
      </symbol>
      <symbol
   id="id-7ee5543d-38ad-42d4-972f-560220c55d7b"
   overflow="visible">
        <path
   id="id-e565af4a-4da7-4138-aee7-d29ea560f119"
   d=""
   style="stroke:none" />
      </symbol>
      <symbol
   id="id-74771945-a457-4621-a44d-cb4dcae133d6"
   overflow="visible">
        <path
   id="id-c4b15e91-60b3-4196-8b6f-acdfd9a8bf11"
   d="M 3.515625,-1.265625 H 3.28125 c -0.015625,0.15625 -0.09375,0.5625 -0.1875,0.625 C 3.046875,-0.59375 2.515625,-0.59375 2.40625,-0.59375 H 1.125 c 0.734375,-0.640625 0.984375,-0.84375 1.390625,-1.171875 0.515625,-0.40625 1,-0.84375 1,-1.5 0,-0.84375 -0.734375,-1.359375 -1.625,-1.359375 -0.859375,0 -1.453125,0.609375 -1.453125,1.25 0,0.34375 0.296875,0.390625 0.375,0.390625 0.15625,0 0.359375,-0.125 0.359375,-0.375 0,-0.125 -0.046875,-0.375 -0.40625,-0.375 C 0.984375,-4.21875 1.453125,-4.375 1.78125,-4.375 c 0.703125,0 1.0625,0.546875 1.0625,1.109375 0,0.609375 -0.4375,1.078125 -0.65625,1.328125 L 0.515625,-0.265625 C 0.4375,-0.203125 0.4375,-0.1875 0.4375,0 h 2.875 z m 0,0"
   style="stroke:none" />
      </symbol>
    </g>
  </defs>
  <g
   transform="translate(-149.103,-127.953)"
   id="id-307d609f-8488-4520-866a-92b190f4a132">
    <g
   id="id-92e5bcda-f222-4145-b22a-a025bec626ea"
   style="fill:#000000;fill-opacity:1">
      <g
   transform="translate(148.712,134.765)"
   id="g2503"><path
   id="id-3085ee66-10dc-47b7-8734-84b0c229e6e9"
   d="M 7.53125,-5.765625 C 7.640625,-6.15625 7.8125,-6.46875 8.609375,-6.5 c 0.046875,0 0.171875,-0.015625 0.171875,-0.203125 0,0 0,-0.109375 -0.125,-0.109375 -0.328125,0 -0.6875,0.03125 -1.015625,0.03125 -0.328125,0 -0.6875,-0.03125 -1.015625,-0.03125 -0.0625,0 -0.171875,0 -0.171875,0.203125 C 6.453125,-6.5 6.546875,-6.5 6.625,-6.5 c 0.578125,0.015625 0.6875,0.21875 0.6875,0.4375 0,0.03125 -0.03125,0.1875 -0.03125,0.203125 l -1.125,4.4375 L 3.953125,-6.625 C 3.875,-6.796875 3.875,-6.8125 3.640625,-6.8125 h -1.34375 c -0.1875,0 -0.28125,0 -0.28125,0.203125 0,0.109375 0.09375,0.109375 0.28125,0.109375 0.046875,0 0.671875,0 0.671875,0.09375 L 1.640625,-1.0625 c -0.109375,0.40625 -0.28125,0.71875 -1.078125,0.75 -0.0625,0 -0.171875,0.015625 -0.171875,0.203125 0,0.0625 0.046875,0.109375 0.125,0.109375 0.328125,0 0.671875,-0.03125 1,-0.03125 C 1.859375,-0.03125 2.21875,0 2.546875,0 2.59375,0 2.71875,0 2.71875,-0.203125 2.71875,-0.296875 2.625,-0.3125 2.515625,-0.3125 1.9375,-0.328125 1.859375,-0.546875 1.859375,-0.75 c 0,-0.0625 0.015625,-0.125 0.046875,-0.234375 l 1.3125,-5.25 C 3.265625,-6.1875 3.265625,-6.15625 3.3125,-6.0625 l 2.484375,5.875 C 5.859375,-0.015625 5.890625,0 5.984375,0 6.09375,0 6.09375,-0.03125 6.140625,-0.203125 Z m 0,0"
   style="stroke:none" />
      </g></g>
    <g
   id="id-11890021-0b2c-4651-9ac2-cb978ba1803b"
   style="fill:#000000;fill-opacity:1">
      <g
   transform="translate(156.717,136.259)"
   id="g2507"><path
   id="id-1219cb04-fdf7-411d-9eb0-6db950b29027"
   d="M 3.515625,-1.265625 H 3.28125 c -0.015625,0.15625 -0.09375,0.5625 -0.1875,0.625 C 3.046875,-0.59375 2.515625,-0.59375 2.40625,-0.59375 H 1.125 c 0.734375,-0.640625 0.984375,-0.84375 1.390625,-1.171875 0.515625,-0.40625 1,-0.84375 1,-1.5 0,-0.84375 -0.734375,-1.359375 -1.625,-1.359375 -0.859375,0 -1.453125,0.609375 -1.453125,1.25 0,0.34375 0.296875,0.390625 0.375,0.390625 0.15625,0 0.359375,-0.125 0.359375,-0.375 0,-0.125 -0.046875,-0.375 -0.40625,-0.375 C 0.984375,-4.21875 1.453125,-4.375 1.78125,-4.375 c 0.703125,0 1.0625,0.546875 1.0625,1.109375 0,0.609375 -0.4375,1.078125 -0.65625,1.328125 L 0.515625,-0.265625 C 0.4375,-0.203125 0.4375,-0.1875 0.4375,0 h 2.875 z m 0,0"
   style="stroke:none" />
      </g></g>
  </g>
</g><g
       transform="matrix(2.5880662,0,0,-2.7087222,55.364657,314.45921)"
       ns2:version="1.0.0"
       ns2:texconverter="pdflatex"
       ns2:pdfconverter="inkscape"
       ns2:text="$N_4$"
       ns2:preamble="/Users/bm/Library/Application Support/org.inkscape.Inkscape/config/inkscape/extensions/textext/default_packages.tex"
       ns2:scale="2.2969140018466327"
       ns2:alignment="middle center"
       ns2:inkscapeversion="1.0"
       ns2:jacobian_sqrt="3.06254"
       id="g2800"><defs
   id="id-ee2a0746-2a94-489d-9187-dcd6364e33cd">
    <g
   id="id-a22c6b0f-3322-4c84-9154-41371c6b9202">
      <symbol
   id="id-3c40f7a8-0b6f-43c8-b91c-f6d62d1a5e08"
   overflow="visible">
        <path
   id="id-285ac476-bee3-4e84-bcad-7581c8644ac0"
   d=""
   style="stroke:none" />
      </symbol>
      <symbol
   id="id-b19a9fbd-9664-4c9b-ab60-41a01c7c6ff1"
   overflow="visible">
        <path
   id="id-f04dccd8-2d19-4cd4-9935-e9b1cdcd4daa"
   d="M 7.53125,-5.765625 C 7.640625,-6.15625 7.8125,-6.46875 8.609375,-6.5 c 0.046875,0 0.171875,-0.015625 0.171875,-0.203125 0,0 0,-0.109375 -0.125,-0.109375 -0.328125,0 -0.6875,0.03125 -1.015625,0.03125 -0.328125,0 -0.6875,-0.03125 -1.015625,-0.03125 -0.0625,0 -0.171875,0 -0.171875,0.203125 C 6.453125,-6.5 6.546875,-6.5 6.625,-6.5 c 0.578125,0.015625 0.6875,0.21875 0.6875,0.4375 0,0.03125 -0.03125,0.1875 -0.03125,0.203125 l -1.125,4.4375 L 3.953125,-6.625 C 3.875,-6.796875 3.875,-6.8125 3.640625,-6.8125 h -1.34375 c -0.1875,0 -0.28125,0 -0.28125,0.203125 0,0.109375 0.09375,0.109375 0.28125,0.109375 0.046875,0 0.671875,0 0.671875,0.09375 L 1.640625,-1.0625 c -0.109375,0.40625 -0.28125,0.71875 -1.078125,0.75 -0.0625,0 -0.171875,0.015625 -0.171875,0.203125 0,0.0625 0.046875,0.109375 0.125,0.109375 0.328125,0 0.671875,-0.03125 1,-0.03125 C 1.859375,-0.03125 2.21875,0 2.546875,0 2.59375,0 2.71875,0 2.71875,-0.203125 2.71875,-0.296875 2.625,-0.3125 2.515625,-0.3125 1.9375,-0.328125 1.859375,-0.546875 1.859375,-0.75 c 0,-0.0625 0.015625,-0.125 0.046875,-0.234375 l 1.3125,-5.25 C 3.265625,-6.1875 3.265625,-6.15625 3.3125,-6.0625 l 2.484375,5.875 C 5.859375,-0.015625 5.890625,0 5.984375,0 6.09375,0 6.09375,-0.03125 6.140625,-0.203125 Z m 0,0"
   style="stroke:none" />
      </symbol>
      <symbol
   id="id-6e944306-cdac-4ae0-8309-69d36b649708"
   overflow="visible">
        <path
   id="id-26b916d8-ca3e-47de-a7b7-86000ef3fdb3"
   d=""
   style="stroke:none" />
      </symbol>
      <symbol
   id="id-9c5edb23-f29f-4a03-9f33-523a343637ac"
   overflow="visible">
        <path
   id="id-5024d70a-6d21-42ab-b591-9a23d1bb938b"
   d="m 3.6875,-1.140625 v -0.25 H 2.90625 V -4.5 c 0,-0.140625 0,-0.203125 -0.140625,-0.203125 -0.09375,0 -0.125,0 -0.1875,0.109375 l -2.3125,3.203125 v 0.25 h 2.0625 v 0.5625 c 0,0.25 0,0.328125 -0.578125,0.328125 H 1.5625 V 0 C 1.921875,-0.015625 2.359375,-0.03125 2.609375,-0.03125 2.875,-0.03125 3.3125,-0.015625 3.671875,0 v -0.25 h -0.1875 C 2.90625,-0.25 2.90625,-0.328125 2.90625,-0.578125 v -0.5625 z M 2.375,-3.9375 v 2.546875 H 0.53125 Z m 0,0"
   style="stroke:none" />
      </symbol>
    </g>
  </defs>
  <g
   transform="translate(-149.103,-127.953)"
   id="id-1c50008c-67f0-4226-8b66-678bba5803d7">
    <g
   id="id-0506fa26-f9bd-40f3-a748-1022abcdf4ec"
   style="fill:#000000;fill-opacity:1">
      <g
   transform="translate(148.712,134.765)"
   id="g2792"><path
   id="id-32286ffd-75a9-4095-8e78-c2e2131d59b1"
   d="M 7.53125,-5.765625 C 7.640625,-6.15625 7.8125,-6.46875 8.609375,-6.5 c 0.046875,0 0.171875,-0.015625 0.171875,-0.203125 0,0 0,-0.109375 -0.125,-0.109375 -0.328125,0 -0.6875,0.03125 -1.015625,0.03125 -0.328125,0 -0.6875,-0.03125 -1.015625,-0.03125 -0.0625,0 -0.171875,0 -0.171875,0.203125 C 6.453125,-6.5 6.546875,-6.5 6.625,-6.5 c 0.578125,0.015625 0.6875,0.21875 0.6875,0.4375 0,0.03125 -0.03125,0.1875 -0.03125,0.203125 l -1.125,4.4375 L 3.953125,-6.625 C 3.875,-6.796875 3.875,-6.8125 3.640625,-6.8125 h -1.34375 c -0.1875,0 -0.28125,0 -0.28125,0.203125 0,0.109375 0.09375,0.109375 0.28125,0.109375 0.046875,0 0.671875,0 0.671875,0.09375 L 1.640625,-1.0625 c -0.109375,0.40625 -0.28125,0.71875 -1.078125,0.75 -0.0625,0 -0.171875,0.015625 -0.171875,0.203125 0,0.0625 0.046875,0.109375 0.125,0.109375 0.328125,0 0.671875,-0.03125 1,-0.03125 C 1.859375,-0.03125 2.21875,0 2.546875,0 2.59375,0 2.71875,0 2.71875,-0.203125 2.71875,-0.296875 2.625,-0.3125 2.515625,-0.3125 1.9375,-0.328125 1.859375,-0.546875 1.859375,-0.75 c 0,-0.0625 0.015625,-0.125 0.046875,-0.234375 l 1.3125,-5.25 C 3.265625,-6.1875 3.265625,-6.15625 3.3125,-6.0625 l 2.484375,5.875 C 5.859375,-0.015625 5.890625,0 5.984375,0 6.09375,0 6.09375,-0.03125 6.140625,-0.203125 Z m 0,0"
   style="stroke:none" />
      </g></g>
    <g
   id="id-3b0302ca-5019-4ad6-9061-6c7adf0242e2"
   style="fill:#000000;fill-opacity:1">
      <g
   transform="translate(156.717,136.259)"
   id="g2796"><path
   id="id-ffed469c-1551-4775-8674-6f2bbc4d5d2d"
   d="m 3.6875,-1.140625 v -0.25 H 2.90625 V -4.5 c 0,-0.140625 0,-0.203125 -0.140625,-0.203125 -0.09375,0 -0.125,0 -0.1875,0.109375 l -2.3125,3.203125 v 0.25 h 2.0625 v 0.5625 c 0,0.25 0,0.328125 -0.578125,0.328125 H 1.5625 V 0 C 1.921875,-0.015625 2.359375,-0.03125 2.609375,-0.03125 2.875,-0.03125 3.3125,-0.015625 3.671875,0 v -0.25 h -0.1875 C 2.90625,-0.25 2.90625,-0.328125 2.90625,-0.578125 v -0.5625 z M 2.375,-3.9375 v 2.546875 H 0.53125 Z m 0,0"
   style="stroke:none" />
      </g></g>
  </g>
</g><g
       transform="matrix(3.06254,0,0,-3.06254,96.514751,343.41158)"
       ns2:version="1.0.0"
       ns2:texconverter="pdflatex"
       ns2:pdfconverter="inkscape"
       ns2:text="$v$"
       ns2:preamble="/Users/bm/Library/Application Support/org.inkscape.Inkscape/config/inkscape/extensions/textext/default_packages.tex"
       ns2:scale="2.2969140018466327"
       ns2:alignment="middle center"
       ns2:inkscapeversion="1.0"
       ns2:jacobian_sqrt="3.06254"
       id="g2965"><defs
   id="id-c74a8c4a-ec6e-42d9-8267-0f654b7cdf9d">
    <g
   id="id-dd21607a-0f2a-43ff-8362-12f50a3df461">
      <symbol
   id="id-97eeb445-ae40-4482-ba06-2a106974acc1"
   overflow="visible">
        <path
   id="id-9eb7565c-8094-482e-84bf-fffb80524c97"
   d=""
   style="stroke:none" />
      </symbol>
      <symbol
   id="id-bf3208ea-b20c-458e-98dd-170ee4301b86"
   overflow="visible">
        <path
   id="id-83bb620e-e981-4c44-91e5-7b008daec122"
   d="m 4.671875,-3.703125 c 0,-0.546875 -0.265625,-0.703125 -0.4375,-0.703125 -0.25,0 -0.5,0.265625 -0.5,0.484375 0,0.125 0.046875,0.1875 0.15625,0.296875 0.21875,0.203125 0.34375,0.453125 0.34375,0.8125 0,0.421875 -0.609375,2.703125 -1.765625,2.703125 -0.515625,0 -0.75,-0.34375 -0.75,-0.875 0,-0.546875 0.28125,-1.28125 0.578125,-2.109375 0.078125,-0.171875 0.125,-0.3125 0.125,-0.5 0,-0.4375 -0.3125,-0.8125 -0.8125,-0.8125 -0.9375,0 -1.3125,1.453125 -1.3125,1.53125 0,0.109375 0.09375,0.109375 0.109375,0.109375 0.109375,0 0.109375,-0.03125 0.15625,-0.1875 0.296875,-1 0.71875,-1.234375 1.015625,-1.234375 0.078125,0 0.25,0 0.25,0.3125 0,0.25 -0.109375,0.53125 -0.171875,0.703125 -0.4375,1.15625 -0.5625,1.609375 -0.5625,2.046875 0,1.078125 0.875,1.234375 1.328125,1.234375 1.671875,0 2.25,-3.296875 2.25,-3.8125 z m 0,0"
   style="stroke:none" />
      </symbol>
    </g>
  </defs>
  <g
   transform="translate(-149.009,-130.359)"
   id="id-16df74d5-a3a2-458e-b2e7-bbfeece76b85">
    <g
   id="id-c93f35e2-39d6-4055-b3bc-531b72d3080e"
   style="fill:#000000;fill-opacity:1">
      <g
   transform="translate(148.712,134.765)"
   id="g2961"><path
   id="id-9ac04bc1-694c-4a8b-aa52-4544fdd2b303"
   d="m 4.671875,-3.703125 c 0,-0.546875 -0.265625,-0.703125 -0.4375,-0.703125 -0.25,0 -0.5,0.265625 -0.5,0.484375 0,0.125 0.046875,0.1875 0.15625,0.296875 0.21875,0.203125 0.34375,0.453125 0.34375,0.8125 0,0.421875 -0.609375,2.703125 -1.765625,2.703125 -0.515625,0 -0.75,-0.34375 -0.75,-0.875 0,-0.546875 0.28125,-1.28125 0.578125,-2.109375 0.078125,-0.171875 0.125,-0.3125 0.125,-0.5 0,-0.4375 -0.3125,-0.8125 -0.8125,-0.8125 -0.9375,0 -1.3125,1.453125 -1.3125,1.53125 0,0.109375 0.09375,0.109375 0.109375,0.109375 0.109375,0 0.109375,-0.03125 0.15625,-0.1875 0.296875,-1 0.71875,-1.234375 1.015625,-1.234375 0.078125,0 0.25,0 0.25,0.3125 0,0.25 -0.109375,0.53125 -0.171875,0.703125 -0.4375,1.15625 -0.5625,1.609375 -0.5625,2.046875 0,1.078125 0.875,1.234375 1.328125,1.234375 1.671875,0 2.25,-3.296875 2.25,-3.8125 z m 0,0"
   style="stroke:none" />
      </g></g>
  </g>
</g><g
       transform="matrix(3.06254,0,0,-3.06254,491.55495,181.71069)"
       ns2:version="1.0.0"
       ns2:texconverter="pdflatex"
       ns2:pdfconverter="inkscape"
       ns2:text="$v_2$"
       ns2:preamble="/Users/bm/Library/Application Support/org.inkscape.Inkscape/config/inkscape/extensions/textext/default_packages.tex"
       ns2:scale="2.2969140018466327"
       ns2:alignment="middle center"
       ns2:inkscapeversion="1.0"
       ns2:jacobian_sqrt="3.06254"
       id="g3142"><defs
   id="id-26790719-6736-41b7-9076-7a0c197b40f8">
    <g
   id="id-c724a717-d89c-4665-bd05-fa6992aeb927">
      <symbol
   id="id-d76f0a93-c9c1-4ac4-9b7b-4645f58c7e55"
   overflow="visible">
        <path
   id="id-c1b376f5-b185-459c-b42b-3394313d9533"
   d=""
   style="stroke:none" />
      </symbol>
      <symbol
   id="id-775f4be7-3719-4fe4-9c20-c781a14d55e4"
   overflow="visible">
        <path
   id="id-1289301f-7988-418c-82dc-d645abdb2092"
   d="m 4.671875,-3.703125 c 0,-0.546875 -0.265625,-0.703125 -0.4375,-0.703125 -0.25,0 -0.5,0.265625 -0.5,0.484375 0,0.125 0.046875,0.1875 0.15625,0.296875 0.21875,0.203125 0.34375,0.453125 0.34375,0.8125 0,0.421875 -0.609375,2.703125 -1.765625,2.703125 -0.515625,0 -0.75,-0.34375 -0.75,-0.875 0,-0.546875 0.28125,-1.28125 0.578125,-2.109375 0.078125,-0.171875 0.125,-0.3125 0.125,-0.5 0,-0.4375 -0.3125,-0.8125 -0.8125,-0.8125 -0.9375,0 -1.3125,1.453125 -1.3125,1.53125 0,0.109375 0.09375,0.109375 0.109375,0.109375 0.109375,0 0.109375,-0.03125 0.15625,-0.1875 0.296875,-1 0.71875,-1.234375 1.015625,-1.234375 0.078125,0 0.25,0 0.25,0.3125 0,0.25 -0.109375,0.53125 -0.171875,0.703125 -0.4375,1.15625 -0.5625,1.609375 -0.5625,2.046875 0,1.078125 0.875,1.234375 1.328125,1.234375 1.671875,0 2.25,-3.296875 2.25,-3.8125 z m 0,0"
   style="stroke:none" />
      </symbol>
      <symbol
   id="id-3d5a41bf-a103-4ee4-aea0-98317d09f9f5"
   overflow="visible">
        <path
   id="id-0be1d873-5de1-4f8e-a89a-53a5025c4947"
   d=""
   style="stroke:none" />
      </symbol>
      <symbol
   id="id-f832bd0b-f1d1-46b9-9728-32a330ec29e5"
   overflow="visible">
        <path
   id="id-998ee1b4-d63b-4e02-afc3-14fdff46a405"
   d="M 3.515625,-1.265625 H 3.28125 c -0.015625,0.15625 -0.09375,0.5625 -0.1875,0.625 C 3.046875,-0.59375 2.515625,-0.59375 2.40625,-0.59375 H 1.125 c 0.734375,-0.640625 0.984375,-0.84375 1.390625,-1.171875 0.515625,-0.40625 1,-0.84375 1,-1.5 0,-0.84375 -0.734375,-1.359375 -1.625,-1.359375 -0.859375,0 -1.453125,0.609375 -1.453125,1.25 0,0.34375 0.296875,0.390625 0.375,0.390625 0.15625,0 0.359375,-0.125 0.359375,-0.375 0,-0.125 -0.046875,-0.375 -0.40625,-0.375 C 0.984375,-4.21875 1.453125,-4.375 1.78125,-4.375 c 0.703125,0 1.0625,0.546875 1.0625,1.109375 0,0.609375 -0.4375,1.078125 -0.65625,1.328125 L 0.515625,-0.265625 C 0.4375,-0.203125 0.4375,-0.1875 0.4375,0 h 2.875 z m 0,0"
   style="stroke:none" />
      </symbol>
    </g>
  </defs>
  <g
   transform="translate(-149.009,-130.359)"
   id="id-5fc5c977-9caa-4254-b43a-73141dd557eb">
    <g
   id="id-62c866bd-2463-48fb-a72b-d7ad7354f7a5"
   style="fill:#000000;fill-opacity:1">
      <g
   transform="translate(148.712,134.765)"
   id="g3134"><path
   id="id-21cadc08-7c90-429c-9c23-e8683c78f0b9"
   d="m 4.671875,-3.703125 c 0,-0.546875 -0.265625,-0.703125 -0.4375,-0.703125 -0.25,0 -0.5,0.265625 -0.5,0.484375 0,0.125 0.046875,0.1875 0.15625,0.296875 0.21875,0.203125 0.34375,0.453125 0.34375,0.8125 0,0.421875 -0.609375,2.703125 -1.765625,2.703125 -0.515625,0 -0.75,-0.34375 -0.75,-0.875 0,-0.546875 0.28125,-1.28125 0.578125,-2.109375 0.078125,-0.171875 0.125,-0.3125 0.125,-0.5 0,-0.4375 -0.3125,-0.8125 -0.8125,-0.8125 -0.9375,0 -1.3125,1.453125 -1.3125,1.53125 0,0.109375 0.09375,0.109375 0.109375,0.109375 0.109375,0 0.109375,-0.03125 0.15625,-0.1875 0.296875,-1 0.71875,-1.234375 1.015625,-1.234375 0.078125,0 0.25,0 0.25,0.3125 0,0.25 -0.109375,0.53125 -0.171875,0.703125 -0.4375,1.15625 -0.5625,1.609375 -0.5625,2.046875 0,1.078125 0.875,1.234375 1.328125,1.234375 1.671875,0 2.25,-3.296875 2.25,-3.8125 z m 0,0"
   style="stroke:none" />
      </g></g>
    <g
   id="id-59382d57-b8fc-4ccf-81fe-daa78a8645f3"
   style="fill:#000000;fill-opacity:1">
      <g
   transform="translate(153.541,136.259)"
   id="g3138"><path
   id="id-d0fa47d4-8c51-4511-ac70-cc94c2611395"
   d="M 3.515625,-1.265625 H 3.28125 c -0.015625,0.15625 -0.09375,0.5625 -0.1875,0.625 C 3.046875,-0.59375 2.515625,-0.59375 2.40625,-0.59375 H 1.125 c 0.734375,-0.640625 0.984375,-0.84375 1.390625,-1.171875 0.515625,-0.40625 1,-0.84375 1,-1.5 0,-0.84375 -0.734375,-1.359375 -1.625,-1.359375 -0.859375,0 -1.453125,0.609375 -1.453125,1.25 0,0.34375 0.296875,0.390625 0.375,0.390625 0.15625,0 0.359375,-0.125 0.359375,-0.375 0,-0.125 -0.046875,-0.375 -0.40625,-0.375 C 0.984375,-4.21875 1.453125,-4.375 1.78125,-4.375 c 0.703125,0 1.0625,0.546875 1.0625,1.109375 0,0.609375 -0.4375,1.078125 -0.65625,1.328125 L 0.515625,-0.265625 C 0.4375,-0.203125 0.4375,-0.1875 0.4375,0 h 2.875 z m 0,0"
   style="stroke:none" />
      </g></g>
  </g>
</g><g
       transform="matrix(3.06254,0,0,-3.06254,485.13982,304.67276)"
       ns2:version="1.0.0"
       ns2:texconverter="pdflatex"
       ns2:pdfconverter="inkscape"
       ns2:text="$v_3$"
       ns2:preamble="/Users/bm/Library/Application Support/org.inkscape.Inkscape/config/inkscape/extensions/textext/default_packages.tex"
       ns2:scale="2.2969140018466327"
       ns2:alignment="middle center"
       ns2:inkscapeversion="1.0"
       ns2:jacobian_sqrt="3.06254"
       id="g3525"><defs
   id="id-d1f7b7ac-6242-422c-b458-37f7f3d38fe9">
    <g
   id="id-3942a7e8-1fd9-4ea8-9ba0-5c445af3fe56">
      <symbol
   id="id-0d49867c-79c4-4073-b19e-75861daefd54"
   overflow="visible">
        <path
   id="id-c1a31283-6e3d-475f-a00a-5d9e4c58aff8"
   d=""
   style="stroke:none" />
      </symbol>
      <symbol
   id="id-46443eea-f0e6-44cc-891e-35512665a4b7"
   overflow="visible">
        <path
   id="id-6ee4d560-623d-43e8-b6aa-20cc07ff4295"
   d="m 4.671875,-3.703125 c 0,-0.546875 -0.265625,-0.703125 -0.4375,-0.703125 -0.25,0 -0.5,0.265625 -0.5,0.484375 0,0.125 0.046875,0.1875 0.15625,0.296875 0.21875,0.203125 0.34375,0.453125 0.34375,0.8125 0,0.421875 -0.609375,2.703125 -1.765625,2.703125 -0.515625,0 -0.75,-0.34375 -0.75,-0.875 0,-0.546875 0.28125,-1.28125 0.578125,-2.109375 0.078125,-0.171875 0.125,-0.3125 0.125,-0.5 0,-0.4375 -0.3125,-0.8125 -0.8125,-0.8125 -0.9375,0 -1.3125,1.453125 -1.3125,1.53125 0,0.109375 0.09375,0.109375 0.109375,0.109375 0.109375,0 0.109375,-0.03125 0.15625,-0.1875 0.296875,-1 0.71875,-1.234375 1.015625,-1.234375 0.078125,0 0.25,0 0.25,0.3125 0,0.25 -0.109375,0.53125 -0.171875,0.703125 -0.4375,1.15625 -0.5625,1.609375 -0.5625,2.046875 0,1.078125 0.875,1.234375 1.328125,1.234375 1.671875,0 2.25,-3.296875 2.25,-3.8125 z m 0,0"
   style="stroke:none" />
      </symbol>
      <symbol
   id="id-4831c62c-6632-427f-8dbc-131d455e73d3"
   overflow="visible">
        <path
   id="id-d9b1e9e6-7d20-466a-969c-d4c77a317c59"
   d=""
   style="stroke:none" />
      </symbol>
      <symbol
   id="id-cf072042-e976-4a01-a464-9d8a0cae15ba"
   overflow="visible">
        <path
   id="id-30d9a3d2-3084-4492-acad-56cfd5d0e96c"
   d="m 1.90625,-2.328125 c 0.546875,0 0.9375,0.375 0.9375,1.125 0,0.859375 -0.515625,1.125 -0.90625,1.125 -0.28125,0 -0.90625,-0.078125 -1.1875,-0.5 0.328125,0 0.40625,-0.234375 0.40625,-0.390625 0,-0.21875 -0.171875,-0.375 -0.390625,-0.375 -0.1875,0 -0.390625,0.125 -0.390625,0.40625 0,0.65625 0.71875,1.078125 1.5625,1.078125 0.96875,0 1.640625,-0.65625 1.640625,-1.34375 0,-0.546875 -0.4375,-1.09375 -1.203125,-1.25 0.71875,-0.265625 0.984375,-0.78125 0.984375,-1.21875 0,-0.546875 -0.625,-0.953125 -1.40625,-0.953125 -0.765625,0 -1.359375,0.375 -1.359375,0.9375 0,0.234375 0.15625,0.359375 0.359375,0.359375 0.21875,0 0.359375,-0.15625 0.359375,-0.34375 0,-0.203125 -0.140625,-0.359375 -0.359375,-0.375 0.25,-0.296875 0.71875,-0.375 0.984375,-0.375 0.3125,0 0.75,0.15625 0.75,0.75 0,0.296875 -0.09375,0.625 -0.28125,0.828125 -0.21875,0.265625 -0.421875,0.28125 -0.765625,0.3125 -0.171875,0.015625 -0.1875,0.015625 -0.21875,0.015625 -0.015625,0 -0.078125,0.015625 -0.078125,0.09375 0,0.09375 0.0625,0.09375 0.1875,0.09375 z m 0,0"
   style="stroke:none" />
      </symbol>
    </g>
  </defs>
  <g
   transform="translate(-149.009,-130.359)"
   id="id-5001c43c-2759-4ac3-bdd6-96758e9e27cd">
    <g
   id="id-f3773d3f-3ede-4b74-b2b5-85da1febb0c4"
   style="fill:#000000;fill-opacity:1">
      <g
   transform="translate(148.712,134.765)"
   id="g3517"><path
   id="id-c57b689f-30e3-40e0-8209-1057c1a90684"
   d="m 4.671875,-3.703125 c 0,-0.546875 -0.265625,-0.703125 -0.4375,-0.703125 -0.25,0 -0.5,0.265625 -0.5,0.484375 0,0.125 0.046875,0.1875 0.15625,0.296875 0.21875,0.203125 0.34375,0.453125 0.34375,0.8125 0,0.421875 -0.609375,2.703125 -1.765625,2.703125 -0.515625,0 -0.75,-0.34375 -0.75,-0.875 0,-0.546875 0.28125,-1.28125 0.578125,-2.109375 0.078125,-0.171875 0.125,-0.3125 0.125,-0.5 0,-0.4375 -0.3125,-0.8125 -0.8125,-0.8125 -0.9375,0 -1.3125,1.453125 -1.3125,1.53125 0,0.109375 0.09375,0.109375 0.109375,0.109375 0.109375,0 0.109375,-0.03125 0.15625,-0.1875 0.296875,-1 0.71875,-1.234375 1.015625,-1.234375 0.078125,0 0.25,0 0.25,0.3125 0,0.25 -0.109375,0.53125 -0.171875,0.703125 -0.4375,1.15625 -0.5625,1.609375 -0.5625,2.046875 0,1.078125 0.875,1.234375 1.328125,1.234375 1.671875,0 2.25,-3.296875 2.25,-3.8125 z m 0,0"
   style="stroke:none" />
      </g></g>
    <g
   id="id-9e2ffe23-30c3-4033-b7f0-d242a32f8282"
   style="fill:#000000;fill-opacity:1">
      <g
   transform="translate(153.541,136.259)"
   id="g3521"><path
   id="id-0e99daef-6693-4830-9f89-ee29e7e8131f"
   d="m 1.90625,-2.328125 c 0.546875,0 0.9375,0.375 0.9375,1.125 0,0.859375 -0.515625,1.125 -0.90625,1.125 -0.28125,0 -0.90625,-0.078125 -1.1875,-0.5 0.328125,0 0.40625,-0.234375 0.40625,-0.390625 0,-0.21875 -0.171875,-0.375 -0.390625,-0.375 -0.1875,0 -0.390625,0.125 -0.390625,0.40625 0,0.65625 0.71875,1.078125 1.5625,1.078125 0.96875,0 1.640625,-0.65625 1.640625,-1.34375 0,-0.546875 -0.4375,-1.09375 -1.203125,-1.25 0.71875,-0.265625 0.984375,-0.78125 0.984375,-1.21875 0,-0.546875 -0.625,-0.953125 -1.40625,-0.953125 -0.765625,0 -1.359375,0.375 -1.359375,0.9375 0,0.234375 0.15625,0.359375 0.359375,0.359375 0.21875,0 0.359375,-0.15625 0.359375,-0.34375 0,-0.203125 -0.140625,-0.359375 -0.359375,-0.375 0.25,-0.296875 0.71875,-0.375 0.984375,-0.375 0.3125,0 0.75,0.15625 0.75,0.75 0,0.296875 -0.09375,0.625 -0.28125,0.828125 -0.21875,0.265625 -0.421875,0.28125 -0.765625,0.3125 -0.171875,0.015625 -0.1875,0.015625 -0.21875,0.015625 -0.015625,0 -0.078125,0.015625 -0.078125,0.09375 0,0.09375 0.0625,0.09375 0.1875,0.09375 z m 0,0"
   style="stroke:none" />
      </g></g>
  </g>
</g><g
       transform="matrix(3.06254,0,0,-3.06254,409.46136,305.06351)"
       ns2:version="1.0.0"
       ns2:texconverter="pdflatex"
       ns2:pdfconverter="inkscape"
       ns2:text="$v_4$"
       ns2:preamble="/Users/bm/Library/Application Support/org.inkscape.Inkscape/config/inkscape/extensions/textext/default_packages.tex"
       ns2:scale="2.2969140018466327"
       ns2:alignment="middle center"
       ns2:inkscapeversion="1.0"
       ns2:jacobian_sqrt="3.06254"
       id="g3745"><defs
   id="id-7934d23d-fda7-4183-93e9-d2c3e851e663">
    <g
   id="id-f29bdf45-3eca-4dc6-94d9-772f027b8078">
      <symbol
   id="id-c8789979-80e8-4553-8b63-d8bd24112890"
   overflow="visible">
        <path
   id="id-391d60a7-1259-4efe-91dd-1184be2c5ea6"
   d=""
   style="stroke:none" />
      </symbol>
      <symbol
   id="id-8e1a005b-d15a-4de4-82f5-9f015c3b5815"
   overflow="visible">
        <path
   id="id-a57e066e-c3c0-44f6-8a9f-5d88d7332f2f"
   d="m 4.671875,-3.703125 c 0,-0.546875 -0.265625,-0.703125 -0.4375,-0.703125 -0.25,0 -0.5,0.265625 -0.5,0.484375 0,0.125 0.046875,0.1875 0.15625,0.296875 0.21875,0.203125 0.34375,0.453125 0.34375,0.8125 0,0.421875 -0.609375,2.703125 -1.765625,2.703125 -0.515625,0 -0.75,-0.34375 -0.75,-0.875 0,-0.546875 0.28125,-1.28125 0.578125,-2.109375 0.078125,-0.171875 0.125,-0.3125 0.125,-0.5 0,-0.4375 -0.3125,-0.8125 -0.8125,-0.8125 -0.9375,0 -1.3125,1.453125 -1.3125,1.53125 0,0.109375 0.09375,0.109375 0.109375,0.109375 0.109375,0 0.109375,-0.03125 0.15625,-0.1875 0.296875,-1 0.71875,-1.234375 1.015625,-1.234375 0.078125,0 0.25,0 0.25,0.3125 0,0.25 -0.109375,0.53125 -0.171875,0.703125 -0.4375,1.15625 -0.5625,1.609375 -0.5625,2.046875 0,1.078125 0.875,1.234375 1.328125,1.234375 1.671875,0 2.25,-3.296875 2.25,-3.8125 z m 0,0"
   style="stroke:none" />
      </symbol>
      <symbol
   id="id-7b273f8b-acf6-43a9-bbf9-ea53ee4e445b"
   overflow="visible">
        <path
   id="id-fc84bf52-1dde-4e2d-8f61-7e6d7e993877"
   d=""
   style="stroke:none" />
      </symbol>
      <symbol
   id="id-374358a4-803f-46b9-b0f0-2acf2122d570"
   overflow="visible">
        <path
   id="id-2e0f3256-ffc8-4908-b2d3-f4640255a372"
   d="m 3.6875,-1.140625 v -0.25 H 2.90625 V -4.5 c 0,-0.140625 0,-0.203125 -0.140625,-0.203125 -0.09375,0 -0.125,0 -0.1875,0.109375 l -2.3125,3.203125 v 0.25 h 2.0625 v 0.5625 c 0,0.25 0,0.328125 -0.578125,0.328125 H 1.5625 V 0 C 1.921875,-0.015625 2.359375,-0.03125 2.609375,-0.03125 2.875,-0.03125 3.3125,-0.015625 3.671875,0 v -0.25 h -0.1875 C 2.90625,-0.25 2.90625,-0.328125 2.90625,-0.578125 v -0.5625 z M 2.375,-3.9375 v 2.546875 H 0.53125 Z m 0,0"
   style="stroke:none" />
      </symbol>
    </g>
  </defs>
  <g
   transform="translate(-149.009,-130.359)"
   id="id-35e12b80-b521-440b-b313-95dae7062394">
    <g
   id="id-36b7e8ea-7932-4fba-b818-91b506a9118b"
   style="fill:#000000;fill-opacity:1">
      <g
   transform="translate(148.712,134.765)"
   id="g3737"><path
   id="id-3d670061-aad3-442e-8554-317a8c945ee9"
   d="m 4.671875,-3.703125 c 0,-0.546875 -0.265625,-0.703125 -0.4375,-0.703125 -0.25,0 -0.5,0.265625 -0.5,0.484375 0,0.125 0.046875,0.1875 0.15625,0.296875 0.21875,0.203125 0.34375,0.453125 0.34375,0.8125 0,0.421875 -0.609375,2.703125 -1.765625,2.703125 -0.515625,0 -0.75,-0.34375 -0.75,-0.875 0,-0.546875 0.28125,-1.28125 0.578125,-2.109375 0.078125,-0.171875 0.125,-0.3125 0.125,-0.5 0,-0.4375 -0.3125,-0.8125 -0.8125,-0.8125 -0.9375,0 -1.3125,1.453125 -1.3125,1.53125 0,0.109375 0.09375,0.109375 0.109375,0.109375 0.109375,0 0.109375,-0.03125 0.15625,-0.1875 0.296875,-1 0.71875,-1.234375 1.015625,-1.234375 0.078125,0 0.25,0 0.25,0.3125 0,0.25 -0.109375,0.53125 -0.171875,0.703125 -0.4375,1.15625 -0.5625,1.609375 -0.5625,2.046875 0,1.078125 0.875,1.234375 1.328125,1.234375 1.671875,0 2.25,-3.296875 2.25,-3.8125 z m 0,0"
   style="stroke:none" />
      </g></g>
    <g
   id="id-ad2a3d41-f2f1-4729-85aa-98c27df29a97"
   style="fill:#000000;fill-opacity:1">
      <g
   transform="translate(153.541,136.259)"
   id="g3741"><path
   id="id-c904d448-ebba-4f9b-81cd-6dbbf5c020ce"
   d="m 3.6875,-1.140625 v -0.25 H 2.90625 V -4.5 c 0,-0.140625 0,-0.203125 -0.140625,-0.203125 -0.09375,0 -0.125,0 -0.1875,0.109375 l -2.3125,3.203125 v 0.25 h 2.0625 v 0.5625 c 0,0.25 0,0.328125 -0.578125,0.328125 H 1.5625 V 0 C 1.921875,-0.015625 2.359375,-0.03125 2.609375,-0.03125 2.875,-0.03125 3.3125,-0.015625 3.671875,0 v -0.25 h -0.1875 C 2.90625,-0.25 2.90625,-0.328125 2.90625,-0.578125 v -0.5625 z M 2.375,-3.9375 v 2.546875 H 0.53125 Z m 0,0"
   style="stroke:none" />
      </g></g>
  </g>
</g><g
       transform="matrix(0.96906871,0,0,0.93294027,232.41216,-72.674381)"
       id="g3832"><path
         style="fill:none;stroke:#000000;stroke-width:1.5;stroke-linecap:butt;stroke-linejoin:miter;stroke-miterlimit:4;stroke-dasharray:none;stroke-opacity:1"
         d="m 303.32274,343.76738 c 1.75571,-4.26693 3.51105,-8.53294 4.03741,-13.47443 0.52637,-4.94148 -0.17575,-10.55845 -0.8778,-16.17489"
         id="path3767"
         inkscape:path-effect="#path-effect3769"
         inkscape:original-d="m 303.32274,343.76738 c 1.75609,-4.26677 3.51142,-8.53279 5.26601,-12.79806 -0.7014,-5.61795 -1.40352,-11.23492 -2.1064,-16.85126"
         sodipodi:nodetypes="ccc" /><path
         inkscape:original-d="m 313.91289,345.29394 c 1.75608,-5.9689 3.51139,-11.93694 5.26601,-17.90447 -0.7014,-4.11792 -1.40352,-8.23492 -2.1064,-12.35126"
         inkscape:path-effect="#path-effect3788"
         id="path3767-6"
         d="m 313.91289,345.29394 c 1.7556,-5.96904 3.5109,-11.93708 4.03733,-16.97966 0.52643,-5.04258 -0.17569,-9.15959 -0.87772,-13.27607"
         style="fill:none;stroke:#000000;stroke-width:1.5;stroke-linecap:butt;stroke-linejoin:miter;stroke-miterlimit:4;stroke-dasharray:none;stroke-opacity:1"
         sodipodi:nodetypes="ccc" /><path
         sodipodi:nodetypes="ccc"
         inkscape:original-d="m 324.95765,336.21772 c -4.23443,-1.33943 -8.46854,-2.67772 -12.7023,-4.01484 -5.10185,0.53466 -10.20287,1.06996 -15.30338,1.60593"
         inkscape:path-effect="#path-effect3807"
         id="path3767-3"
         d="m 324.95765,336.21772 c -4.23473,-1.33848 -8.46884,-2.67676 -13.13646,-3.07811 -4.66761,-0.40135 -9.76863,0.13395 -14.86922,0.6692"
         style="fill:none;stroke:#000000;stroke-width:1.30974;stroke-linecap:butt;stroke-linejoin:miter;stroke-miterlimit:4;stroke-dasharray:none;stroke-opacity:1" /><path
         style="fill:none;stroke:#000000;stroke-width:1.30974;stroke-linecap:butt;stroke-linejoin:miter;stroke-miterlimit:4;stroke-dasharray:none;stroke-opacity:1"
         d="m 325.98088,324.16307 c -4.23474,-1.33848 -8.46884,-2.67676 -13.13646,-3.07811 -4.66761,-0.40135 -9.76863,0.13395 -14.86922,0.6692"
         id="path3767-3-2"
         inkscape:path-effect="#path-effect3826"
         inkscape:original-d="m 325.98088,324.16307 c -4.23444,-1.33944 -8.46854,-2.67772 -12.7023,-4.01484 -5.10185,0.53466 -10.20287,1.06996 -15.30338,1.60593"
         sodipodi:nodetypes="ccc" /></g></g></svg>
