<?xml version="1.0" encoding="UTF-8" standalone="no"?>
<svg
   xmlns:ns1="http://www.iki.fi/pav/software/textext/"
   xmlns:dc="http://purl.org/dc/elements/1.1/"
   xmlns:cc="http://creativecommons.org/ns#"
   xmlns:rdf="http://www.w3.org/1999/02/22-rdf-syntax-ns#"
   xmlns:svg="http://www.w3.org/2000/svg"
   xmlns="http://www.w3.org/2000/svg"
   xmlns:sodipodi="http://sodipodi.sourceforge.net/DTD/sodipodi-0.dtd"
   xmlns:inkscape="http://www.inkscape.org/namespaces/inkscape"
   inkscape:version="1.0 (4035a4f, 2020-05-01)"
   sodipodi:docname="geodesic.svg"
   viewBox="0 0 775.74994 475.52026"
   height="475.52026"
   width="775.74994"
   xml:space="preserve"
   id="svg833"
   version="1.1"><metadata
     id="metadata839"><rdf:RDF><cc:Work
         rdf:about=""><dc:format>image/svg+xml</dc:format><dc:type
           rdf:resource="http://purl.org/dc/dcmitype/StillImage" /><dc:title /></cc:Work></rdf:RDF></metadata><defs
     id="defs837"><inkscape:path-effect
       effect="bspline"
       id="path-effect1149"
       is_visible="true"
       lpeversion="1"
       weight="33.333333"
       steps="2"
       helper_size="0"
       apply_no_weight="true"
       apply_with_weight="true"
       only_selected="false" /><inkscape:path-effect
       only_selected="false"
       apply_with_weight="true"
       apply_no_weight="true"
       helper_size="0"
       steps="2"
       weight="33.333333"
       lpeversion="1"
       is_visible="true"
       id="path-effect1063"
       effect="bspline" /><inkscape:path-effect
       only_selected="false"
       apply_with_weight="true"
       apply_no_weight="true"
       helper_size="0"
       steps="2"
       weight="33.333333"
       lpeversion="1"
       is_visible="true"
       id="path-effect1054"
       effect="bspline" /><inkscape:path-effect
       effect="bspline"
       id="path-effect983"
       is_visible="true"
       lpeversion="1"
       weight="33.333333"
       steps="2"
       helper_size="0"
       apply_no_weight="true"
       apply_with_weight="true"
       only_selected="false" /><inkscape:path-effect
       effect="bspline"
       id="path-effect974"
       is_visible="true"
       lpeversion="1"
       weight="33.333333"
       steps="2"
       helper_size="0"
       apply_no_weight="true"
       apply_with_weight="true"
       only_selected="false" /><inkscape:path-effect
       effect="bspline"
       id="path-effect965"
       is_visible="true"
       lpeversion="1"
       weight="33.333333"
       steps="2"
       helper_size="0"
       apply_no_weight="true"
       apply_with_weight="true"
       only_selected="false" /><inkscape:path-effect
       only_selected="false"
       apply_with_weight="true"
       apply_no_weight="true"
       helper_size="0"
       steps="2"
       weight="33.333333"
       lpeversion="1"
       is_visible="true"
       id="path-effect946"
       effect="bspline" /><inkscape:path-effect
       only_selected="false"
       apply_with_weight="true"
       apply_no_weight="true"
       helper_size="0"
       steps="2"
       weight="33.333333"
       lpeversion="1"
       is_visible="true"
       id="path-effect912"
       effect="bspline" /></defs><sodipodi:namedview
     inkscape:document-rotation="0"
     inkscape:current-layer="g841"
     inkscape:window-maximized="0"
     inkscape:window-y="25"
     inkscape:window-x="0"
     inkscape:cy="237.76013"
     inkscape:cx="387.87497"
     inkscape:zoom="0.79664847"
     showgrid="false"
     id="namedview835"
     inkscape:window-height="676"
     inkscape:window-width="1396"
     inkscape:pageshadow="2"
     inkscape:pageopacity="0"
     guidetolerance="10"
     gridtolerance="10"
     objecttolerance="10"
     borderopacity="1"
     bordercolor="#666666"
     pagecolor="#ffffff" /><g
     transform="matrix(1.3333333,0,0,1.3333333,0,7.8880066e-6)"
     inkscape:label="stereo"
     inkscape:groupmode="layer"
     id="g841"><g
       id="g843"><g
         transform="scale(0.861034,1)"
         id="g845"><path
           id="path847"
           style="fill:none;stroke:#010001;stroke-width:7.94396;stroke-linecap:butt;stroke-linejoin:miter;stroke-miterlimit:10;stroke-dasharray:none;stroke-opacity:1"
           d="m 453.361,158.977 c 0,66.699 -58.024,120.765 -129.595,120.765 -71.571,0 -129.595,-54.066 -129.595,-120.765 0,-66.696 58.024,-120.766 129.595,-120.766 71.571,0 129.595,54.07 129.595,120.766" /></g><g
         id="g849"><path
           sodipodi:nodetypes="ccc"
           id="path851"
           style="fill:none;stroke:#000000;stroke-width:4.26747;stroke-linecap:butt;stroke-linejoin:miter;stroke-miterlimit:4;stroke-dasharray:none;stroke-opacity:1"
           d="M 170.93011,177.12588 C 183.1881,205.00712 257.11444,215.69823 278.746,213.18279 377.28808,208.78001 386.492,177.184 391.047,161.016" /></g><g
         id="g853" /><g
         id="g857" /><g
         id="g863" /><g
         id="g869" /><g
         id="g873" /></g><path
       d="m 176.05314,159.59045 c 18.8481,-12.60087 66.62122,-21.47285 87.31134,-23.04686 m 36.54066,1.11711 c 21.26334,-0.75938 65.6639,8.88269 81.58467,23.7073"
       style="fill:none;stroke:#000000;stroke-width:4.26614;stroke-linecap:butt;stroke-linejoin:miter;stroke-miterlimit:4;stroke-dasharray:4.26614, 8.53228;stroke-dashoffset:0;stroke-opacity:1"
       id="path851-3"
       sodipodi:nodetypes="cccc" /><path
       sodipodi:nodetypes="cccc"
       inkscape:original-d="m 280.31158,177.13561 c 9.4e-4,-9.41371 0.001,-18.82797 5.6e-4,-28.24277 m -1.70722,-36.54065 c 0,0 -0.11674,-23.741794 -0.17623,-35.613422"
       inkscape:path-effect="#path-effect912"
       id="path910"
       d="m 280.31158,177.13561 c 1.9e-4,-9.41371 3.7e-4,-18.82797 5.6e-4,-28.24277 m -1.70722,-36.54065 c -0.0587,-11.87114 -0.11748,-23.74179 -0.17623,-35.613422"
       style="fill:none;stroke:#000000;stroke-width:5.66929;stroke-linecap:butt;stroke-linejoin:miter;stroke-miterlimit:4;stroke-dasharray:none;stroke-opacity:1" /><path
       d="m 196.81017,82.391988 c 15.08232,18.466792 40.05356,26.333582 88.04555,24.759582 45.82121,-6.28567 63.49813,-13.404132 68.05313,-29.572133"
       style="fill:none;stroke:#000000;stroke-width:4.26747;stroke-linecap:butt;stroke-linejoin:miter;stroke-miterlimit:4;stroke-dasharray:none;stroke-opacity:1"
       id="path851-5"
       sodipodi:nodetypes="ccc" /><path
       sodipodi:nodetypes="ccc"
       id="path851-3-2"
       style="fill:none;stroke:#000000;stroke-width:4.26614;stroke-linecap:butt;stroke-linejoin:miter;stroke-miterlimit:4;stroke-dasharray:4.26614, 8.5323;stroke-dashoffset:0;stroke-opacity:1"
       d="m 207.98202,75.413565 c 27.3211,-9.776538 47.79233,-10.9413 71.30679,-13.456752 35.385,1.123507 58.64072,7.388121 73.62004,15.622624" /><path
       sodipodi:nodetypes="cc"
       inkscape:original-d="m 276.6089,78.729964 c 6.86514,-0.121625 14.31912,-0.25451 21.47755,-0.38289"
       inkscape:path-effect="#path-effect946"
       id="path944"
       d="m 276.6089,78.729964 c 6.86513,-0.122388 14.31911,-0.255273 21.47755,-0.38289"
       style="fill:none;stroke:#000000;stroke-width:5.66929;stroke-linecap:butt;stroke-linejoin:miter;stroke-miterlimit:4;stroke-dasharray:none;stroke-opacity:1" /><path
       style="fill:none;stroke:#000000;stroke-width:5.66929;stroke-linecap:butt;stroke-linejoin:miter;stroke-miterlimit:4;stroke-dasharray:none;stroke-opacity:1"
       d="m 327.79822,77.948413 c 8.30337,-0.122386 17.31911,-0.255271 25.97755,-0.38289"
       id="path944-5"
       inkscape:path-effect="#path-effect965"
       inkscape:original-d="m 327.79822,77.948413 c 8.30338,-0.121625 17.31912,-0.25451 25.97755,-0.38289"
       sodipodi:nodetypes="cc" /><g
       transform="matrix(4.05144,0,0,4.05144,302.86147,71.567499)"
       ns1:version="1.0.0"
       ns1:texconverter="pdflatex"
       ns1:pdfconverter="inkscape"
       ns1:text="$r$"
       ns1:preamble="/Users/bm/Library/Application Support/org.inkscape.Inkscape/config/inkscape/extensions/textext/default_packages.tex"
       ns1:scale="3.038586796050615"
       ns1:alignment="middle center"
       ns1:inkscapeversion="1.0"
       ns1:jacobian_sqrt="4.05144"
       id="g1022"><defs
   id="id-7fef8950-2583-48be-b1c1-abc1430aca15">
    <g
   id="id-c3f2b277-5191-430d-9e46-2894127a92a0">
      <symbol
   id="id-0f2145ea-e861-4022-a65c-6706a78daebb"
   overflow="visible">
        <path
   id="id-d7e4fd93-04c7-4452-a803-0589e6f97618"
   d=""
   style="stroke:none" />
      </symbol>
      <symbol
   id="id-41f71322-04aa-467a-9e88-dfd928b3f4b1"
   overflow="visible">
        <path
   id="id-5cda66ae-3d2f-44b5-951b-03bcd5b50dda"
   d="m 0.875,-0.59375 c -0.03125,0.15625 -0.09375,0.390625 -0.09375,0.4375 0,0.171875 0.140625,0.265625 0.296875,0.265625 0.125,0 0.296875,-0.078125 0.375,-0.28125 C 1.46875,-0.203125 1.796875,-1.5625 1.84375,-1.75 c 0.078125,-0.328125 0.265625,-1.015625 0.3125,-1.296875 0.046875,-0.125 0.328125,-0.59375 0.5625,-0.8125 0.078125,-0.0625 0.375,-0.328125 0.796875,-0.328125 0.265625,0 0.40625,0.125 0.421875,0.125 -0.296875,0.046875 -0.515625,0.28125 -0.515625,0.546875 0,0.15625 0.109375,0.34375 0.375,0.34375 0.265625,0 0.546875,-0.234375 0.546875,-0.59375 0,-0.34375 -0.3125,-0.640625 -0.828125,-0.640625 C 2.875,-4.40625 2.4375,-3.921875 2.25,-3.640625 2.15625,-4.09375 1.796875,-4.40625 1.328125,-4.40625 0.875,-4.40625 0.6875,-4.015625 0.59375,-3.84375 0.421875,-3.5 0.296875,-2.90625 0.296875,-2.875 c 0,0.109375 0.09375,0.109375 0.109375,0.109375 0.109375,0 0.109375,-0.015625 0.171875,-0.234375 0.171875,-0.703125 0.375,-1.1875 0.734375,-1.1875 0.15625,0 0.296875,0.078125 0.296875,0.453125 0,0.21875 -0.03125,0.328125 -0.15625,0.84375 z m 0,0"
   style="stroke:none" />
      </symbol>
    </g>
  </defs>
  <g
   transform="translate(-149.009,-130.359)"
   id="id-8671def7-770b-44d3-b71e-f3a3bd8b8f0b">
    <g
   id="id-d21e6fd9-7e56-473b-988c-4fbe790c1444"
   style="fill:#000000;fill-opacity:1">
      <g
   transform="translate(148.712,134.765)"
   id="g1018"><path
   id="id-5171bcd0-ae9d-444b-a07d-85d94dc3b993"
   d="m 0.875,-0.59375 c -0.03125,0.15625 -0.09375,0.390625 -0.09375,0.4375 0,0.171875 0.140625,0.265625 0.296875,0.265625 0.125,0 0.296875,-0.078125 0.375,-0.28125 C 1.46875,-0.203125 1.796875,-1.5625 1.84375,-1.75 c 0.078125,-0.328125 0.265625,-1.015625 0.3125,-1.296875 0.046875,-0.125 0.328125,-0.59375 0.5625,-0.8125 0.078125,-0.0625 0.375,-0.328125 0.796875,-0.328125 0.265625,0 0.40625,0.125 0.421875,0.125 -0.296875,0.046875 -0.515625,0.28125 -0.515625,0.546875 0,0.15625 0.109375,0.34375 0.375,0.34375 0.265625,0 0.546875,-0.234375 0.546875,-0.59375 0,-0.34375 -0.3125,-0.640625 -0.828125,-0.640625 C 2.875,-4.40625 2.4375,-3.921875 2.25,-3.640625 2.15625,-4.09375 1.796875,-4.40625 1.328125,-4.40625 0.875,-4.40625 0.6875,-4.015625 0.59375,-3.84375 0.421875,-3.5 0.296875,-2.90625 0.296875,-2.875 c 0,0.109375 0.09375,0.109375 0.109375,0.109375 0.109375,0 0.109375,-0.015625 0.171875,-0.234375 0.171875,-0.703125 0.375,-1.1875 0.734375,-1.1875 0.15625,0 0.296875,0.078125 0.296875,0.453125 0,0.21875 -0.03125,0.328125 -0.15625,0.84375 z m 0,0"
   style="stroke:none" />
      </g></g>
  </g>
</g><g
       transform="matrix(3.281441,0,0,3.7836514,253.69727,119.95817)"
       ns1:version="1.0.0"
       ns1:texconverter="pdflatex"
       ns1:pdfconverter="inkscape"
       ns1:text="$h$"
       ns1:preamble="/Users/bm/Library/Application Support/org.inkscape.Inkscape/config/inkscape/extensions/textext/default_packages.tex"
       ns1:scale="3.038586796050615"
       ns1:alignment="middle center"
       ns1:inkscapeversion="1.0"
       ns1:jacobian_sqrt="4.05144"
       id="g1117"><defs
   id="id-879f9e1e-0d54-4979-aec8-0ae0c59d5386">
    <g
   id="id-0412f5f6-2f0e-422f-9160-f17bd2069812">
      <symbol
   id="id-ca3d20a1-7750-4949-9f8a-f4be83fe9636"
   overflow="visible">
        <path
   id="id-7e6202c2-b8c0-4a5c-b183-66dbf78fd56b"
   d=""
   style="stroke:none" />
      </symbol>
      <symbol
   id="id-30c89148-9912-4183-92cc-51d6f22bbbf4"
   overflow="visible">
        <path
   id="id-b616796a-afef-4431-8184-17c98a1003d5"
   d="m 2.859375,-6.8125 c 0,0 0,-0.109375 -0.125,-0.109375 -0.234375,0 -0.953125,0.078125 -1.21875,0.109375 -0.078125,0 -0.1875,0.015625 -0.1875,0.1875 0,0.125 0.09375,0.125 0.234375,0.125 0.484375,0 0.5,0.0625 0.5,0.171875 L 2.03125,-6.125 0.59375,-0.390625 c -0.046875,0.140625 -0.046875,0.15625 -0.046875,0.21875 0,0.234375 0.203125,0.28125 0.296875,0.28125 0.15625,0 0.3125,-0.125 0.359375,-0.265625 l 0.1875,-0.75 0.21875,-0.890625 C 1.671875,-2.03125 1.734375,-2.25 1.78125,-2.46875 1.796875,-2.53125 1.890625,-2.859375 1.890625,-2.921875 1.921875,-3.015625 2.234375,-3.5625 2.578125,-3.84375 2.796875,-4 3.09375,-4.1875 3.53125,-4.1875 c 0.421875,0 0.53125,0.34375 0.53125,0.703125 0,0.53125 -0.375,1.625 -0.609375,2.234375 C 3.375,-1.03125 3.3125,-0.90625 3.3125,-0.703125 c 0,0.46875 0.359375,0.8125 0.828125,0.8125 0.9375,0 1.296875,-1.453125 1.296875,-1.53125 0,-0.109375 -0.078125,-0.109375 -0.109375,-0.109375 -0.109375,0 -0.109375,0.03125 -0.15625,0.1875 -0.140625,0.53125 -0.46875,1.234375 -1.015625,1.234375 -0.171875,0 -0.234375,-0.09375 -0.234375,-0.328125 0,-0.25 0.078125,-0.484375 0.171875,-0.703125 0.15625,-0.4375 0.609375,-1.625 0.609375,-2.203125 0,-0.640625 -0.390625,-1.0625 -1.140625,-1.0625 -0.625,0 -1.109375,0.3125 -1.484375,0.765625 z m 0,0"
   style="stroke:none" />
      </symbol>
    </g>
  </defs>
  <g
   transform="translate(-149.259,-127.843)"
   id="id-6b5088d8-4990-42ed-8cc1-f80fb8768bfb">
    <g
   id="id-66fe82e8-4479-447d-820e-410e15aaf550"
   style="fill:#000000;fill-opacity:1">
      <g
   transform="translate(148.712,134.765)"
   id="g1113"><path
   id="id-389bb4d0-9564-4dab-ba93-a12bc3ae75b0"
   d="m 8.8018869,-7.2089425 c 0,0 0,-0.109375 -0.125,-0.109375 -0.234375,0 -0.953125,0.078125 -1.21875,0.109375 -0.078125,0 -0.1875,0.015625 -0.1875,0.1875 0,0.125 0.09375,0.125 0.234375,0.125 0.484375,0 0.5,0.0625 0.5,0.171875 l -0.03125,0.203125 -1.4375,5.73437505 c -0.046875,0.140625 -0.046875,0.15625 -0.046875,0.21875 0,0.234375 0.203125,0.28125 0.296875,0.28125 0.15625,0 0.3125,-0.125 0.359375,-0.265625 l 0.1875,-0.75000005 0.21875,-0.890625 c 0.0625,-0.234375 0.125,-0.453125 0.171875,-0.671875 0.015625,-0.0625 0.109375,-0.390625 0.109375,-0.453125 0.03125,-0.09375 0.34375,-0.640625 0.6875,-0.921875 0.21875,-0.15625 0.515625,-0.34375 0.953125,-0.34375 0.421875,0 0.5312501,0.34375 0.5312501,0.703125 0,0.53125 -0.3750001,1.625 -0.6093751,2.234375 -0.078125,0.21875 -0.140625,0.34375 -0.140625,0.546875 0,0.46875005 0.359375,0.81250005 0.8281251,0.81250005 0.937499,0 1.296874,-1.45312505 1.296874,-1.53125005 0,-0.109375 -0.07813,-0.109375 -0.109375,-0.109375 -0.109375,0 -0.109375,0.03125 -0.15625,0.1875 -0.140625,0.53125 -0.468749,1.23437505 -1.015624,1.23437505 -0.1718751,0 -0.2343751,-0.09375 -0.2343751,-0.328125 0,-0.25000005 0.078125,-0.48437505 0.1718751,-0.70312505 0.15625,-0.4375 0.609375,-1.625 0.609375,-2.203125 0,-0.640625 -0.390625,-1.0625 -1.1406251,-1.0625 -0.625,0 -1.109375,0.3125 -1.484375,0.765625 z m 0,0"
   style="stroke:none" />
      </g></g>
  </g>
</g></g></svg>
