<?xml version="1.0" encoding="UTF-8" standalone="no"?>
<!-- Created with Inkscape (http://www.inkscape.org/) -->

<svg
   version="1.1"
   id="svg1"
   width="775.74994"
   height="475.52026"
   viewBox="0 0 775.74994 475.52026"
   sodipodi:docname="stereo-1D.svg"
   inkscape:version="1.3.2 (091e20e, 2023-11-25)"
   xmlns:inkscape="http://www.inkscape.org/namespaces/inkscape"
   xmlns:sodipodi="http://sodipodi.sourceforge.net/DTD/sodipodi-0.dtd"
   xmlns="http://www.w3.org/2000/svg"
   xmlns:svg="http://www.w3.org/2000/svg">
  <defs
     id="defs1">
    <marker
       style="overflow:visible"
       id="marker9"
       refX="0"
       refY="0"
       orient="auto-start-reverse"
       inkscape:stockid="Concave triangle arrow"
       markerWidth="0.7"
       markerHeight="0.7"
       viewBox="0 0 1 1"
       inkscape:isstock="true"
       inkscape:collect="always"
       preserveAspectRatio="xMidYMid">
      <path
         transform="scale(0.7)"
         d="M -2,-4 9,0 -2,4 c 2,-2.33 2,-5.66 0,-8 z"
         style="fill:context-stroke;fill-rule:evenodd;stroke:none"
         id="path9" />
    </marker>
    <marker
       style="overflow:visible"
       id="marker8"
       refX="0"
       refY="0"
       orient="auto-start-reverse"
       inkscape:stockid="Concave triangle arrow"
       markerWidth="0.5"
       markerHeight="0.5"
       viewBox="0 0 1 1"
       inkscape:isstock="true"
       inkscape:collect="always"
       preserveAspectRatio="xMidYMid">
      <path
         transform="scale(0.7)"
         d="M -2,-4 9,0 -2,4 c 2,-2.33 2,-5.66 0,-8 z"
         style="fill:context-stroke;fill-rule:evenodd;stroke:none"
         id="path8" />
    </marker>
    <marker
       style="overflow:visible"
       id="ConcaveTriangle"
       refX="0"
       refY="0"
       orient="auto-start-reverse"
       inkscape:stockid="Concave triangle arrow"
       markerWidth="0.5"
       markerHeight="0.5"
       viewBox="0 0 1 1"
       inkscape:isstock="true"
       inkscape:collect="always"
       preserveAspectRatio="xMidYMid">
      <path
         transform="scale(0.7)"
         d="M -2,-4 9,0 -2,4 c 2,-2.33 2,-5.66 0,-8 z"
         style="fill:context-stroke;fill-rule:evenodd;stroke:none"
         id="path7" />
    </marker>
  </defs>
  <sodipodi:namedview
     id="namedview1"
     pagecolor="#ffffff"
     bordercolor="#666666"
     borderopacity="1.0"
     inkscape:showpageshadow="2"
     inkscape:pageopacity="0.0"
     inkscape:pagecheckerboard="0"
     inkscape:deskcolor="#d1d1d1"
     inkscape:zoom="0.49629851"
     inkscape:cx="387.8714"
     inkscape:cy="237.76013"
     inkscape:window-width="1128"
     inkscape:window-height="603"
     inkscape:window-x="0"
     inkscape:window-y="38"
     inkscape:window-maximized="0"
     inkscape:current-layer="g1"
     showgrid="true">
    <inkscape:page
       x="0"
       y="0"
       inkscape:label="1"
       id="page1"
       width="775.74994"
       height="475.52026"
       margin="0"
       bleed="0" />
    <inkscape:grid
       id="grid8"
       units="px"
       originx="0"
       originy="0"
       spacingx="1"
       spacingy="0.99999999"
       empcolor="#0099e5"
       empopacity="0.30196078"
       color="#0099e5"
       opacity="0.14901961"
       empspacing="5"
       dotted="false"
       gridanglex="30"
       gridanglez="30"
       visible="true" />
  </sodipodi:namedview>
  <g
     id="g1"
     inkscape:groupmode="layer"
     inkscape:label="1">
    <path
       id="path1"
       d="m 453.361,158.977 c 0,66.699 -58.024,120.765 -129.595,120.765 -71.571,0 -129.595,-54.066 -129.595,-120.765 0,-66.696 58.024,-120.766 129.595,-120.766 71.571,0 129.595,54.07 129.595,120.766"
       style="fill:none;stroke:#010001;stroke-width:7.94357998;stroke-linecap:butt;stroke-linejoin:miter;stroke-miterlimit:10;stroke-dasharray:none;stroke-opacity:1"
       transform="scale(1.1480453,1.3333333)" />
    <path
       id="path4"
       d="M 428.629,289.438 278.215,34.938"
       style="fill:none;stroke:#000000;stroke-width:5.66929;stroke-linecap:butt;stroke-linejoin:miter;stroke-miterlimit:4;stroke-dasharray:none;stroke-opacity:1;marker-start:url(#marker9)"
       transform="scale(1.3333333)" />
    <path
       id="path4-2"
       d="M 737.58019,216.16744 29.090262,215.20583"
       style="fill:none;stroke:#000000;stroke-width:9.828;stroke-linecap:butt;stroke-linejoin:miter;stroke-miterlimit:4;stroke-dasharray:none;stroke-opacity:1;marker-start:url(#ConcaveTriangle);marker-end:url(#marker8)"
       sodipodi:nodetypes="cc" />
    <path
       id="path6"
       d="m 482.17882,216.05882 c 0,7.36933 -5.48,13.348 -12.23467,13.348 -6.756,0 -12.23467,-5.97867 -12.23467,-13.348 0,-7.376 5.47867,-13.34933 12.23467,-13.34933 6.75467,0 12.23467,5.97333 12.23467,13.34933"
       style="fill:#000000;fill-opacity:0.970675;fill-rule:nonzero;stroke:#010001;stroke-width:5.41897;stroke-linecap:butt;stroke-linejoin:miter;stroke-miterlimit:4;stroke-dasharray:none;stroke-opacity:1" />
    <path
       id="path6-8"
       d="m 520.17882,282.05882 c 0,7.36933 -5.48,13.348 -12.23467,13.348 -6.756,0 -12.23467,-5.97867 -12.23467,-13.348 0,-7.376 5.47867,-13.34933 12.23467,-13.34933 6.75467,0 12.23467,5.97333 12.23467,13.34933"
       style="fill:#000000;fill-opacity:0.970675;fill-rule:nonzero;stroke:#010001;stroke-width:5.41897;stroke-linecap:butt;stroke-linejoin:miter;stroke-miterlimit:4;stroke-dasharray:none;stroke-opacity:1" />
    <path
       id="path5"
       d="m 288.543,37.762 c 0,5.527 -4.109,10.011 -9.176,10.011 -5.066,0 -9.176,-4.484 -9.176,-10.011 0,-5.528 4.11,-10.012 9.176,-10.012 5.067,0 9.176,4.484 9.176,10.012"
       style="fill:#000000;fill-opacity:0.970675;fill-rule:nonzero;stroke:#010001;stroke-width:4.06423;stroke-linecap:butt;stroke-linejoin:miter;stroke-miterlimit:4;stroke-dasharray:none;stroke-opacity:1"
       transform="scale(1.3333333)" />
  </g>
</svg>
