<?xml version="1.0" encoding="UTF-8" standalone="no"?>
<svg
   xmlns:ns2="http://www.iki.fi/pav/software/textext/"
   xmlns:dc="http://purl.org/dc/elements/1.1/"
   xmlns:cc="http://creativecommons.org/ns#"
   xmlns:rdf="http://www.w3.org/1999/02/22-rdf-syntax-ns#"
   xmlns:svg="http://www.w3.org/2000/svg"
   xmlns="http://www.w3.org/2000/svg"
   xmlns:sodipodi="http://sodipodi.sourceforge.net/DTD/sodipodi-0.dtd"
   xmlns:inkscape="http://www.inkscape.org/namespaces/inkscape"
   inkscape:version="1.0 (4035a4f, 2020-05-01)"
   version="1.1"
   id="svg833"
   xml:space="preserve"
   width="652.92651"
   height="461.57587"
   viewBox="0 0 652.92651 461.57587"
   sodipodi:docname="discrete-geodesic.svg"><metadata
     id="metadata839"><rdf:RDF><cc:Work
         rdf:about=""><dc:format>image/svg+xml</dc:format><dc:type
           rdf:resource="http://purl.org/dc/dcmitype/StillImage" /><dc:title></dc:title></cc:Work></rdf:RDF></metadata><defs
     id="defs837" /><sodipodi:namedview
     inkscape:document-rotation="0"
     inkscape:current-layer="g841"
     inkscape:window-maximized="0"
     inkscape:window-y="25"
     inkscape:window-x="0"
     inkscape:cy="230.78793"
     inkscape:cx="326.46326"
     inkscape:zoom="0.94650774"
     showgrid="false"
     id="namedview835"
     inkscape:window-height="705"
     inkscape:window-width="1220"
     inkscape:pageshadow="2"
     inkscape:pageopacity="0"
     guidetolerance="10"
     gridtolerance="10"
     objecttolerance="10"
     borderopacity="1"
     bordercolor="#666666"
     pagecolor="#ffffff" /><g
     transform="matrix(1.3333333,0,0,1.3333333,-74.814933,-187.983)"
     inkscape:label="discrete-geodesic"
     inkscape:groupmode="layer"
     id="g841"><g
       id="g843"><g
         id="g845"><path
           id="path847"
           style="fill:none;stroke:#000000;stroke-width:5.66929;stroke-linecap:butt;stroke-linejoin:miter;stroke-miterlimit:4;stroke-dasharray:none;stroke-opacity:1"
           d="M 286.812,151.012 C 221.988,223.438 157.168,295.863 92.344,368.293" /></g><g
         id="g849"><path
           id="path851"
           style="fill:none;stroke:#000000;stroke-width:5.66929;stroke-linecap:butt;stroke-linejoin:miter;stroke-miterlimit:4;stroke-dasharray:none;stroke-opacity:1"
           d="M 309.625,429.133 286.812,151.012" /></g><g
         id="g853"><path
           id="path855"
           style="fill:none;stroke:#000000;stroke-width:5.66929;stroke-linecap:butt;stroke-linejoin:miter;stroke-miterlimit:4;stroke-dasharray:none;stroke-opacity:1"
           d="M 286.812,151.012 488.883,371.551 309.625,429.133 92.344,368.293 466.07,473.672" /></g><path
         id="path857"
         style="fill:#000000;fill-opacity:1;fill-rule:nonzero;stroke:none"
         d="m 313.68,451.812 c 0,-3.242 -1.664,-4.167 -2.742,-4.167 -1.567,0 -3.133,1.574 -3.133,2.871 0,0.738 0.293,1.109 0.98,1.757 1.371,1.204 2.153,2.684 2.153,4.817 0,2.5 -3.817,16.015 -11.063,16.015 -3.234,0 -4.703,-2.035 -4.703,-5.183 0,-3.242 1.766,-7.594 3.625,-12.5 0.488,-1.02 0.781,-1.852 0.781,-2.961 0,-2.594 -1.957,-4.816 -5.09,-4.816 -5.875,0 -8.226,8.609 -8.226,9.074 0,0.648 0.59,0.648 0.687,0.648 0.684,0 0.684,-0.187 0.977,-1.113 1.863,-5.926 4.504,-7.313 6.367,-7.313 0.488,0 1.566,0 1.566,1.852 0,1.48 -0.687,3.148 -1.078,4.164 -2.742,6.852 -3.523,9.539 -3.523,12.133 0,6.387 5.48,7.312 8.32,7.312 10.481,0 14.102,-19.535 14.102,-22.59 z" /><g
         id="g859"><path
           id="path861"
           style="fill:none;stroke:#000000;stroke-width:5.66929;stroke-linecap:butt;stroke-linejoin:miter;stroke-miterlimit:4;stroke-dasharray:none;stroke-opacity:1"
           d="m 379.156,409.574 c 2.793,6.52 5.59,13.039 4.864,19.375 -0.723,6.34 -4.965,12.496 -9.208,18.653" /></g><g
         id="g865"><path
           id="path867"
           style="fill:#000000;fill-opacity:1;fill-rule:nonzero;stroke:#010001;stroke-width:4.06423;stroke-linecap:butt;stroke-linejoin:miter;stroke-miterlimit:4;stroke-dasharray:none;stroke-opacity:1"
           d="m 318.387,427.371 c 0,5.527 -4.106,10.012 -9.176,10.012 -5.063,0 -9.176,-4.485 -9.176,-10.012 0,-5.527 4.113,-10.012 9.176,-10.012 5.07,0 9.176,4.485 9.176,10.012" /></g></g><g
       transform="matrix(4.4285761,0,0,4.8487767,242.87844,210.78533)"
       ns2:version="1.0.0"
       ns2:texconverter="pdflatex"
       ns2:pdfconverter="inkscape"
       ns2:text="$\\alpha_i$"
       ns2:preamble="/Users/bm/Library/Application Support/org.inkscape.Inkscape/config/inkscape/extensions/textext/default_packages.tex"
       ns2:scale="3.038586796050615"
       ns2:alignment="middle center"
       ns2:jacobian_sqrt="4.05144"
       id="g904"><defs
   id="id-5b916f50-048c-44a1-9aed-7aa2cc1d3393">
    <g
   id="id-363d859c-cf40-42dd-828b-86c18ea05006">
      <symbol
   id="id-01a29575-2ecd-4ec9-95ff-f2bee93e66ed"
   overflow="visible">
        <path
   id="id-a8a1b9ee-20e5-47ac-bfac-39af1125dcd8"
   d=""
   style="stroke:none" />
      </symbol>
      <symbol
   id="id-8b869f1b-4455-4973-9024-6580f9a9ddf9"
   overflow="visible">
        <path
   id="id-394a95b0-b505-4203-bd04-5b16f22acb2b"
   d="m 4.75,-2.359375 c 0,-1.5625 -0.921875,-2.046875 -1.65625,-2.046875 -1.375,0 -2.6875,1.421875 -2.6875,2.828125 0,0.9375 0.59375,1.6875 1.625,1.6875 0.625,0 1.34375,-0.234375 2.09375,-0.84375 0.125,0.53125 0.453125,0.84375 0.90625,0.84375 0.53125,0 0.84375,-0.546875 0.84375,-0.703125 0,-0.078125 -0.0625,-0.109375 -0.125,-0.109375 -0.0625,0 -0.09375,0.03125 -0.125,0.109375 -0.1875,0.484375 -0.546875,0.484375 -0.5625,0.484375 -0.3125,0 -0.3125,-0.78125 -0.3125,-1.015625 0,-0.203125 0,-0.234375 0.109375,-0.34375 C 5.796875,-2.65625 6,-3.8125 6,-3.8125 6,-3.84375 5.984375,-3.921875 5.875,-3.921875 c -0.09375,0 -0.09375,0.03125 -0.140625,0.21875 -0.1875,0.625 -0.515625,1.375 -0.984375,1.96875 z m -0.65625,1.375 c -0.890625,0.765625 -1.65625,0.875 -2.046875,0.875 -0.59375,0 -0.90625,-0.453125 -0.90625,-1.09375 0,-0.484375 0.265625,-1.5625 0.578125,-2.0625 C 2.1875,-4 2.734375,-4.1875 3.078125,-4.1875 c 0.984375,0 0.984375,1.3125 0.984375,2.078125 0,0.375 0,0.953125 0.03125,1.125 z m 0,0"
   style="stroke:none" />
      </symbol>
      <symbol
   id="id-09c657bd-5bb0-40e6-aee2-433ba2048086"
   overflow="visible">
        <path
   id="id-1838f6e6-229f-4d5b-be47-5a527b2a2ac2"
   d=""
   style="stroke:none" />
      </symbol>
      <symbol
   id="id-c1707f4e-0c87-4925-b1ed-4a348127b6b1"
   overflow="visible">
        <path
   id="id-847ead33-f2ec-4e01-9abc-0c23de64a557"
   d="m 2.265625,-4.359375 c 0,-0.109375 -0.09375,-0.265625 -0.28125,-0.265625 -0.1875,0 -0.390625,0.1875 -0.390625,0.390625 0,0.109375 0.078125,0.265625 0.28125,0.265625 0.1875,0 0.390625,-0.203125 0.390625,-0.390625 z M 0.84375,-0.8125 c -0.03125,0.09375 -0.0625,0.171875 -0.0625,0.296875 0,0.328125 0.265625,0.578125 0.65625,0.578125 0.6875,0 1,-0.953125 1,-1.0625 0,-0.09375 -0.09375,-0.09375 -0.109375,-0.09375 -0.09375,0 -0.109375,0.046875 -0.140625,0.125 -0.15625,0.5625 -0.453125,0.84375 -0.734375,0.84375 -0.140625,0 -0.171875,-0.09375 -0.171875,-0.25 0,-0.15625 0.046875,-0.28125 0.109375,-0.4375 C 1.46875,-1 1.546875,-1.1875 1.609375,-1.375 1.671875,-1.546875 1.9375,-2.171875 1.953125,-2.265625 1.984375,-2.328125 2,-2.40625 2,-2.484375 2,-2.8125 1.71875,-3.078125 1.34375,-3.078125 0.640625,-3.078125 0.328125,-2.125 0.328125,-2 c 0,0.078125 0.09375,0.078125 0.125,0.078125 0.09375,0 0.09375,-0.03125 0.125,-0.109375 C 0.75,-2.625 1.0625,-2.875 1.3125,-2.875 c 0.109375,0 0.171875,0.046875 0.171875,0.234375 0,0.171875 -0.03125,0.265625 -0.203125,0.703125 z m 0,0"
   style="stroke:none" />
      </symbol>
    </g>
  </defs>
  <g
   transform="translate(-149.118,-130.359)"
   id="id-a6035c0d-5e8d-43a7-99d7-b9fa0eaeaa10">
    <g
   id="id-77e7e2a8-7508-4376-a511-1feb98cb5fad"
   style="fill:#000000;fill-opacity:1">
      <g
   transform="translate(148.712,134.765)"
   id="g896"><path
   id="id-0f67363f-4977-4ee6-8437-c103916d588d"
   d="m 4.75,-2.359375 c 0,-1.5625 -0.921875,-2.046875 -1.65625,-2.046875 -1.375,0 -2.6875,1.421875 -2.6875,2.828125 0,0.9375 0.59375,1.6875 1.625,1.6875 0.625,0 1.34375,-0.234375 2.09375,-0.84375 0.125,0.53125 0.453125,0.84375 0.90625,0.84375 0.53125,0 0.84375,-0.546875 0.84375,-0.703125 0,-0.078125 -0.0625,-0.109375 -0.125,-0.109375 -0.0625,0 -0.09375,0.03125 -0.125,0.109375 -0.1875,0.484375 -0.546875,0.484375 -0.5625,0.484375 -0.3125,0 -0.3125,-0.78125 -0.3125,-1.015625 0,-0.203125 0,-0.234375 0.109375,-0.34375 C 5.796875,-2.65625 6,-3.8125 6,-3.8125 6,-3.84375 5.984375,-3.921875 5.875,-3.921875 c -0.09375,0 -0.09375,0.03125 -0.140625,0.21875 -0.1875,0.625 -0.515625,1.375 -0.984375,1.96875 z m -0.65625,1.375 c -0.890625,0.765625 -1.65625,0.875 -2.046875,0.875 -0.59375,0 -0.90625,-0.453125 -0.90625,-1.09375 0,-0.484375 0.265625,-1.5625 0.578125,-2.0625 C 2.1875,-4 2.734375,-4.1875 3.078125,-4.1875 c 0.984375,0 0.984375,1.3125 0.984375,2.078125 0,0.375 0,0.953125 0.03125,1.125 z m 0,0"
   style="stroke:none" />
      </g></g>
    <g
   id="id-bc4c6425-55c2-42bc-9ab9-8551e2166097"
   style="fill:#000000;fill-opacity:1">
      <g
   transform="translate(155.085,136.259)"
   id="g900"><path
   id="id-dc02ab65-5cff-4c59-8949-778fc8181cef"
   d="m 2.265625,-4.359375 c 0,-0.109375 -0.09375,-0.265625 -0.28125,-0.265625 -0.1875,0 -0.390625,0.1875 -0.390625,0.390625 0,0.109375 0.078125,0.265625 0.28125,0.265625 0.1875,0 0.390625,-0.203125 0.390625,-0.390625 z M 0.84375,-0.8125 c -0.03125,0.09375 -0.0625,0.171875 -0.0625,0.296875 0,0.328125 0.265625,0.578125 0.65625,0.578125 0.6875,0 1,-0.953125 1,-1.0625 0,-0.09375 -0.09375,-0.09375 -0.109375,-0.09375 -0.09375,0 -0.109375,0.046875 -0.140625,0.125 -0.15625,0.5625 -0.453125,0.84375 -0.734375,0.84375 -0.140625,0 -0.171875,-0.09375 -0.171875,-0.25 0,-0.15625 0.046875,-0.28125 0.109375,-0.4375 C 1.46875,-1 1.546875,-1.1875 1.609375,-1.375 1.671875,-1.546875 1.9375,-2.171875 1.953125,-2.265625 1.984375,-2.328125 2,-2.40625 2,-2.484375 2,-2.8125 1.71875,-3.078125 1.34375,-3.078125 0.640625,-3.078125 0.328125,-2.125 0.328125,-2 c 0,0.078125 0.09375,0.078125 0.125,0.078125 0.09375,0 0.09375,-0.03125 0.125,-0.109375 C 0.75,-2.625 1.0625,-2.875 1.3125,-2.875 c 0.109375,0 0.171875,0.046875 0.171875,0.234375 0,0.171875 -0.03125,0.265625 -0.203125,0.703125 z m 0,0"
   style="stroke:none" />
      </g></g>
  </g>
</g><g
       transform="matrix(4.5622946,0,0,4.5929304,131.67364,336.99653)"
       ns2:version="1.0.0"
       ns2:texconverter="pdflatex"
       ns2:pdfconverter="inkscape"
       ns2:text="$\\sigma_i$"
       ns2:preamble="/Users/bm/Library/Application Support/org.inkscape.Inkscape/config/inkscape/extensions/textext/default_packages.tex"
       ns2:scale="3.038586796050615"
       ns2:alignment="middle center"
       ns2:jacobian_sqrt="4.05144"
       id="g979"><defs
   id="id-ec70b111-bab6-45b3-a16b-fd7d75fc35e5">
    <g
   id="id-50fa52a1-7154-41a9-a3dd-f981d12491b0">
      <symbol
   id="id-f8b9cce8-4ffd-48aa-a227-31d5071e826d"
   overflow="visible">
        <path
   id="id-fb6700f4-f73c-4d69-a3f2-99511ba94411"
   d=""
   style="stroke:none" />
      </symbol>
      <symbol
   id="id-c863e43f-49d3-4e87-a429-cc4696554651"
   overflow="visible">
        <path
   id="id-b270f0af-fa50-41c0-b61b-88625b438c0a"
   d="m 5.15625,-3.71875 c 0.140625,0 0.5,0 0.5,-0.34375 0,-0.234375 -0.21875,-0.234375 -0.390625,-0.234375 h -2.28125 c -1.5,0 -2.609375,1.640625 -2.609375,2.828125 0,0.875 0.59375,1.578125 1.5,1.578125 1.171875,0 2.5,-1.203125 2.5,-2.734375 0,-0.171875 0,-0.65625 -0.3125,-1.09375 z M 1.890625,-0.109375 C 1.390625,-0.109375 1,-0.46875 1,-1.1875 c 0,-0.296875 0.109375,-1.109375 0.46875,-1.703125 0.421875,-0.6875 1.015625,-0.828125 1.359375,-0.828125 0.828125,0 0.90625,0.65625 0.90625,0.96875 0,0.46875 -0.203125,1.28125 -0.53125,1.796875 -0.390625,0.578125 -0.9375,0.84375 -1.3125,0.84375 z m 0,0"
   style="stroke:none" />
      </symbol>
      <symbol
   id="id-ad24ab63-4f21-477b-88b1-19602d0435a3"
   overflow="visible">
        <path
   id="id-f67532f2-aedb-4219-881e-cdac109f13c1"
   d=""
   style="stroke:none" />
      </symbol>
      <symbol
   id="id-9edd4c27-29d5-48ed-b184-0e948b65d43e"
   overflow="visible">
        <path
   id="id-d2fe6435-ad68-478f-a9fd-5d90a567aab9"
   d="m 2.265625,-4.359375 c 0,-0.109375 -0.09375,-0.265625 -0.28125,-0.265625 -0.1875,0 -0.390625,0.1875 -0.390625,0.390625 0,0.109375 0.078125,0.265625 0.28125,0.265625 0.1875,0 0.390625,-0.203125 0.390625,-0.390625 z M 0.84375,-0.8125 c -0.03125,0.09375 -0.0625,0.171875 -0.0625,0.296875 0,0.328125 0.265625,0.578125 0.65625,0.578125 0.6875,0 1,-0.953125 1,-1.0625 0,-0.09375 -0.09375,-0.09375 -0.109375,-0.09375 -0.09375,0 -0.109375,0.046875 -0.140625,0.125 -0.15625,0.5625 -0.453125,0.84375 -0.734375,0.84375 -0.140625,0 -0.171875,-0.09375 -0.171875,-0.25 0,-0.15625 0.046875,-0.28125 0.109375,-0.4375 C 1.46875,-1 1.546875,-1.1875 1.609375,-1.375 1.671875,-1.546875 1.9375,-2.171875 1.953125,-2.265625 1.984375,-2.328125 2,-2.40625 2,-2.484375 2,-2.8125 1.71875,-3.078125 1.34375,-3.078125 0.640625,-3.078125 0.328125,-2.125 0.328125,-2 c 0,0.078125 0.09375,0.078125 0.125,0.078125 0.09375,0 0.09375,-0.03125 0.125,-0.109375 C 0.75,-2.625 1.0625,-2.875 1.3125,-2.875 c 0.109375,0 0.171875,0.046875 0.171875,0.234375 0,0.171875 -0.03125,0.265625 -0.203125,0.703125 z m 0,0"
   style="stroke:none" />
      </symbol>
    </g>
  </defs>
  <g
   transform="translate(-149.087,-130.468)"
   id="id-7fe664fa-d36b-40cb-adc4-dcbe741419b3">
    <g
   id="id-706d6517-651f-45b9-968f-08c1b4689a34"
   style="fill:#000000;fill-opacity:1">
      <g
   transform="translate(148.712,134.765)"
   id="g971"><path
   id="id-f8d3a3e5-393a-4fc7-a5f9-165c95f52350"
   d="m 5.15625,-3.71875 c 0.140625,0 0.5,0 0.5,-0.34375 0,-0.234375 -0.21875,-0.234375 -0.390625,-0.234375 h -2.28125 c -1.5,0 -2.609375,1.640625 -2.609375,2.828125 0,0.875 0.59375,1.578125 1.5,1.578125 1.171875,0 2.5,-1.203125 2.5,-2.734375 0,-0.171875 0,-0.65625 -0.3125,-1.09375 z M 1.890625,-0.109375 C 1.390625,-0.109375 1,-0.46875 1,-1.1875 c 0,-0.296875 0.109375,-1.109375 0.46875,-1.703125 0.421875,-0.6875 1.015625,-0.828125 1.359375,-0.828125 0.828125,0 0.90625,0.65625 0.90625,0.96875 0,0.46875 -0.203125,1.28125 -0.53125,1.796875 -0.390625,0.578125 -0.9375,0.84375 -1.3125,0.84375 z m 0,0"
   style="stroke:none" />
      </g></g>
    <g
   id="id-391b6ba4-f374-4189-9a52-0ab9df9f8352"
   style="fill:#000000;fill-opacity:1">
      <g
   transform="translate(154.405,136.259)"
   id="g975"><path
   id="id-623556b0-0a62-4598-b556-ec36998a10f7"
   d="m 2.265625,-4.359375 c 0,-0.109375 -0.09375,-0.265625 -0.28125,-0.265625 -0.1875,0 -0.390625,0.1875 -0.390625,0.390625 0,0.109375 0.078125,0.265625 0.28125,0.265625 0.1875,0 0.390625,-0.203125 0.390625,-0.390625 z M 0.84375,-0.8125 c -0.03125,0.09375 -0.0625,0.171875 -0.0625,0.296875 0,0.328125 0.265625,0.578125 0.65625,0.578125 0.6875,0 1,-0.953125 1,-1.0625 0,-0.09375 -0.09375,-0.09375 -0.109375,-0.09375 -0.09375,0 -0.109375,0.046875 -0.140625,0.125 -0.15625,0.5625 -0.453125,0.84375 -0.734375,0.84375 -0.140625,0 -0.171875,-0.09375 -0.171875,-0.25 0,-0.15625 0.046875,-0.28125 0.109375,-0.4375 C 1.46875,-1 1.546875,-1.1875 1.609375,-1.375 1.671875,-1.546875 1.9375,-2.171875 1.953125,-2.265625 1.984375,-2.328125 2,-2.40625 2,-2.484375 2,-2.8125 1.71875,-3.078125 1.34375,-3.078125 0.640625,-3.078125 0.328125,-2.125 0.328125,-2 c 0,0.078125 0.09375,0.078125 0.125,0.078125 0.09375,0 0.09375,-0.03125 0.125,-0.109375 C 0.75,-2.625 1.0625,-2.875 1.3125,-2.875 c 0.109375,0 0.171875,0.046875 0.171875,0.234375 0,0.171875 -0.03125,0.265625 -0.203125,0.703125 z m 0,0"
   style="stroke:none" />
      </g></g>
  </g>
</g><g
       transform="matrix(5.0225206,0,0,4.728303,252.2266,366.31481)"
       ns2:version="1.0.0"
       ns2:texconverter="pdflatex"
       ns2:pdfconverter="inkscape"
       ns2:text="$\\tau_i$"
       ns2:preamble="/Users/bm/Library/Application Support/org.inkscape.Inkscape/config/inkscape/extensions/textext/default_packages.tex"
       ns2:scale="3.038586796050615"
       ns2:alignment="middle center"
       ns2:jacobian_sqrt="4.05144"
       id="g1072"><defs
   id="id-a1f5b0af-ff60-4bdd-b397-80e0dc0115c1">
    <g
   id="id-4d3f6570-9ded-4827-bcfe-a07babeb496a">
      <symbol
   id="id-b4a9433f-3cfd-4d46-9414-a0f3c4f7c267"
   overflow="visible">
        <path
   id="id-3d1ac4ea-f3d5-45d5-b86a-17501d596e88"
   d=""
   style="stroke:none" />
      </symbol>
      <symbol
   id="id-4da7d1f1-ba93-4202-a0de-13a656cf23a3"
   overflow="visible">
        <path
   id="id-e5a9686a-391a-4341-a36e-f75fe8bfb97e"
   d="m 2.9375,-3.71875 h 1.671875 c 0.125,0 0.484375,0 0.484375,-0.34375 0,-0.234375 -0.203125,-0.234375 -0.40625,-0.234375 H 1.90625 c -0.203125,0 -0.59375,0 -1.03125,0.46875 -0.328125,0.359375 -0.609375,0.84375 -0.609375,0.890625 0,0.015625 0,0.109375 0.125,0.109375 0.078125,0 0.09375,-0.046875 0.15625,-0.125 C 1.03125,-3.71875 1.609375,-3.71875 1.8125,-3.71875 h 0.828125 l -0.96875,3.203125 C 1.625,-0.40625 1.5625,-0.1875 1.5625,-0.15625 c 0,0.109375 0.078125,0.28125 0.296875,0.28125 0.328125,0 0.375,-0.28125 0.40625,-0.4375 z m 0,0"
   style="stroke:none" />
      </symbol>
      <symbol
   id="id-d62001b3-f63d-4f44-9d26-096a0fc351fc"
   overflow="visible">
        <path
   id="id-87a779a3-35d2-4169-abc7-2a2d48436bcc"
   d=""
   style="stroke:none" />
      </symbol>
      <symbol
   id="id-eb70f7ec-2f58-4724-9739-a881fc299211"
   overflow="visible">
        <path
   id="id-b51ceb03-4b2d-4c6f-9d06-edf92b1bbce6"
   d="m 2.265625,-4.359375 c 0,-0.109375 -0.09375,-0.265625 -0.28125,-0.265625 -0.1875,0 -0.390625,0.1875 -0.390625,0.390625 0,0.109375 0.078125,0.265625 0.28125,0.265625 0.1875,0 0.390625,-0.203125 0.390625,-0.390625 z M 0.84375,-0.8125 c -0.03125,0.09375 -0.0625,0.171875 -0.0625,0.296875 0,0.328125 0.265625,0.578125 0.65625,0.578125 0.6875,0 1,-0.953125 1,-1.0625 0,-0.09375 -0.09375,-0.09375 -0.109375,-0.09375 -0.09375,0 -0.109375,0.046875 -0.140625,0.125 -0.15625,0.5625 -0.453125,0.84375 -0.734375,0.84375 -0.140625,0 -0.171875,-0.09375 -0.171875,-0.25 0,-0.15625 0.046875,-0.28125 0.109375,-0.4375 C 1.46875,-1 1.546875,-1.1875 1.609375,-1.375 1.671875,-1.546875 1.9375,-2.171875 1.953125,-2.265625 1.984375,-2.328125 2,-2.40625 2,-2.484375 2,-2.8125 1.71875,-3.078125 1.34375,-3.078125 0.640625,-3.078125 0.328125,-2.125 0.328125,-2 c 0,0.078125 0.09375,0.078125 0.125,0.078125 0.09375,0 0.09375,-0.03125 0.125,-0.109375 C 0.75,-2.625 1.0625,-2.875 1.3125,-2.875 c 0.109375,0 0.171875,0.046875 0.171875,0.234375 0,0.171875 -0.03125,0.265625 -0.203125,0.703125 z m 0,0"
   style="stroke:none" />
      </symbol>
    </g>
  </defs>
  <g
   transform="translate(-148.978,-130.468)"
   id="id-9e64244e-f494-4894-8eba-e5020ab62184">
    <g
   id="id-7109dc9d-c41e-4027-968a-da167f2b2c74"
   style="fill:#000000;fill-opacity:1">
      <g
   transform="translate(148.712,134.765)"
   id="g1064"><path
   id="id-2384c543-0973-4280-a5c9-489b9a7fefd3"
   d="m 2.9375,-3.71875 h 1.671875 c 0.125,0 0.484375,0 0.484375,-0.34375 0,-0.234375 -0.203125,-0.234375 -0.40625,-0.234375 H 1.90625 c -0.203125,0 -0.59375,0 -1.03125,0.46875 -0.328125,0.359375 -0.609375,0.84375 -0.609375,0.890625 0,0.015625 0,0.109375 0.125,0.109375 0.078125,0 0.09375,-0.046875 0.15625,-0.125 C 1.03125,-3.71875 1.609375,-3.71875 1.8125,-3.71875 h 0.828125 l -0.96875,3.203125 C 1.625,-0.40625 1.5625,-0.1875 1.5625,-0.15625 c 0,0.109375 0.078125,0.28125 0.296875,0.28125 0.328125,0 0.375,-0.28125 0.40625,-0.4375 z m 0,0"
   style="stroke:none" />
      </g></g>
    <g
   id="id-d348f0bf-63f0-4d89-8eec-22b09048d1e7"
   style="fill:#000000;fill-opacity:1">
      <g
   transform="translate(153.068,136.259)"
   id="g1068"><path
   id="id-a169b4e8-a460-414a-817b-c147f92e6fa0"
   d="m 2.265625,-4.359375 c 0,-0.109375 -0.09375,-0.265625 -0.28125,-0.265625 -0.1875,0 -0.390625,0.1875 -0.390625,0.390625 0,0.109375 0.078125,0.265625 0.28125,0.265625 0.1875,0 0.390625,-0.203125 0.390625,-0.390625 z M 0.84375,-0.8125 c -0.03125,0.09375 -0.0625,0.171875 -0.0625,0.296875 0,0.328125 0.265625,0.578125 0.65625,0.578125 0.6875,0 1,-0.953125 1,-1.0625 0,-0.09375 -0.09375,-0.09375 -0.109375,-0.09375 -0.09375,0 -0.109375,0.046875 -0.140625,0.125 -0.15625,0.5625 -0.453125,0.84375 -0.734375,0.84375 -0.140625,0 -0.171875,-0.09375 -0.171875,-0.25 0,-0.15625 0.046875,-0.28125 0.109375,-0.4375 C 1.46875,-1 1.546875,-1.1875 1.609375,-1.375 1.671875,-1.546875 1.9375,-2.171875 1.953125,-2.265625 1.984375,-2.328125 2,-2.40625 2,-2.484375 2,-2.8125 1.71875,-3.078125 1.34375,-3.078125 0.640625,-3.078125 0.328125,-2.125 0.328125,-2 c 0,0.078125 0.09375,0.078125 0.125,0.078125 0.09375,0 0.09375,-0.03125 0.125,-0.109375 C 0.75,-2.625 1.0625,-2.875 1.3125,-2.875 c 0.109375,0 0.171875,0.046875 0.171875,0.234375 0,0.171875 -0.03125,0.265625 -0.203125,0.703125 z m 0,0"
   style="stroke:none" />
      </g></g>
  </g>
</g><g
       transform="matrix(4.3674939,0,0,4.6500097,324.19224,365.55621)"
       ns2:version="1.0.0"
       ns2:texconverter="pdflatex"
       ns2:pdfconverter="inkscape"
       ns2:text="$\\sigma_{i+1}$"
       ns2:preamble="/Users/bm/Library/Application Support/org.inkscape.Inkscape/config/inkscape/extensions/textext/default_packages.tex"
       ns2:scale="3.038586796050615"
       ns2:alignment="middle center"
       ns2:jacobian_sqrt="4.05144"
       id="g1195"><defs
   id="id-37f061b1-43fc-4d9b-8e05-c230423afdb0">
    <g
   id="id-7f20183b-42ea-47fe-8af8-cba9c8cf939a">
      <symbol
   id="id-bc3d145b-2c21-4171-ab9a-a674f479ae7b"
   overflow="visible">
        <path
   id="id-1847a212-9b22-4005-8f48-5c5182f856d1"
   d=""
   style="stroke:none" />
      </symbol>
      <symbol
   id="id-490bf82a-a8c5-4f97-bed9-88ee5aca59cf"
   overflow="visible">
        <path
   id="id-18d758df-4cd1-49d8-a082-29f1ba05fb13"
   d="m 5.15625,-3.71875 c 0.140625,0 0.5,0 0.5,-0.34375 0,-0.234375 -0.21875,-0.234375 -0.390625,-0.234375 h -2.28125 c -1.5,0 -2.609375,1.640625 -2.609375,2.828125 0,0.875 0.59375,1.578125 1.5,1.578125 1.171875,0 2.5,-1.203125 2.5,-2.734375 0,-0.171875 0,-0.65625 -0.3125,-1.09375 z M 1.890625,-0.109375 C 1.390625,-0.109375 1,-0.46875 1,-1.1875 c 0,-0.296875 0.109375,-1.109375 0.46875,-1.703125 0.421875,-0.6875 1.015625,-0.828125 1.359375,-0.828125 0.828125,0 0.90625,0.65625 0.90625,0.96875 0,0.46875 -0.203125,1.28125 -0.53125,1.796875 -0.390625,0.578125 -0.9375,0.84375 -1.3125,0.84375 z m 0,0"
   style="stroke:none" />
      </symbol>
      <symbol
   id="id-cc75e8c7-5ae7-44c7-8ef8-a8a344c62c14"
   overflow="visible">
        <path
   id="id-9b557b3b-ca71-4820-978a-9b06b24a25b0"
   d=""
   style="stroke:none" />
      </symbol>
      <symbol
   id="id-e0bb9e64-0d97-4d7d-bd3e-757d1100e0b4"
   overflow="visible">
        <path
   id="id-5d6d5ef9-4e2e-4eea-af68-46c83aa4a01d"
   d="m 2.265625,-4.359375 c 0,-0.109375 -0.09375,-0.265625 -0.28125,-0.265625 -0.1875,0 -0.390625,0.1875 -0.390625,0.390625 0,0.109375 0.078125,0.265625 0.28125,0.265625 0.1875,0 0.390625,-0.203125 0.390625,-0.390625 z M 0.84375,-0.8125 c -0.03125,0.09375 -0.0625,0.171875 -0.0625,0.296875 0,0.328125 0.265625,0.578125 0.65625,0.578125 0.6875,0 1,-0.953125 1,-1.0625 0,-0.09375 -0.09375,-0.09375 -0.109375,-0.09375 -0.09375,0 -0.109375,0.046875 -0.140625,0.125 -0.15625,0.5625 -0.453125,0.84375 -0.734375,0.84375 -0.140625,0 -0.171875,-0.09375 -0.171875,-0.25 0,-0.15625 0.046875,-0.28125 0.109375,-0.4375 C 1.46875,-1 1.546875,-1.1875 1.609375,-1.375 1.671875,-1.546875 1.9375,-2.171875 1.953125,-2.265625 1.984375,-2.328125 2,-2.40625 2,-2.484375 2,-2.8125 1.71875,-3.078125 1.34375,-3.078125 0.640625,-3.078125 0.328125,-2.125 0.328125,-2 c 0,0.078125 0.09375,0.078125 0.125,0.078125 0.09375,0 0.09375,-0.03125 0.125,-0.109375 C 0.75,-2.625 1.0625,-2.875 1.3125,-2.875 c 0.109375,0 0.171875,0.046875 0.171875,0.234375 0,0.171875 -0.03125,0.265625 -0.203125,0.703125 z m 0,0"
   style="stroke:none" />
      </symbol>
      <symbol
   id="id-bbc057d0-6644-4f58-b420-b182f9341c5d"
   overflow="visible">
        <path
   id="id-4055d070-cb4c-4ef6-9ddc-0a186e685a22"
   d=""
   style="stroke:none" />
      </symbol>
      <symbol
   id="id-65c34be0-fb28-49c5-a267-ce0026412072"
   overflow="visible">
        <path
   id="id-8d7a4631-457c-4d76-89f9-13bb60baea28"
   d="m 3.21875,-1.578125 h 2.140625 c 0.09375,0 0.25,0 0.25,-0.15625 0,-0.1875 -0.15625,-0.1875 -0.25,-0.1875 H 3.21875 V -4.0625 c 0,-0.078125 0,-0.25 -0.15625,-0.25 -0.171875,0 -0.171875,0.15625 -0.171875,0.25 v 2.140625 H 0.75 c -0.09375,0 -0.265625,0 -0.265625,0.171875 0,0.171875 0.15625,0.171875 0.265625,0.171875 H 2.890625 V 0.5625 c 0,0.09375 0,0.265625 0.15625,0.265625 0.171875,0 0.171875,-0.171875 0.171875,-0.265625 z m 0,0"
   style="stroke:none" />
      </symbol>
      <symbol
   id="id-64749e6a-62ef-4456-9a10-b74a81e857a4"
   overflow="visible">
        <path
   id="id-50a1c898-ff10-415a-aae7-07056d32e5f9"
   d="m 2.328125,-4.4375 c 0,-0.1875 0,-0.1875 -0.203125,-0.1875 -0.453125,0.4375 -1.078125,0.4375 -1.359375,0.4375 v 0.25 c 0.15625,0 0.625,0 1,-0.1875 v 3.546875 c 0,0.234375 0,0.328125 -0.6875,0.328125 H 0.8125 V 0 c 0.125,0 0.984375,-0.03125 1.234375,-0.03125 0.21875,0 1.09375,0.03125 1.25,0.03125 V -0.25 H 3.03125 c -0.703125,0 -0.703125,-0.09375 -0.703125,-0.328125 z m 0,0"
   style="stroke:none" />
      </symbol>
    </g>
  </defs>
  <g
   transform="translate(-149.087,-130.468)"
   id="id-b0ab3df3-1f51-4126-aefb-f7b4f52283c4">
    <g
   id="id-e466db22-bc7a-452e-ace7-6c1442de0320"
   style="fill:#000000;fill-opacity:1">
      <g
   transform="translate(148.712,134.765)"
   id="g1180"><path
   id="id-1c7f7fb1-8afa-40c9-9256-660ec6ea2cc0"
   d="m 5.15625,-3.71875 c 0.140625,0 0.5,0 0.5,-0.34375 0,-0.234375 -0.21875,-0.234375 -0.390625,-0.234375 h -2.28125 c -1.5,0 -2.609375,1.640625 -2.609375,2.828125 0,0.875 0.59375,1.578125 1.5,1.578125 1.171875,0 2.5,-1.203125 2.5,-2.734375 0,-0.171875 0,-0.65625 -0.3125,-1.09375 z M 1.890625,-0.109375 C 1.390625,-0.109375 1,-0.46875 1,-1.1875 c 0,-0.296875 0.109375,-1.109375 0.46875,-1.703125 0.421875,-0.6875 1.015625,-0.828125 1.359375,-0.828125 0.828125,0 0.90625,0.65625 0.90625,0.96875 0,0.46875 -0.203125,1.28125 -0.53125,1.796875 -0.390625,0.578125 -0.9375,0.84375 -1.3125,0.84375 z m 0,0"
   style="stroke:none" />
      </g></g>
    <g
   id="id-19f310fe-fe63-4133-8414-4d557c865d3b"
   style="fill:#000000;fill-opacity:1">
      <g
   transform="translate(154.405,136.259)"
   id="g1184"><path
   id="id-513c60d0-6bdf-4e3d-9d04-af2365736aab"
   d="m 2.265625,-4.359375 c 0,-0.109375 -0.09375,-0.265625 -0.28125,-0.265625 -0.1875,0 -0.390625,0.1875 -0.390625,0.390625 0,0.109375 0.078125,0.265625 0.28125,0.265625 0.1875,0 0.390625,-0.203125 0.390625,-0.390625 z M 0.84375,-0.8125 c -0.03125,0.09375 -0.0625,0.171875 -0.0625,0.296875 0,0.328125 0.265625,0.578125 0.65625,0.578125 0.6875,0 1,-0.953125 1,-1.0625 0,-0.09375 -0.09375,-0.09375 -0.109375,-0.09375 -0.09375,0 -0.109375,0.046875 -0.140625,0.125 -0.15625,0.5625 -0.453125,0.84375 -0.734375,0.84375 -0.140625,0 -0.171875,-0.09375 -0.171875,-0.25 0,-0.15625 0.046875,-0.28125 0.109375,-0.4375 C 1.46875,-1 1.546875,-1.1875 1.609375,-1.375 1.671875,-1.546875 1.9375,-2.171875 1.953125,-2.265625 1.984375,-2.328125 2,-2.40625 2,-2.484375 2,-2.8125 1.71875,-3.078125 1.34375,-3.078125 0.640625,-3.078125 0.328125,-2.125 0.328125,-2 c 0,0.078125 0.09375,0.078125 0.125,0.078125 0.09375,0 0.09375,-0.03125 0.125,-0.109375 C 0.75,-2.625 1.0625,-2.875 1.3125,-2.875 c 0.109375,0 0.171875,0.046875 0.171875,0.234375 0,0.171875 -0.03125,0.265625 -0.203125,0.703125 z m 0,0"
   style="stroke:none" />
      </g></g>
    <g
   id="id-b77ebb0b-f5d9-47f5-b7d2-35a93a30af48"
   style="fill:#000000;fill-opacity:1">
      <g
   transform="translate(157.224,136.259)"
   id="g1188"><path
   id="id-1f3b45a6-4cf5-45ea-b5e0-88f09a06bdab"
   d="m 3.21875,-1.578125 h 2.140625 c 0.09375,0 0.25,0 0.25,-0.15625 0,-0.1875 -0.15625,-0.1875 -0.25,-0.1875 H 3.21875 V -4.0625 c 0,-0.078125 0,-0.25 -0.15625,-0.25 -0.171875,0 -0.171875,0.15625 -0.171875,0.25 v 2.140625 H 0.75 c -0.09375,0 -0.265625,0 -0.265625,0.171875 0,0.171875 0.15625,0.171875 0.265625,0.171875 H 2.890625 V 0.5625 c 0,0.09375 0,0.265625 0.15625,0.265625 0.171875,0 0.171875,-0.171875 0.171875,-0.265625 z m 0,0"
   style="stroke:none" />
      </g><g
   transform="translate(163.34,136.259)"
   id="g1191"><path
   id="id-d2df8885-5d58-4a9a-ae50-63bdd7074e8a"
   d="m 2.328125,-4.4375 c 0,-0.1875 0,-0.1875 -0.203125,-0.1875 -0.453125,0.4375 -1.078125,0.4375 -1.359375,0.4375 v 0.25 c 0.15625,0 0.625,0 1,-0.1875 v 3.546875 c 0,0.234375 0,0.328125 -0.6875,0.328125 H 0.8125 V 0 c 0.125,0 0.984375,-0.03125 1.234375,-0.03125 0.21875,0 1.09375,0.03125 1.25,0.03125 V -0.25 H 3.03125 c -0.703125,0 -0.703125,-0.09375 -0.703125,-0.328125 z m 0,0"
   style="stroke:none" />
      </g></g>
  </g>
</g><g
       transform="matrix(6.6871277,0,0,5.2697934,400.6538,413.85795)"
       ns2:version="1.0.0"
       ns2:texconverter="pdflatex"
       ns2:pdfconverter="inkscape"
       ns2:text="$\\epsilon_i$"
       ns2:preamble="/Users/bm/Library/Application Support/org.inkscape.Inkscape/config/inkscape/extensions/textext/default_packages.tex"
       ns2:scale="3.038586796050615"
       ns2:alignment="middle center"
       ns2:jacobian_sqrt="4.05144"
       id="g1345"><defs
   id="id-f81b56c0-46f3-4aa0-8807-c4740dff96d9">
    <g
   id="id-da0d136d-e7ca-42c9-a2cb-53b0f2193133">
      <symbol
   id="id-a7a0247a-819e-4b2f-b105-642984dbc69d"
   overflow="visible">
        <path
   id="id-997753f8-e964-41f2-a56f-8e4ca36891fa"
   d=""
   style="stroke:none" />
      </symbol>
      <symbol
   id="id-f095a2e6-ba31-4f0b-a99b-15b7adcf6659"
   overflow="visible">
        <path
   id="id-d17b7906-532d-4f73-97b2-cf28527f4733"
   d="m 2.96875,-2.25 c 0.15625,0 0.34375,0 0.34375,-0.171875 C 3.3125,-2.5625 3.1875,-2.5625 3.015625,-2.5625 H 1.40625 c 0.234375,-0.84375 0.796875,-1.421875 1.703125,-1.421875 h 0.3125 c 0.171875,0 0.328125,0 0.328125,-0.171875 0,-0.140625 -0.125,-0.140625 -0.296875,-0.140625 H 3.09375 c -1.296875,0 -2.625,1 -2.625,2.515625 0,1.109375 0.75,1.890625 1.796875,1.890625 0.65625,0 1.296875,-0.40625 1.296875,-0.515625 0,-0.015625 0,-0.125 -0.09375,-0.125 -0.015625,0 -0.046875,0 -0.125,0.046875 -0.3125,0.203125 -0.6875,0.375 -1.046875,0.375 -0.578125,0 -1.078125,-0.421875 -1.078125,-1.296875 0,-0.34375 0.078125,-0.734375 0.109375,-0.84375 z m 0,0"
   style="stroke:none" />
      </symbol>
      <symbol
   id="id-3eb90c4f-3d37-4416-9cb2-9d3f6f4e672a"
   overflow="visible">
        <path
   id="id-a18e3d49-112b-4847-a62a-8cfd8622831e"
   d=""
   style="stroke:none" />
      </symbol>
      <symbol
   id="id-9b708227-1798-43c7-9989-fb92f32134bb"
   overflow="visible">
        <path
   id="id-dc8718e4-a203-4d2d-9d24-f5954ee5a6ef"
   d="m 2.265625,-4.359375 c 0,-0.109375 -0.09375,-0.265625 -0.28125,-0.265625 -0.1875,0 -0.390625,0.1875 -0.390625,0.390625 0,0.109375 0.078125,0.265625 0.28125,0.265625 0.1875,0 0.390625,-0.203125 0.390625,-0.390625 z M 0.84375,-0.8125 c -0.03125,0.09375 -0.0625,0.171875 -0.0625,0.296875 0,0.328125 0.265625,0.578125 0.65625,0.578125 0.6875,0 1,-0.953125 1,-1.0625 0,-0.09375 -0.09375,-0.09375 -0.109375,-0.09375 -0.09375,0 -0.109375,0.046875 -0.140625,0.125 -0.15625,0.5625 -0.453125,0.84375 -0.734375,0.84375 -0.140625,0 -0.171875,-0.09375 -0.171875,-0.25 0,-0.15625 0.046875,-0.28125 0.109375,-0.4375 C 1.46875,-1 1.546875,-1.1875 1.609375,-1.375 1.671875,-1.546875 1.9375,-2.171875 1.953125,-2.265625 1.984375,-2.328125 2,-2.40625 2,-2.484375 2,-2.8125 1.71875,-3.078125 1.34375,-3.078125 0.640625,-3.078125 0.328125,-2.125 0.328125,-2 c 0,0.078125 0.09375,0.078125 0.125,0.078125 0.09375,0 0.09375,-0.03125 0.125,-0.109375 C 0.75,-2.625 1.0625,-2.875 1.3125,-2.875 c 0.109375,0 0.171875,0.046875 0.171875,0.234375 0,0.171875 -0.03125,0.265625 -0.203125,0.703125 z m 0,0"
   style="stroke:none" />
      </symbol>
    </g>
  </defs>
  <g
   transform="translate(-149.181,-130.468)"
   id="id-abceef15-8e52-4b2a-a761-e0349a1b0636">
    <g
   id="id-f75da4c5-d18c-4db2-b978-af621044812e"
   style="fill:#000000;fill-opacity:1">
      <g
   transform="translate(148.712,134.765)"
   id="g1337"><path
   id="id-0ea82bae-3b16-44b5-9cc3-f35da6b23303"
   d="m 2.96875,-2.25 c 0.15625,0 0.34375,0 0.34375,-0.171875 C 3.3125,-2.5625 3.1875,-2.5625 3.015625,-2.5625 H 1.40625 c 0.234375,-0.84375 0.796875,-1.421875 1.703125,-1.421875 h 0.3125 c 0.171875,0 0.328125,0 0.328125,-0.171875 0,-0.140625 -0.125,-0.140625 -0.296875,-0.140625 H 3.09375 c -1.296875,0 -2.625,1 -2.625,2.515625 0,1.109375 0.75,1.890625 1.796875,1.890625 0.65625,0 1.296875,-0.40625 1.296875,-0.515625 0,-0.015625 0,-0.125 -0.09375,-0.125 -0.015625,0 -0.046875,0 -0.125,0.046875 -0.3125,0.203125 -0.6875,0.375 -1.046875,0.375 -0.578125,0 -1.078125,-0.421875 -1.078125,-1.296875 0,-0.34375 0.078125,-0.734375 0.109375,-0.84375 z m 0,0"
   style="stroke:none" />
      </g></g>
    <g
   id="id-6de36f9d-4cf8-4b62-8a74-13c891001901"
   style="fill:#000000;fill-opacity:1">
      <g
   transform="translate(152.756,136.259)"
   id="g1341"><path
   id="id-5be0e920-3495-4e20-a45d-c357f89f2c50"
   d="m 2.265625,-4.359375 c 0,-0.109375 -0.09375,-0.265625 -0.28125,-0.265625 -0.1875,0 -0.390625,0.1875 -0.390625,0.390625 0,0.109375 0.078125,0.265625 0.28125,0.265625 0.1875,0 0.390625,-0.203125 0.390625,-0.390625 z M 0.84375,-0.8125 c -0.03125,0.09375 -0.0625,0.171875 -0.0625,0.296875 0,0.328125 0.265625,0.578125 0.65625,0.578125 0.6875,0 1,-0.953125 1,-1.0625 0,-0.09375 -0.09375,-0.09375 -0.109375,-0.09375 -0.09375,0 -0.109375,0.046875 -0.140625,0.125 -0.15625,0.5625 -0.453125,0.84375 -0.734375,0.84375 -0.140625,0 -0.171875,-0.09375 -0.171875,-0.25 0,-0.15625 0.046875,-0.28125 0.109375,-0.4375 C 1.46875,-1 1.546875,-1.1875 1.609375,-1.375 1.671875,-1.546875 1.9375,-2.171875 1.953125,-2.265625 1.984375,-2.328125 2,-2.40625 2,-2.484375 2,-2.8125 1.71875,-3.078125 1.34375,-3.078125 0.640625,-3.078125 0.328125,-2.125 0.328125,-2 c 0,0.078125 0.09375,0.078125 0.125,0.078125 0.09375,0 0.09375,-0.03125 0.125,-0.109375 C 0.75,-2.625 1.0625,-2.875 1.3125,-2.875 c 0.109375,0 0.171875,0.046875 0.171875,0.234375 0,0.171875 -0.03125,0.265625 -0.203125,0.703125 z m 0,0"
   style="stroke:none" />
      </g></g>
  </g>
</g></g></svg>
